<svg width="251" height="31" viewBox="0 0 251 31" fill="none" xmlns="http://www.w3.org/2000/svg">
<g filter="url(#filter0_d)">
<rect x="5.5" y="3.5" width="238" height="18" rx="1.5" stroke="url(#paint0_linear)"/>
</g>
<path d="M51.3535 12.582L50.5449 10.3438L49.7305 12.582H51.3535ZM51.0078 8.56836L54.0605 17H52.959L51.6875 13.4961H49.3965L48.1016 17H46.9941L50.0879 8.56836H51.0078ZM61.7176 17H60.657V16.0625C60.2391 16.7812 59.6023 17.1406 58.7469 17.1406C57.8992 17.1406 57.1805 16.8477 56.5906 16.2617C56.0047 15.6719 55.7117 14.9766 55.7117 14.1758C55.7117 13.3672 56.0047 12.6699 56.5906 12.084C57.1805 11.498 57.8992 11.2051 58.7469 11.2051C59.6023 11.2051 60.2391 11.5605 60.657 12.2715V8.56836H61.7176V17ZM60.657 14.5977V13.7422C60.5828 13.3555 60.4051 13.0215 60.1238 12.7402C59.7293 12.3418 59.2703 12.1426 58.7469 12.1426C58.2195 12.1426 57.7625 12.3379 57.3758 12.7285C56.9891 13.1191 56.7957 13.6016 56.7957 14.1758C56.7957 14.7461 56.9891 15.2246 57.3758 15.6113C57.7625 15.998 58.2195 16.1914 58.7469 16.1914C59.2703 16.1914 59.7293 15.9941 60.1238 15.5996C60.4051 15.3184 60.5828 14.9844 60.657 14.5977ZM69.8785 17H68.818V16.0625C68.4 16.7812 67.7633 17.1406 66.9078 17.1406C66.0602 17.1406 65.3414 16.8477 64.7516 16.2617C64.1656 15.6719 63.8727 14.9766 63.8727 14.1758C63.8727 13.3672 64.1656 12.6699 64.7516 12.084C65.3414 11.498 66.0602 11.2051 66.9078 11.2051C67.7633 11.2051 68.4 11.5605 68.818 12.2715V8.56836H69.8785V17ZM68.818 14.5977V13.7422C68.7437 13.3555 68.566 13.0215 68.2848 12.7402C67.8902 12.3418 67.4312 12.1426 66.9078 12.1426C66.3805 12.1426 65.9234 12.3379 65.5367 12.7285C65.15 13.1191 64.9566 13.6016 64.9566 14.1758C64.9566 14.7461 65.15 15.2246 65.5367 15.6113C65.9234 15.998 66.3805 16.1914 66.9078 16.1914C67.4312 16.1914 67.8902 15.9941 68.2848 15.5996C68.566 15.3184 68.7437 14.9844 68.818 14.5977ZM75.1098 8.56836H76.2641L72.4438 17H71.2953L75.1098 8.56836ZM84.3664 15.1426L85.1047 15.7988C84.1555 16.6621 83.1105 17.0938 81.9699 17.0938C80.7434 17.0938 79.7062 16.6719 78.8586 15.8281C78.0148 14.9805 77.593 13.9648 77.593 12.7812C77.593 11.6094 78.0148 10.5977 78.8586 9.74609C79.7062 8.89453 80.7434 8.46875 81.9699 8.46875C83.1105 8.46875 84.1555 8.90234 85.1047 9.76953L84.3664 10.4258C83.593 9.74219 82.7941 9.40039 81.9699 9.40039C81.0715 9.40039 80.2941 9.72852 79.6379 10.3848C78.9855 11.0371 78.6594 11.8359 78.6594 12.7812C78.6594 13.7344 78.9855 14.5371 79.6379 15.1895C80.2941 15.8418 81.0715 16.168 81.9699 16.168C82.7941 16.168 83.593 15.8262 84.3664 15.1426ZM87.2305 8.56836H88.291V11.6445C88.4707 11.4492 88.8418 11.3516 89.4043 11.3516C90.0801 11.3516 90.625 11.5586 91.0391 11.9727C91.4531 12.3867 91.6641 12.8926 91.6719 13.4902V17H90.6172V13.5371C90.6172 13.1738 90.4941 12.873 90.248 12.6348C90.002 12.3926 89.7207 12.2715 89.4043 12.2715C89.0918 12.2715 88.8164 12.3848 88.5781 12.6113C88.4414 12.748 88.3457 12.8789 88.291 13.0039V17H87.2305V8.56836ZM99.8035 17H98.743V16.0625C98.325 16.7812 97.6883 17.1406 96.8328 17.1406C95.9852 17.1406 95.2664 16.8477 94.6766 16.2617C94.0906 15.6719 93.7977 14.9766 93.7977 14.1758C93.7977 13.3672 94.0906 12.6699 94.6766 12.084C95.2664 11.498 95.9852 11.2051 96.8328 11.2051C97.6883 11.2051 98.325 11.5605 98.743 12.2715V11.6445H99.8035V17ZM98.743 14.5977V13.7422C98.6688 13.3555 98.491 13.0215 98.2098 12.7402C97.8152 12.3418 97.3563 12.1426 96.8328 12.1426C96.3055 12.1426 95.8484 12.3379 95.4617 12.7285C95.075 13.1191 94.8816 13.6016 94.8816 14.1758C94.8816 14.7461 95.075 15.2246 95.4617 15.6113C95.8484 15.998 96.3055 16.1914 96.8328 16.1914C97.3563 16.1914 97.8152 15.9941 98.2098 15.5996C98.491 15.3184 98.6688 14.9844 98.743 14.5977ZM103.166 13.0039V17H102.105V11.6445H103.166C103.345 11.4492 103.716 11.3516 104.279 11.3516C104.955 11.3516 105.5 11.5586 105.914 11.9727C106.328 12.3867 106.539 12.8926 106.546 13.4902V17H105.492V13.5371C105.492 13.1738 105.369 12.873 105.123 12.6348C104.877 12.3926 104.595 12.2715 104.279 12.2715C103.966 12.2715 103.691 12.3848 103.453 12.6113C103.316 12.748 103.22 12.8789 103.166 13.0039ZM113.571 13.7246C113.493 13.3457 113.309 13.0098 113.02 12.7168C112.641 12.334 112.19 12.1426 111.666 12.1426C111.139 12.1426 110.682 12.3379 110.295 12.7285C109.909 13.1191 109.715 13.6016 109.715 14.1758C109.715 14.7461 109.909 15.2266 110.295 15.6172C110.682 16.0039 111.139 16.1973 111.666 16.1973C112.19 16.1973 112.649 16 113.043 15.6055C113.317 15.332 113.493 15.0078 113.571 14.6328V13.7246ZM113.5 16.0918C113.133 16.791 112.522 17.1406 111.666 17.1406C110.819 17.1406 110.1 16.8477 109.51 16.2617C108.924 15.6719 108.631 14.9766 108.631 14.1758C108.631 13.3672 108.924 12.6719 109.51 12.0898C110.1 11.5039 110.819 11.2109 111.666 11.2109C112.518 11.2109 113.155 11.5645 113.577 12.2715V11.6445H114.637V15.6758C114.637 16.4609 114.354 17.1348 113.787 17.6973C113.194 18.2949 112.471 18.5938 111.62 18.5938C110.768 18.5938 110.051 18.3027 109.469 17.7207C109.336 17.584 109.168 17.3809 108.965 17.1113L109.979 16.7422C110.116 16.9141 110.211 17.0234 110.266 17.0703C110.645 17.4531 111.096 17.6445 111.62 17.6445C112.725 17.6445 113.352 17.127 113.5 16.0918ZM117.841 13.2324H121.351C121.101 12.5059 120.519 12.1426 119.605 12.1426C118.687 12.1426 118.099 12.5059 117.841 13.2324ZM117.654 14.1582V14.1758C117.654 14.7461 117.847 15.2246 118.234 15.6113C118.62 15.998 119.077 16.1914 119.605 16.1914C120.128 16.1914 120.587 15.9941 120.982 15.5996C121.036 15.5449 121.142 15.4219 121.298 15.2305L122.294 15.582C122.146 15.832 121.974 16.0527 121.779 16.2441C121.185 16.8418 120.46 17.1406 119.605 17.1406C118.757 17.1406 118.038 16.8477 117.448 16.2617C116.863 15.6719 116.57 14.9766 116.57 14.1758C116.57 13.3672 116.863 12.6699 117.448 12.084C118.038 11.498 118.757 11.2051 119.605 11.2051C120.46 11.2051 121.185 11.502 121.779 12.0957C122.29 12.6113 122.546 13.2988 122.546 14.1582H117.654ZM129.839 8.56836V17H128.778V8.56836H129.839ZM133.429 11.6445V17H132.375V11.6445H133.429ZM132.908 9.91016C133.123 9.91016 133.3 9.98047 133.441 10.1211C133.586 10.2578 133.658 10.4121 133.658 10.584C133.658 10.7637 133.586 10.9238 133.441 11.0645C133.3 11.2012 133.123 11.2695 132.908 11.2695C132.685 11.2695 132.504 11.2012 132.363 11.0645C132.222 10.9238 132.152 10.7637 132.152 10.584C132.152 10.4121 132.222 10.2578 132.363 10.1211C132.504 9.98047 132.685 9.91016 132.908 9.91016ZM136.967 13.0039V17H135.907V11.6445H136.967C137.147 11.4492 137.518 11.3516 138.08 11.3516C138.756 11.3516 139.301 11.5586 139.715 11.9727C140.129 12.3867 140.34 12.8926 140.348 13.4902V17H139.293V13.5371C139.293 13.1738 139.17 12.873 138.924 12.6348C138.678 12.3926 138.397 12.2715 138.08 12.2715C137.768 12.2715 137.493 12.3848 137.254 12.6113C137.118 12.748 137.022 12.8789 136.967 13.0039ZM145.937 11.6445L144.53 13.3906L146.57 17H145.357L143.845 14.2344L143.769 14.334V17H142.708V9.56445H143.769V12.7344L144.654 11.6445H145.937Z" fill="#E2B33D"/>
<defs>
<filter id="filter0_d" x="0" y="0" width="251" height="31" filterUnits="userSpaceOnUse" color-interpolation-filters="sRGB">
<feFlood flood-opacity="0" result="BackgroundImageFix"/>
<feColorMatrix in="SourceAlpha" type="matrix" values="0 0 0 0 0 0 0 0 0 0 0 0 0 0 0 0 0 0 127 0"/>
<feOffset dx="1" dy="3"/>
<feGaussianBlur stdDeviation="3"/>
<feColorMatrix type="matrix" values="0 0 0 0 0 0 0 0 0 0 0 0 0 0 0 0 0 0 0.45 0"/>
<feBlend mode="normal" in2="BackgroundImageFix" result="effect1_dropShadow"/>
<feBlend mode="normal" in="SourceGraphic" in2="effect1_dropShadow" result="shape"/>
</filter>
<linearGradient id="paint0_linear" x1="5" y1="3.73592" x2="38.5043" y2="96.3448" gradientUnits="userSpaceOnUse">
<stop stop-color="#632FDE"/>
<stop offset="0.0465075" stop-color="#8451B4"/>
<stop offset="0.144441" stop-color="#A87687"/>
<stop offset="0.462233" stop-color="#E2B33D"/>
<stop offset="0.784198" stop-color="#DF9C3D"/>
<stop offset="0.870785" stop-color="#DB7E3D"/>
<stop offset="1" stop-color="#CF263C"/>
</linearGradient>
</defs>
</svg>
