<svg width="96" height="31" viewBox="0 0 96 31" fill="none" xmlns="http://www.w3.org/2000/svg">
<g filter="url(#filter0_d)">
<rect x="5.5" y="3.5" width="83" height="20" rx="1.5" stroke="url(#paint0_linear)"/>
</g>
<path d="M35.176 17.12C34.4 17.12 33.692 16.944 33.052 16.592C32.42 16.24 31.984 15.78 31.744 15.212C31.704 15.116 31.684 15.036 31.684 14.972C31.684 14.852 31.728 14.748 31.816 14.66C31.904 14.564 32.024 14.5 32.176 14.468C32.2 14.46 32.24 14.456 32.296 14.456C32.424 14.456 32.544 14.496 32.656 14.576C32.776 14.648 32.864 14.748 32.92 14.876C33.064 15.188 33.348 15.452 33.772 15.668C34.196 15.884 34.664 15.992 35.176 15.992C35.776 15.992 36.284 15.856 36.7 15.584C37.116 15.304 37.324 14.924 37.324 14.444C37.324 13.988 37.148 13.6 36.796 13.28C36.444 12.952 35.908 12.752 35.188 12.68C34.196 12.584 33.416 12.296 32.848 11.816C32.28 11.328 31.996 10.72 31.996 9.992C31.996 9.48 32.14 9.04 32.428 8.672C32.724 8.296 33.124 8.012 33.628 7.82C34.14 7.62 34.712 7.52 35.344 7.52C36.032 7.52 36.612 7.66 37.084 7.94C37.556 8.22 37.956 8.62 38.284 9.14C38.38 9.292 38.428 9.436 38.428 9.572C38.428 9.748 38.348 9.892 38.188 10.004C38.1 10.06 37.996 10.088 37.876 10.088C37.756 10.088 37.644 10.06 37.54 10.004C37.436 9.94 37.356 9.856 37.3 9.752C37.084 9.392 36.812 9.12 36.484 8.936C36.164 8.744 35.756 8.648 35.26 8.648C34.652 8.648 34.16 8.768 33.784 9.008C33.408 9.24 33.22 9.58 33.22 10.028C33.22 10.444 33.388 10.792 33.724 11.072C34.06 11.352 34.66 11.536 35.524 11.624C36.484 11.72 37.228 12.012 37.756 12.5C38.284 12.98 38.548 13.616 38.548 14.408C38.548 14.984 38.392 15.48 38.08 15.896C37.768 16.304 37.352 16.612 36.832 16.82C36.32 17.02 35.768 17.12 35.176 17.12ZM44.5177 10.388C45.1337 10.388 45.6897 10.536 46.1857 10.832C46.6897 11.12 47.0857 11.52 47.3737 12.032C47.6697 12.536 47.8177 13.1 47.8177 13.724V16.4C47.8177 16.576 47.7577 16.724 47.6377 16.844C47.5257 16.956 47.3817 17.012 47.2057 17.012C47.0297 17.012 46.8817 16.956 46.7617 16.844C46.6497 16.724 46.5937 16.576 46.5937 16.4V15.956C46.3137 16.3 45.9737 16.568 45.5737 16.76C45.1737 16.952 44.7417 17.048 44.2777 17.048C43.7017 17.048 43.1777 16.904 42.7057 16.616C42.2417 16.328 41.8737 15.932 41.6017 15.428C41.3377 14.916 41.2057 14.348 41.2057 13.724C41.2057 13.1 41.3497 12.536 41.6377 12.032C41.9257 11.52 42.3217 11.12 42.8257 10.832C43.3377 10.536 43.9017 10.388 44.5177 10.388ZM44.5177 15.968C44.9177 15.968 45.2777 15.872 45.5977 15.68C45.9257 15.48 46.1817 15.212 46.3657 14.876C46.5497 14.532 46.6417 14.148 46.6417 13.724C46.6417 13.3 46.5497 12.916 46.3657 12.572C46.1817 12.228 45.9257 11.96 45.5977 11.768C45.2777 11.568 44.9177 11.468 44.5177 11.468C44.1177 11.468 43.7537 11.568 43.4257 11.768C43.1057 11.96 42.8497 12.228 42.6577 12.572C42.4737 12.916 42.3817 13.3 42.3817 13.724C42.3817 14.148 42.4737 14.532 42.6577 14.876C42.8497 15.212 43.1057 15.48 43.4257 15.68C43.7537 15.872 44.1177 15.968 44.5177 15.968ZM55.5281 10.52C55.6321 10.568 55.7121 10.636 55.7681 10.724C55.8241 10.804 55.8521 10.896 55.8521 11C55.8521 11.072 55.8321 11.148 55.7921 11.228L53.2481 16.592C53.1281 16.856 52.9441 16.988 52.6961 16.988C52.5601 16.988 52.4481 16.96 52.3601 16.904C52.2721 16.84 52.1921 16.736 52.1201 16.592L49.5761 11.228C49.5441 11.164 49.5281 11.092 49.5281 11.012C49.5281 10.796 49.6401 10.632 49.8641 10.52C49.9361 10.48 50.0201 10.46 50.1161 10.46C50.2121 10.46 50.3041 10.488 50.3921 10.544C50.4801 10.592 50.5481 10.664 50.5961 10.76L52.6841 15.26L54.7481 10.76C54.7961 10.664 54.8641 10.592 54.9521 10.544C55.0481 10.488 55.1481 10.46 55.2521 10.46C55.3561 10.46 55.4481 10.48 55.5281 10.52ZM63.9079 13.616C63.9079 13.768 63.8559 13.896 63.7519 14C63.6479 14.096 63.5159 14.144 63.3559 14.144H58.7959C58.8839 14.704 59.1359 15.156 59.5519 15.5C59.9759 15.844 60.4919 16.016 61.0999 16.016C61.3399 16.016 61.5879 15.972 61.8439 15.884C62.1079 15.796 62.3239 15.688 62.4919 15.56C62.6039 15.472 62.7359 15.428 62.8879 15.428C63.0399 15.428 63.1599 15.468 63.2479 15.548C63.3919 15.668 63.4639 15.804 63.4639 15.956C63.4639 16.1 63.3999 16.22 63.2719 16.316C62.9999 16.532 62.6599 16.708 62.2519 16.844C61.8519 16.98 61.4679 17.048 61.0999 17.048C60.4439 17.048 59.8559 16.908 59.3359 16.628C58.8159 16.34 58.4079 15.944 58.1119 15.44C57.8239 14.936 57.6799 14.364 57.6799 13.724C57.6799 13.084 57.8159 12.512 58.0879 12.008C58.3679 11.496 58.7519 11.1 59.2399 10.82C59.7359 10.532 60.2959 10.388 60.9199 10.388C61.5359 10.388 62.0679 10.524 62.5159 10.796C62.9639 11.068 63.3079 11.448 63.5479 11.936C63.7879 12.424 63.9079 12.984 63.9079 13.616ZM60.9199 11.42C60.3359 11.42 59.8599 11.58 59.4919 11.9C59.1319 12.22 58.9039 12.648 58.8079 13.184H62.8039C62.7319 12.648 62.5319 12.22 62.2039 11.9C61.8759 11.58 61.4479 11.42 60.9199 11.42Z" fill="#E2B33D"/>
<defs>
<filter id="filter0_d" x="0" y="0" width="96" height="31" filterUnits="userSpaceOnUse" color-interpolation-filters="sRGB">
<feFlood flood-opacity="0" result="BackgroundImageFix"/>
<feColorMatrix in="SourceAlpha" type="matrix" values="0 0 0 0 0 0 0 0 0 0 0 0 0 0 0 0 0 0 127 0"/>
<feOffset dx="1" dy="3"/>
<feGaussianBlur stdDeviation="3"/>
<feColorMatrix type="matrix" values="0 0 0 0 0 0 0 0 0 0 0 0 0 0 0 0 0 0 0.45 0"/>
<feBlend mode="normal" in2="BackgroundImageFix" result="effect1_dropShadow"/>
<feBlend mode="normal" in="SourceGraphic" in2="effect1_dropShadow" result="shape"/>
</filter>
<linearGradient id="paint0_linear" x1="5" y1="3.73592" x2="57.3431" y2="54.5862" gradientUnits="userSpaceOnUse">
<stop stop-color="#632FDE"/>
<stop offset="0.0465075" stop-color="#8451B4"/>
<stop offset="0.144441" stop-color="#A87687"/>
<stop offset="0.462233" stop-color="#E2B33D"/>
<stop offset="0.784198" stop-color="#DF9C3D"/>
<stop offset="0.870785" stop-color="#DB7E3D"/>
<stop offset="1" stop-color="#CF263C"/>
</linearGradient>
</defs>
</svg>
