<svg width="16" height="16" viewBox="0 0 16 16" fill="none" xmlns="http://www.w3.org/2000/svg">
<g clip-path="url(#clip0)">
<path d="M7.99944 15.6182C3.79855 15.6182 0.380859 12.2004 0.380859 7.99929C0.380859 3.79822 3.79855 0.380371 7.99944 0.380371C12.2007 0.380371 15.6187 3.79822 15.6187 7.99929C15.6187 12.2004 12.2007 15.6182 7.99944 15.6182ZM7.99944 1.1428C4.21856 1.1428 1.14262 4.21859 1.14262 7.99929C1.14262 11.7804 4.21856 14.8565 7.99944 14.8565C11.7807 14.8565 14.857 11.7804 14.857 7.99929C14.857 4.21859 11.7807 1.1428 7.99944 1.1428Z" fill="#8F8F8F"/>
<path d="M1.51772 4.78063C2.70443 2.40058 5.1642 0.761938 7.99954 0.761938C10.8351 0.761938 13.2951 2.40049 14.482 4.78049C13.2951 2.4003 10.8351 0.76138 7.99954 0.76138C5.16425 0.76138 2.70443 2.40039 1.51772 4.78063ZM7.99954 15.9992C3.58859 15.9992 0 12.4105 0 7.99936C0 3.58821 3.58859 -0.000488281 7.99954 -0.000488281C12.4109 -0.000488281 15.9998 3.58821 15.9998 7.99936C15.9998 12.4105 12.4109 15.9992 7.99954 15.9992ZM7.99954 1.52381C4.42876 1.52381 1.52367 4.42876 1.52367 7.99936C1.52367 11.5704 4.42876 14.4756 7.99954 14.4756C11.5707 14.4756 14.4761 11.5704 14.4761 7.99936C14.4761 4.42876 11.5707 1.52381 7.99954 1.52381Z" fill="#8F8F8F"/>
<path d="M7.99993 13.7137C11.1558 13.7137 13.7142 11.1554 13.7142 7.99966C13.7142 4.8439 11.1558 2.28564 7.99993 2.28564C4.84402 2.28564 2.28564 4.8439 2.28564 7.99966C2.28564 11.1554 4.84402 13.7137 7.99993 13.7137Z" fill="#8F8F8F"/>
</g>
<defs>
<clipPath id="clip0">
<rect width="16" height="16" fill="white"/>
</clipPath>
</defs>
</svg>
