<svg width="20" height="18" viewBox="0 0 20 18" fill="none" xmlns="http://www.w3.org/2000/svg">
<path d="M1.27287 14.0514L1.17556 4.27573C1.17209 3.92691 1.36138 3.61712 1.69489 3.42578C2.02839 3.23444 2.42784 3.20648 2.7908 3.34905L14.9276 8.11658C15.5471 8.35993 15.6001 8.86995 15.6016 9.02047C15.6031 9.17099 15.5603 9.68197 14.9457 9.9376L2.90623 14.9458C2.54618 15.0955 2.14626 15.0755 1.80901 14.8909C1.47176 14.7062 1.27634 14.4003 1.27287 14.0514Z" fill="#8F8F8F"/>
<path d="M14.4571 9.0319L14.4571 9.0319L2.32032 4.26436C2.32032 4.26436 2.32032 4.26437 2.32032 4.26437L2.41762 14.0401C2.41762 14.0401 2.41762 14.0401 2.41762 14.0401C2.41762 14.0401 2.41763 14.0401 2.41763 14.0401L14.4571 9.0319C14.4571 9.0319 14.4571 9.0319 14.4571 9.0319ZM16.7464 9.00911C16.7537 9.74037 16.3176 10.476 15.4346 10.8434L3.39509 15.8515C1.88427 16.48 0.14293 15.5265 0.128361 14.0629L0.0310551 4.28715C0.0164859 2.82347 1.73851 1.83553 3.26153 2.43381L15.3983 7.20134C16.2885 7.55102 16.7391 8.27786 16.7464 9.00911Z" fill="#8F8F8F"/>
</svg>
