<svg width="17" height="23" viewBox="0 0 17 23" fill="none" xmlns="http://www.w3.org/2000/svg">
<g clip-path="url(#clip0)">
<path d="M16.1997 9.86627C16.0585 9.75308 15.9027 9.65252 15.7351 9.56631L4.73986 0.652652C4.22316 0.23996 3.52617 0.0096112 2.80084 0.0118261C2.07552 0.0140411 1.38069 0.24864 0.867838 0.664476C0.354986 1.08031 0.0657071 1.64366 0.0630698 2.2317C0.0604324 2.81974 0.344651 3.38478 0.853759 3.80363L10.323 11.4805L0.804913 19.1974C0.289583 19.6152 4.75705e-05 20.1818 5.86133e-09 20.7726C-4.75588e-05 21.3634 0.289397 21.93 0.804659 22.3478C1.31992 22.7656 2.01879 23.0003 2.74753 23.0004C3.47627 23.0004 4.17518 22.7657 4.69051 22.348L15.7351 13.3931C16.0816 13.2048 16.373 12.9572 16.5887 12.6677C16.8044 12.3782 16.9392 12.0539 16.9835 11.7176C17.0278 11.3814 16.9805 11.0413 16.8451 10.7214C16.7097 10.4015 16.4893 10.1096 16.1997 9.86627Z" fill="#E2B33D"/>
</g>
<defs>
<clipPath id="clip0">
<rect width="17" height="23" fill="white"/>
</clipPath>
</defs>
</svg>
