<svg width="20" height="20" viewBox="0 0 20 20" fill="none" xmlns="http://www.w3.org/2000/svg">
<g clip-path="url(#clip0)">
<path d="M9.99955 19.5231C4.74843 19.5231 0.476318 15.2507 0.476318 9.99942C0.476318 4.74809 4.74843 0.475769 9.99955 0.475769C15.2511 0.475769 19.5236 4.74809 19.5236 9.99942C19.5236 15.2507 15.2511 19.5231 9.99955 19.5231ZM9.99955 1.4288C5.27345 1.4288 1.42852 5.27354 1.42852 9.99942C1.42852 14.7258 5.27345 18.5709 9.99955 18.5709C14.7261 18.5709 18.5714 14.7258 18.5714 9.99942C18.5714 5.27354 14.7261 1.4288 9.99955 1.4288Z" fill="white"/>
<path d="M1.89739 5.97597C3.38078 3.00091 6.4555 0.952606 9.99966 0.952606C13.5442 0.952606 16.6191 3.00079 18.1027 5.97579C16.6191 3.00056 13.5441 0.951908 9.99966 0.951908C6.45556 0.951908 3.38078 3.00067 1.89739 5.97597ZM9.99966 19.9992C4.48598 19.9992 0.000244141 15.5133 0.000244141 9.99939C0.000244141 4.48544 4.48598 -0.000427246 9.99966 -0.000427246C15.5139 -0.000427246 20 4.48544 20 9.99939C20 15.5133 15.5139 19.9992 9.99966 19.9992ZM9.99966 1.90494C5.53619 1.90494 1.90483 5.53613 1.90483 9.99939C1.90483 14.4632 5.53619 18.0947 9.99966 18.0947C14.4637 18.0947 18.0954 14.4632 18.0954 9.99939C18.0954 5.53613 14.4637 1.90494 9.99966 1.90494Z" fill="white"/>
<path d="M10 17.142C13.9449 17.142 17.1429 13.9442 17.1429 9.99951C17.1429 6.05481 13.9449 2.85699 10 2.85699C6.05514 2.85699 2.85718 6.05481 2.85718 9.99951C2.85718 13.9442 6.05514 17.142 10 17.142Z" fill="white"/>
</g>
<defs>
<clipPath id="clip0">
<rect width="20" height="20" fill="white"/>
</clipPath>
</defs>
</svg>
