<svg width="19" height="18" viewBox="0 0 19 18" fill="none" xmlns="http://www.w3.org/2000/svg">
<path d="M3.71178 1.03847L15.288 1.03847C15.701 1.03847 16.0656 1.21298 16.2882 1.51725C16.5109 1.82152 16.5393 2.18413 16.3662 2.51211L10.5781 13.479C10.2826 14.0388 9.67812 14.0823 9.49987 14.0823C9.32163 14.0823 8.71711 14.0388 8.42167 13.479L2.63358 2.51211C2.46048 2.18413 2.48888 1.82152 2.7115 1.51725C2.93413 1.21298 3.29872 1.03847 3.71178 1.03847Z" fill="#E2B33D"/>
<path d="M9.49988 13.0438L9.49988 13.0438L15.288 2.07692C15.288 2.07692 15.288 2.07692 15.288 2.07692L3.71179 2.07692C3.71179 2.07692 3.71179 2.07692 3.71179 2.07692C3.71179 2.07692 3.71179 2.07693 3.71179 2.07693L9.49988 13.0438C9.49988 13.0438 9.49988 13.0438 9.49988 13.0438ZM9.49988 15.1208C8.63395 15.1208 7.76801 14.7186 7.34348 13.9142L1.55539 2.94728C0.829048 1.57106 1.97853 0 3.71179 0L15.288 0C17.0212 0 18.1707 1.57107 17.4444 2.94728L11.6563 13.9142C11.2318 14.7186 10.3658 15.1208 9.49988 15.1208Z" fill="#E2B33D"/>
</svg>
