<svg width="20" height="20" viewBox="0 0 20 20" fill="none" xmlns="http://www.w3.org/2000/svg">
<path d="M10 0C4.48611 0 0 4.48611 0 10C0 15.5139 4.48611 20 10 20C15.5139 20 20 15.5139 20 10C20 4.48611 15.5139 0 10 0ZM10 18.2609C5.44521 18.2609 1.73911 14.5548 1.73911 10C1.73911 5.44521 5.44521 1.73915 10 1.73915C14.5548 1.73915 18.2609 5.44521 18.2609 10C18.2609 14.5548 14.5548 18.2609 10 18.2609Z" fill="url(#paint0_linear)"/>
<path d="M14.0973 5.51137C13.9787 5.3919 13.7995 5.35754 13.6465 5.42465L7.91967 7.8791C7.82315 7.92002 7.74622 7.99772 7.70449 8.09429L5.25014 13.8213C5.18387 13.9751 5.21823 14.1535 5.33684 14.2721C5.41538 14.349 5.52012 14.3907 5.62646 14.3907C5.68045 14.3907 5.73526 14.3793 5.78764 14.358L11.5145 11.9036C11.611 11.8619 11.6879 11.785 11.7296 11.6884L14.184 5.96137C14.2495 5.80755 14.2151 5.62918 14.0973 5.51137ZM9.71707 10.7091C9.26627 10.7091 8.89896 10.3417 8.89896 9.89094C8.89896 9.44013 9.26631 9.07281 9.71707 9.07281C10.1679 9.07281 10.5352 9.44017 10.5352 9.89094C10.5352 10.3417 10.1679 10.7091 9.71707 10.7091Z" fill="white"/>
<defs>
<linearGradient id="paint0_linear" x1="10" y1="0" x2="10" y2="20" gradientUnits="userSpaceOnUse">
<stop offset="1" stop-color="white"/>
</linearGradient>
</defs>
</svg>
