<svg width="375" height="124" viewBox="0 0 375 124" fill="none" xmlns="http://www.w3.org/2000/svg">
<rect width="375" height="124" fill="url(#paint0_linear)"/>
<path d="M153.528 66.36C151.2 66.36 149.076 65.832 147.156 64.776C145.26 63.72 143.952 62.34 143.232 60.636C143.112 60.348 143.052 60.108 143.052 59.916C143.052 59.556 143.184 59.244 143.448 58.98C143.712 58.692 144.072 58.5 144.528 58.404C144.6 58.38 144.72 58.368 144.888 58.368C145.272 58.368 145.632 58.488 145.968 58.728C146.328 58.944 146.592 59.244 146.76 59.628C147.192 60.564 148.044 61.356 149.316 62.004C150.588 62.652 151.992 62.976 153.528 62.976C155.328 62.976 156.852 62.568 158.1 61.752C159.348 60.912 159.972 59.772 159.972 58.332C159.972 56.964 159.444 55.8 158.388 54.84C157.332 53.856 155.724 53.256 153.564 53.04C150.588 52.752 148.248 51.888 146.544 50.448C144.84 48.984 143.988 47.16 143.988 44.976C143.988 43.44 144.42 42.12 145.284 41.016C146.172 39.888 147.372 39.036 148.884 38.46C150.42 37.86 152.136 37.56 154.032 37.56C156.096 37.56 157.836 37.98 159.252 38.82C160.668 39.66 161.868 40.86 162.852 42.42C163.14 42.876 163.284 43.308 163.284 43.716C163.284 44.244 163.044 44.676 162.564 45.012C162.3 45.18 161.988 45.264 161.628 45.264C161.268 45.264 160.932 45.18 160.62 45.012C160.308 44.82 160.068 44.568 159.9 44.256C159.252 43.176 158.436 42.36 157.452 41.808C156.492 41.232 155.268 40.944 153.78 40.944C151.956 40.944 150.48 41.304 149.352 42.024C148.224 42.72 147.66 43.74 147.66 45.084C147.66 46.332 148.164 47.376 149.172 48.216C150.18 49.056 151.98 49.608 154.572 49.872C157.452 50.16 159.684 51.036 161.268 52.5C162.852 53.94 163.644 55.848 163.644 58.224C163.644 59.952 163.176 61.44 162.24 62.688C161.304 63.912 160.056 64.836 158.496 65.46C156.96 66.06 155.304 66.36 153.528 66.36ZM182.417 46.128C184.073 46.128 185.561 46.488 186.881 47.208C188.201 47.928 189.233 48.984 189.977 50.376C190.721 51.744 191.093 53.4 191.093 55.344V64.2C191.093 64.728 190.913 65.172 190.553 65.532C190.217 65.868 189.785 66.036 189.257 66.036C188.729 66.036 188.285 65.868 187.925 65.532C187.589 65.172 187.421 64.728 187.421 64.2V55.344C187.421 53.4 186.893 51.936 185.837 50.952C184.805 49.944 183.425 49.44 181.697 49.44C180.689 49.44 179.765 49.644 178.925 50.052C178.109 50.46 177.461 51.012 176.981 51.708C176.525 52.404 176.297 53.184 176.297 54.048V64.2C176.297 64.728 176.129 65.172 175.793 65.532C175.457 65.868 175.013 66.036 174.461 66.036C173.933 66.036 173.489 65.868 173.129 65.532C172.793 65.172 172.625 64.728 172.625 64.2V48.144C172.625 47.592 172.793 47.148 173.129 46.812C173.489 46.476 173.933 46.308 174.461 46.308C175.013 46.308 175.457 46.476 175.793 46.812C176.129 47.148 176.297 47.592 176.297 48.144V48.54C177.065 47.772 177.977 47.184 179.033 46.776C180.089 46.344 181.217 46.128 182.417 46.128ZM202.96 66C202.432 66 201.988 65.832 201.628 65.496C201.292 65.136 201.124 64.692 201.124 64.164V48.144C201.124 47.592 201.292 47.148 201.628 46.812C201.988 46.476 202.432 46.308 202.96 46.308C203.512 46.308 203.956 46.476 204.292 46.812C204.628 47.148 204.796 47.592 204.796 48.144V64.164C204.796 64.692 204.628 65.136 204.292 65.496C203.956 65.832 203.512 66 202.96 66ZM202.96 43.104C202.312 43.104 201.748 42.876 201.268 42.42C200.812 41.94 200.584 41.376 200.584 40.728C200.584 40.08 200.812 39.528 201.268 39.072C201.748 38.592 202.312 38.352 202.96 38.352C203.608 38.352 204.16 38.592 204.616 39.072C205.096 39.528 205.336 40.08 205.336 40.728C205.336 41.376 205.096 41.94 204.616 42.42C204.16 42.876 203.608 43.104 202.96 43.104ZM225.128 46.164C226.976 46.164 228.656 46.608 230.168 47.496C231.704 48.36 232.904 49.56 233.768 51.096C234.632 52.608 235.064 54.3 235.064 56.172C235.064 58.044 234.656 59.748 233.84 61.284C233.048 62.796 231.944 63.984 230.528 64.848C229.136 65.712 227.576 66.144 225.848 66.144C224.456 66.144 223.16 65.856 221.96 65.28C220.76 64.704 219.74 63.9 218.9 62.868V72.588C218.9 73.14 218.732 73.584 218.396 73.92C218.06 74.256 217.616 74.424 217.064 74.424C216.536 74.424 216.092 74.256 215.732 73.92C215.396 73.584 215.228 73.14 215.228 72.588V56.172C215.228 54.3 215.66 52.608 216.524 51.096C217.412 49.56 218.6 48.36 220.088 47.496C221.6 46.608 223.28 46.164 225.128 46.164ZM225.128 62.904C226.328 62.904 227.408 62.616 228.368 62.04C229.352 61.44 230.12 60.636 230.672 59.628C231.248 58.596 231.536 57.444 231.536 56.172C231.536 54.9 231.248 53.748 230.672 52.716C230.12 51.684 229.352 50.88 228.368 50.304C227.408 49.704 226.328 49.404 225.128 49.404C223.928 49.404 222.836 49.704 221.852 50.304C220.892 50.88 220.136 51.684 219.584 52.716C219.032 53.748 218.756 54.9 218.756 56.172C218.756 57.444 219.032 58.596 219.584 59.628C220.136 60.636 220.892 61.44 221.852 62.04C222.836 62.616 223.928 62.904 225.128 62.904ZM254.04 46.164C255.888 46.164 257.568 46.608 259.08 47.496C260.616 48.36 261.816 49.56 262.68 51.096C263.544 52.608 263.976 54.3 263.976 56.172C263.976 58.044 263.568 59.748 262.752 61.284C261.96 62.796 260.856 63.984 259.44 64.848C258.048 65.712 256.488 66.144 254.76 66.144C253.368 66.144 252.072 65.856 250.872 65.28C249.672 64.704 248.652 63.9 247.812 62.868V72.588C247.812 73.14 247.644 73.584 247.308 73.92C246.972 74.256 246.528 74.424 245.976 74.424C245.448 74.424 245.004 74.256 244.644 73.92C244.308 73.584 244.14 73.14 244.14 72.588V56.172C244.14 54.3 244.572 52.608 245.436 51.096C246.324 49.56 247.512 48.36 249 47.496C250.512 46.608 252.192 46.164 254.04 46.164ZM254.04 62.904C255.24 62.904 256.32 62.616 257.28 62.04C258.264 61.44 259.032 60.636 259.584 59.628C260.16 58.596 260.448 57.444 260.448 56.172C260.448 54.9 260.16 53.748 259.584 52.716C259.032 51.684 258.264 50.88 257.28 50.304C256.32 49.704 255.24 49.404 254.04 49.404C252.84 49.404 251.748 49.704 250.764 50.304C249.804 50.88 249.048 51.684 248.496 52.716C247.944 53.748 247.668 54.9 247.668 56.172C247.668 57.444 247.944 58.596 248.496 59.628C249.048 60.636 249.804 61.44 250.764 62.04C251.748 62.616 252.84 62.904 254.04 62.904ZM290.729 55.848C290.729 56.304 290.573 56.688 290.261 57C289.949 57.288 289.553 57.432 289.073 57.432H275.393C275.657 59.112 276.413 60.468 277.661 61.5C278.933 62.532 280.481 63.048 282.305 63.048C283.025 63.048 283.769 62.916 284.537 62.652C285.329 62.388 285.977 62.064 286.481 61.68C286.817 61.416 287.213 61.284 287.669 61.284C288.125 61.284 288.485 61.404 288.749 61.644C289.181 62.004 289.397 62.412 289.397 62.868C289.397 63.3 289.205 63.66 288.82 63.948C288.005 64.596 286.985 65.124 285.761 65.532C284.561 65.94 283.409 66.144 282.305 66.144C280.337 66.144 278.573 65.724 277.013 64.884C275.453 64.02 274.229 62.832 273.341 61.32C272.477 59.808 272.045 58.092 272.045 56.172C272.045 54.252 272.453 52.536 273.269 51.024C274.109 49.488 275.261 48.3 276.725 47.46C278.213 46.596 279.893 46.164 281.765 46.164C283.613 46.164 285.209 46.572 286.553 47.388C287.897 48.204 288.929 49.344 289.648 50.808C290.369 52.272 290.729 53.952 290.729 55.848ZM281.765 49.26C280.013 49.26 278.585 49.74 277.481 50.7C276.401 51.66 275.717 52.944 275.429 54.552H287.417C287.201 52.944 286.601 51.66 285.617 50.7C284.633 49.74 283.349 49.26 281.765 49.26ZM307.4 62.4C307.832 62.4 308.192 62.568 308.48 62.904C308.792 63.24 308.948 63.672 308.948 64.2C308.948 64.728 308.744 65.16 308.336 65.496C307.952 65.832 307.448 66 306.824 66H306.176C305 66 303.92 65.7 302.936 65.1C301.976 64.476 301.22 63.636 300.668 62.58C300.116 61.524 299.84 60.336 299.84 59.016V50.124H298.184C297.68 50.124 297.272 49.98 296.96 49.692C296.648 49.404 296.492 49.044 296.492 48.612C296.492 48.132 296.648 47.748 296.96 47.46C297.272 47.172 297.68 47.028 298.184 47.028H299.84V41.844C299.84 41.316 300.008 40.884 300.344 40.548C300.68 40.212 301.112 40.044 301.64 40.044C302.168 40.044 302.6 40.212 302.936 40.548C303.272 40.884 303.44 41.316 303.44 41.844V47.028H306.5C307.004 47.028 307.412 47.172 307.724 47.46C308.036 47.748 308.192 48.132 308.192 48.612C308.192 49.044 308.036 49.404 307.724 49.692C307.412 49.98 307.004 50.124 306.5 50.124H303.44V59.016C303.44 59.976 303.704 60.78 304.232 61.428C304.76 62.076 305.408 62.4 306.176 62.4H307.4Z" fill="white"/>
<path d="M179.408 85.833L180.27 86.5986C179.162 87.6058 177.943 88.1094 176.612 88.1094C175.181 88.1094 173.971 87.6172 172.982 86.6328C171.998 85.6439 171.506 84.459 171.506 83.0781C171.506 81.7109 171.998 80.5306 172.982 79.5371C173.971 78.5436 175.181 78.0469 176.612 78.0469C177.943 78.0469 179.162 78.5527 180.27 79.5645L179.408 80.3301C178.506 79.5326 177.574 79.1338 176.612 79.1338C175.564 79.1338 174.657 79.5166 173.892 80.2822C173.131 81.0433 172.75 81.9753 172.75 83.0781C172.75 84.1901 173.131 85.1266 173.892 85.8877C174.657 86.6488 175.564 87.0293 176.612 87.0293C177.574 87.0293 178.506 86.6305 179.408 85.833ZM185.648 82.6816C185.083 82.7682 184.645 82.9938 184.336 83.3584C184.026 83.7184 183.871 84.1719 183.871 84.7188V88H182.633V81.752H183.871V82.6406C184.053 82.153 184.445 81.8135 185.046 81.6221L185.648 82.6816ZM189.242 83.6045H193.337C193.045 82.7568 192.366 82.333 191.3 82.333C190.229 82.333 189.543 82.7568 189.242 83.6045ZM189.024 84.6846V84.7051C189.024 85.3704 189.249 85.9287 189.7 86.3799C190.152 86.8311 190.685 87.0566 191.3 87.0566C191.911 87.0566 192.446 86.8265 192.906 86.3662C192.97 86.3024 193.093 86.1589 193.276 85.9355L194.438 86.3457C194.265 86.6374 194.064 86.8949 193.836 87.1182C193.143 87.8154 192.298 88.1641 191.3 88.1641C190.311 88.1641 189.473 87.8223 188.784 87.1387C188.101 86.4505 187.759 85.6393 187.759 84.7051C187.759 83.7617 188.101 82.9482 188.784 82.2646C189.473 81.5811 190.311 81.2393 191.3 81.2393C192.298 81.2393 193.143 81.5856 193.836 82.2783C194.433 82.8799 194.732 83.682 194.732 84.6846H189.024ZM203.89 88H202.653V86.9062C202.165 87.7448 201.423 88.1641 200.425 88.1641C199.436 88.1641 198.597 87.8223 197.909 87.1387C197.225 86.4505 196.884 85.6393 196.884 84.7051C196.884 83.7617 197.225 82.9482 197.909 82.2646C198.597 81.5811 199.436 81.2393 200.425 81.2393C201.423 81.2393 202.165 81.654 202.653 82.4834V81.752H203.89V88ZM202.653 85.1973V84.1992C202.567 83.748 202.359 83.3584 202.031 83.0303C201.571 82.5654 201.035 82.333 200.425 82.333C199.809 82.333 199.276 82.5609 198.825 83.0166C198.374 83.4723 198.148 84.0352 198.148 84.7051C198.148 85.3704 198.374 85.9287 198.825 86.3799C199.276 86.8311 199.809 87.0566 200.425 87.0566C201.035 87.0566 201.571 86.8265 202.031 86.3662C202.359 86.0381 202.567 85.6484 202.653 85.1973ZM207.28 81.752V79.3252H208.51V81.752H209.672V82.8184H208.51V88H207.28V82.8184H206.118V81.752H207.28ZM213.321 81.752V88H212.091V81.752H213.321ZM212.713 79.7285C212.964 79.7285 213.171 79.8105 213.335 79.9746C213.504 80.1341 213.588 80.3141 213.588 80.5146C213.588 80.7243 213.504 80.9111 213.335 81.0752C213.171 81.2347 212.964 81.3145 212.713 81.3145C212.453 81.3145 212.241 81.2347 212.077 81.0752C211.913 80.9111 211.831 80.7243 211.831 80.5146C211.831 80.3141 211.913 80.1341 212.077 79.9746C212.241 79.8105 212.453 79.7285 212.713 79.7285ZM221.865 81.752L219.076 88H218.296L215.535 81.752H216.895L218.686 85.915L220.504 81.752H221.865ZM225.104 83.6045H229.198C228.907 82.7568 228.228 82.333 227.161 82.333C226.09 82.333 225.404 82.7568 225.104 83.6045ZM224.885 84.6846V84.7051C224.885 85.3704 225.111 85.9287 225.562 86.3799C226.013 86.8311 226.546 87.0566 227.161 87.0566C227.772 87.0566 228.307 86.8265 228.768 86.3662C228.832 86.3024 228.955 86.1589 229.137 85.9355L230.299 86.3457C230.126 86.6374 229.925 86.8949 229.697 87.1182C229.005 87.8154 228.159 88.1641 227.161 88.1641C226.172 88.1641 225.334 87.8223 224.646 87.1387C223.962 86.4505 223.62 85.6393 223.62 84.7051C223.62 83.7617 223.962 82.9482 224.646 82.2646C225.334 81.5811 226.172 81.2393 227.161 81.2393C228.159 81.2393 229.005 81.5856 229.697 82.2783C230.294 82.8799 230.593 83.682 230.593 84.6846H224.885ZM245.52 85.833L246.381 86.5986C245.274 87.6058 244.055 88.1094 242.724 88.1094C241.293 88.1094 240.083 87.6172 239.094 86.6328C238.11 85.6439 237.618 84.459 237.618 83.0781C237.618 81.7109 238.11 80.5306 239.094 79.5371C240.083 78.5436 241.293 78.0469 242.724 78.0469C244.055 78.0469 245.274 78.5527 246.381 79.5645L245.52 80.3301C244.618 79.5326 243.686 79.1338 242.724 79.1338C241.676 79.1338 240.769 79.5166 240.003 80.2822C239.242 81.0433 238.862 81.9753 238.862 83.0781C238.862 84.1901 239.242 85.1266 240.003 85.8877C240.769 86.6488 241.676 87.0293 242.724 87.0293C243.686 87.0293 244.618 86.6305 245.52 85.833ZM252.252 81.2393C253.25 81.2393 254.089 81.5811 254.768 82.2646C255.447 82.9482 255.786 83.7617 255.786 84.7051C255.786 85.6393 255.447 86.4505 254.768 87.1387C254.089 87.8223 253.25 88.1641 252.252 88.1641C251.263 88.1641 250.424 87.8223 249.736 87.1387C249.053 86.4505 248.711 85.6393 248.711 84.7051C248.711 83.7617 249.053 82.9482 249.736 82.2646C250.424 81.5811 251.263 81.2393 252.252 81.2393ZM252.252 82.333C251.637 82.333 251.104 82.5609 250.652 83.0166C250.201 83.4723 249.976 84.0352 249.976 84.7051C249.976 85.3704 250.201 85.9287 250.652 86.3799C251.104 86.8311 251.637 87.0566 252.252 87.0566C252.863 87.0566 253.394 86.8311 253.845 86.3799C254.3 85.9287 254.528 85.3704 254.528 84.7051C254.528 84.0352 254.3 83.4723 253.845 83.0166C253.394 82.5609 252.863 82.333 252.252 82.333ZM259.599 82.8525V88H258.362V81.752H259.134C259.472 81.5286 259.891 81.417 260.392 81.417C260.976 81.417 261.456 81.5628 261.835 81.8545C262.204 81.5628 262.68 81.417 263.263 81.417C263.847 81.417 264.339 81.6175 264.74 82.0186C265.1 82.3877 265.289 82.8206 265.307 83.3174V88H264.07V83.0508C264.015 82.6725 263.746 82.4834 263.263 82.4834C262.862 82.4834 262.587 82.6611 262.436 83.0166V88H261.199V83.0508H261.192C261.142 82.6725 260.875 82.4834 260.392 82.4834C260.055 82.4834 259.791 82.6064 259.599 82.8525ZM269.298 82.8525V88H268.061V81.752H268.833C269.17 81.5286 269.59 81.417 270.091 81.417C270.674 81.417 271.155 81.5628 271.533 81.8545C271.903 81.5628 272.379 81.417 272.962 81.417C273.545 81.417 274.038 81.6175 274.439 82.0186C274.799 82.3877 274.988 82.8206 275.006 83.3174V88H273.769V83.0508C273.714 82.6725 273.445 82.4834 272.962 82.4834C272.561 82.4834 272.285 82.6611 272.135 83.0166V88H270.898V83.0508H270.891C270.841 82.6725 270.574 82.4834 270.091 82.4834C269.754 82.4834 269.489 82.6064 269.298 82.8525ZM280.385 88.082C279.555 88.082 278.899 87.8405 278.416 87.3574C277.937 86.8743 277.691 86.2819 277.678 85.5801V81.7451H278.915V85.5322C278.915 85.9515 279.063 86.307 279.359 86.5986C279.637 86.8766 279.977 87.0156 280.378 87.0156C280.742 87.0156 281.068 86.8743 281.355 86.5918C281.642 86.3047 281.786 85.9515 281.786 85.5322V81.7451H283.023V85.5801C283.01 86.2819 282.759 86.8789 282.271 87.3711C281.797 87.8451 281.168 88.082 280.385 88.082ZM286.932 83.3379V88H285.695V81.752H286.932C287.142 81.5241 287.575 81.4102 288.231 81.4102C289.019 81.4102 289.655 81.6517 290.138 82.1348C290.621 82.6178 290.867 83.208 290.876 83.9053V88H289.646V83.96C289.646 83.5361 289.502 83.1852 289.215 82.9072C288.928 82.6247 288.6 82.4834 288.231 82.4834C287.866 82.4834 287.545 82.6156 287.267 82.8799C287.107 83.0394 286.996 83.1921 286.932 83.3379ZM294.983 81.752V88H293.753V81.752H294.983ZM294.375 79.7285C294.626 79.7285 294.833 79.8105 294.997 79.9746C295.166 80.1341 295.25 80.3141 295.25 80.5146C295.25 80.7243 295.166 80.9111 294.997 81.0752C294.833 81.2347 294.626 81.3145 294.375 81.3145C294.115 81.3145 293.903 81.2347 293.739 81.0752C293.575 80.9111 293.493 80.7243 293.493 80.5146C293.493 80.3141 293.575 80.1341 293.739 79.9746C293.903 79.8105 294.115 79.7285 294.375 79.7285ZM298.578 81.752V79.3252H299.808V81.752H300.97V82.8184H299.808V88H298.578V82.8184H297.416V81.752H298.578ZM304.688 90.167H303.355L304.982 86.667L302.692 81.752H304.025L305.652 85.2041L307.279 81.752H308.612L304.688 90.167Z" fill="white"/>
<circle cx="103" cy="62" r="23" fill="#E2B33D" style="mix-blend-mode:overlay"/>
<circle cx="103" cy="62" r="28.5" stroke="#E2B33D" stroke-width="3" style="mix-blend-mode:overlay"/>
<defs>
<filter id="filter0_d" x="0" y="0" width="383" height="132" filterUnits="userSpaceOnUse" color-interpolation-filters="sRGB">
<feFlood flood-opacity="0" result="BackgroundImageFix"/>
<feColorMatrix in="SourceAlpha" type="matrix" values="0 0 0 0 0 0 0 0 0 0 0 0 0 0 0 0 0 0 127 0"/>
<feOffset dy="4"/>
<feGaussianBlur stdDeviation="2"/>
<feColorMatrix type="matrix" values="0 0 0 0 0 0 0 0 0 0 0 0 0 0 0 0 0 0 0.35 0"/>
<feBlend mode="normal" in2="BackgroundImageFix" result="effect1_dropShadow"/>
<feBlend mode="normal" in="SourceGraphic" in2="effect1_dropShadow" result="shape"/>
</filter>
<linearGradient id="paint0_linear" x1="-1.69711e-06" y1="4.80282" x2="315.073" y2="214.179" gradientUnits="userSpaceOnUse">
<stop stop-color="#632FDE"/>
<stop offset="0.0465075" stop-color="#8451B4"/>
<stop offset="0.144441" stop-color="#A87687"/>
<stop offset="0.462233" stop-color="#E2B33D"/>
<stop offset="0.784198" stop-color="#DF9C3D"/>
<stop offset="0.870785" stop-color="#DB7E3D"/>
<stop offset="1" stop-color="#CF263C"/>
</linearGradient>
</defs>
</svg>
