<svg width="238" height="60" viewBox="0 0 238 60" fill="none" xmlns="http://www.w3.org/2000/svg">
<path d="M80.528 34.36C78.2 34.36 76.076 33.832 74.156 32.776C72.26 31.72 70.952 30.34 70.232 28.636C70.112 28.348 70.052 28.108 70.052 27.916C70.052 27.556 70.184 27.244 70.448 26.98C70.712 26.692 71.072 26.5 71.528 26.404C71.6 26.38 71.72 26.368 71.888 26.368C72.272 26.368 72.632 26.488 72.968 26.728C73.328 26.944 73.592 27.244 73.76 27.628C74.192 28.564 75.044 29.356 76.316 30.004C77.588 30.652 78.992 30.976 80.528 30.976C82.328 30.976 83.852 30.568 85.1 29.752C86.348 28.912 86.972 27.772 86.972 26.332C86.972 24.964 86.444 23.8 85.388 22.84C84.332 21.856 82.724 21.256 80.564 21.04C77.588 20.752 75.248 19.888 73.544 18.448C71.84 16.984 70.988 15.16 70.988 12.976C70.988 11.44 71.42 10.12 72.284 9.016C73.172 7.888 74.372 7.036 75.884 6.46C77.42 5.86 79.136 5.56 81.032 5.56C83.096 5.56 84.836 5.98 86.252 6.82C87.668 7.66 88.868 8.86 89.852 10.42C90.14 10.876 90.284 11.308 90.284 11.716C90.284 12.244 90.044 12.676 89.564 13.012C89.3 13.18 88.988 13.264 88.628 13.264C88.268 13.264 87.932 13.18 87.62 13.012C87.308 12.82 87.068 12.568 86.9 12.256C86.252 11.176 85.436 10.36 84.452 9.808C83.492 9.232 82.268 8.944 80.78 8.944C78.956 8.944 77.48 9.304 76.352 10.024C75.224 10.72 74.66 11.74 74.66 13.084C74.66 14.332 75.164 15.376 76.172 16.216C77.18 17.056 78.98 17.608 81.572 17.872C84.452 18.16 86.684 19.036 88.268 20.5C89.852 21.94 90.644 23.848 90.644 26.224C90.644 27.952 90.176 29.44 89.24 30.688C88.304 31.912 87.056 32.836 85.496 33.46C83.96 34.06 82.304 34.36 80.528 34.36ZM109.417 14.128C111.073 14.128 112.561 14.488 113.881 15.208C115.201 15.928 116.233 16.984 116.977 18.376C117.721 19.744 118.093 21.4 118.093 23.344V32.2C118.093 32.728 117.913 33.172 117.553 33.532C117.217 33.868 116.785 34.036 116.257 34.036C115.729 34.036 115.285 33.868 114.925 33.532C114.589 33.172 114.421 32.728 114.421 32.2V23.344C114.421 21.4 113.893 19.936 112.837 18.952C111.805 17.944 110.425 17.44 108.697 17.44C107.689 17.44 106.765 17.644 105.925 18.052C105.109 18.46 104.461 19.012 103.981 19.708C103.525 20.404 103.297 21.184 103.297 22.048V32.2C103.297 32.728 103.129 33.172 102.793 33.532C102.457 33.868 102.013 34.036 101.461 34.036C100.933 34.036 100.489 33.868 100.129 33.532C99.7932 33.172 99.6252 32.728 99.6252 32.2V16.144C99.6252 15.592 99.7932 15.148 100.129 14.812C100.489 14.476 100.933 14.308 101.461 14.308C102.013 14.308 102.457 14.476 102.793 14.812C103.129 15.148 103.297 15.592 103.297 16.144V16.54C104.065 15.772 104.977 15.184 106.033 14.776C107.089 14.344 108.217 14.128 109.417 14.128ZM129.96 34C129.432 34 128.988 33.832 128.628 33.496C128.292 33.136 128.124 32.692 128.124 32.164V16.144C128.124 15.592 128.292 15.148 128.628 14.812C128.988 14.476 129.432 14.308 129.96 14.308C130.512 14.308 130.956 14.476 131.292 14.812C131.628 15.148 131.796 15.592 131.796 16.144V32.164C131.796 32.692 131.628 33.136 131.292 33.496C130.956 33.832 130.512 34 129.96 34ZM129.96 11.104C129.312 11.104 128.748 10.876 128.268 10.42C127.812 9.94 127.584 9.376 127.584 8.728C127.584 8.08 127.812 7.528 128.268 7.072C128.748 6.592 129.312 6.352 129.96 6.352C130.608 6.352 131.16 6.592 131.616 7.072C132.096 7.528 132.336 8.08 132.336 8.728C132.336 9.376 132.096 9.94 131.616 10.42C131.16 10.876 130.608 11.104 129.96 11.104ZM152.128 14.164C153.976 14.164 155.656 14.608 157.168 15.496C158.704 16.36 159.904 17.56 160.768 19.096C161.632 20.608 162.064 22.3 162.064 24.172C162.064 26.044 161.656 27.748 160.84 29.284C160.048 30.796 158.944 31.984 157.528 32.848C156.136 33.712 154.576 34.144 152.848 34.144C151.456 34.144 150.16 33.856 148.96 33.28C147.76 32.704 146.74 31.9 145.9 30.868V40.588C145.9 41.14 145.732 41.584 145.396 41.92C145.06 42.256 144.616 42.424 144.064 42.424C143.536 42.424 143.092 42.256 142.732 41.92C142.396 41.584 142.228 41.14 142.228 40.588V24.172C142.228 22.3 142.66 20.608 143.524 19.096C144.412 17.56 145.6 16.36 147.088 15.496C148.6 14.608 150.28 14.164 152.128 14.164ZM152.128 30.904C153.328 30.904 154.408 30.616 155.368 30.04C156.352 29.44 157.12 28.636 157.672 27.628C158.248 26.596 158.536 25.444 158.536 24.172C158.536 22.9 158.248 21.748 157.672 20.716C157.12 19.684 156.352 18.88 155.368 18.304C154.408 17.704 153.328 17.404 152.128 17.404C150.928 17.404 149.836 17.704 148.852 18.304C147.892 18.88 147.136 19.684 146.584 20.716C146.032 21.748 145.756 22.9 145.756 24.172C145.756 25.444 146.032 26.596 146.584 27.628C147.136 28.636 147.892 29.44 148.852 30.04C149.836 30.616 150.928 30.904 152.128 30.904ZM181.04 14.164C182.888 14.164 184.568 14.608 186.08 15.496C187.616 16.36 188.816 17.56 189.68 19.096C190.544 20.608 190.976 22.3 190.976 24.172C190.976 26.044 190.568 27.748 189.752 29.284C188.96 30.796 187.856 31.984 186.44 32.848C185.048 33.712 183.488 34.144 181.76 34.144C180.368 34.144 179.072 33.856 177.872 33.28C176.672 32.704 175.652 31.9 174.812 30.868V40.588C174.812 41.14 174.644 41.584 174.308 41.92C173.972 42.256 173.528 42.424 172.976 42.424C172.448 42.424 172.004 42.256 171.644 41.92C171.308 41.584 171.14 41.14 171.14 40.588V24.172C171.14 22.3 171.572 20.608 172.436 19.096C173.324 17.56 174.512 16.36 176 15.496C177.512 14.608 179.192 14.164 181.04 14.164ZM181.04 30.904C182.24 30.904 183.32 30.616 184.28 30.04C185.264 29.44 186.032 28.636 186.584 27.628C187.16 26.596 187.448 25.444 187.448 24.172C187.448 22.9 187.16 21.748 186.584 20.716C186.032 19.684 185.264 18.88 184.28 18.304C183.32 17.704 182.24 17.404 181.04 17.404C179.84 17.404 178.748 17.704 177.764 18.304C176.804 18.88 176.048 19.684 175.496 20.716C174.944 21.748 174.668 22.9 174.668 24.172C174.668 25.444 174.944 26.596 175.496 27.628C176.048 28.636 176.804 29.44 177.764 30.04C178.748 30.616 179.84 30.904 181.04 30.904ZM217.729 23.848C217.729 24.304 217.573 24.688 217.261 25C216.949 25.288 216.553 25.432 216.073 25.432H202.393C202.657 27.112 203.413 28.468 204.661 29.5C205.933 30.532 207.481 31.048 209.305 31.048C210.025 31.048 210.769 30.916 211.537 30.652C212.329 30.388 212.977 30.064 213.481 29.68C213.817 29.416 214.213 29.284 214.669 29.284C215.125 29.284 215.485 29.404 215.749 29.644C216.181 30.004 216.397 30.412 216.397 30.868C216.397 31.3 216.205 31.66 215.82 31.948C215.005 32.596 213.985 33.124 212.761 33.532C211.561 33.94 210.409 34.144 209.305 34.144C207.337 34.144 205.573 33.724 204.013 32.884C202.453 32.02 201.229 30.832 200.341 29.32C199.477 27.808 199.045 26.092 199.045 24.172C199.045 22.252 199.453 20.536 200.269 19.024C201.109 17.488 202.261 16.3 203.725 15.46C205.213 14.596 206.893 14.164 208.765 14.164C210.613 14.164 212.209 14.572 213.553 15.388C214.897 16.204 215.929 17.344 216.648 18.808C217.369 20.272 217.729 21.952 217.729 23.848ZM208.765 17.26C207.013 17.26 205.585 17.74 204.481 18.7C203.401 19.66 202.717 20.944 202.429 22.552H214.417C214.201 20.944 213.601 19.66 212.617 18.7C211.633 17.74 210.349 17.26 208.765 17.26ZM234.4 30.4C234.832 30.4 235.192 30.568 235.48 30.904C235.792 31.24 235.948 31.672 235.948 32.2C235.948 32.728 235.744 33.16 235.336 33.496C234.952 33.832 234.448 34 233.824 34H233.176C232 34 230.92 33.7 229.936 33.1C228.976 32.476 228.22 31.636 227.668 30.58C227.116 29.524 226.84 28.336 226.84 27.016V18.124H225.184C224.68 18.124 224.272 17.98 223.96 17.692C223.648 17.404 223.492 17.044 223.492 16.612C223.492 16.132 223.648 15.748 223.96 15.46C224.272 15.172 224.68 15.028 225.184 15.028H226.84V9.844C226.84 9.316 227.008 8.884 227.344 8.548C227.68 8.212 228.112 8.044 228.64 8.044C229.168 8.044 229.6 8.212 229.936 8.548C230.272 8.884 230.44 9.316 230.44 9.844V15.028H233.5C234.004 15.028 234.412 15.172 234.724 15.46C235.036 15.748 235.192 16.132 235.192 16.612C235.192 17.044 235.036 17.404 234.724 17.692C234.412 17.98 234.004 18.124 233.5 18.124H230.44V27.016C230.44 27.976 230.704 28.78 231.232 29.428C231.76 30.076 232.408 30.4 233.176 30.4H234.4Z" fill="white"/>
<path d="M106.408 53.833L107.27 54.5986C106.162 55.6058 104.943 56.1094 103.612 56.1094C102.181 56.1094 100.971 55.6172 99.9824 54.6328C98.998 53.6439 98.5059 52.459 98.5059 51.0781C98.5059 49.7109 98.998 48.5306 99.9824 47.5371C100.971 46.5436 102.181 46.0469 103.612 46.0469C104.943 46.0469 106.162 46.5527 107.27 47.5645L106.408 48.3301C105.506 47.5326 104.574 47.1338 103.612 47.1338C102.564 47.1338 101.657 47.5166 100.892 48.2822C100.131 49.0433 99.75 49.9753 99.75 51.0781C99.75 52.1901 100.131 53.1266 100.892 53.8877C101.657 54.6488 102.564 55.0293 103.612 55.0293C104.574 55.0293 105.506 54.6305 106.408 53.833ZM112.648 50.6816C112.083 50.7682 111.645 50.9938 111.336 51.3584C111.026 51.7184 110.871 52.1719 110.871 52.7188V56H109.633V49.752H110.871V50.6406C111.053 50.153 111.445 49.8135 112.046 49.6221L112.648 50.6816ZM116.242 51.6045H120.337C120.045 50.7568 119.366 50.333 118.3 50.333C117.229 50.333 116.543 50.7568 116.242 51.6045ZM116.024 52.6846V52.7051C116.024 53.3704 116.249 53.9287 116.7 54.3799C117.152 54.8311 117.685 55.0566 118.3 55.0566C118.911 55.0566 119.446 54.8265 119.906 54.3662C119.97 54.3024 120.093 54.1589 120.276 53.9355L121.438 54.3457C121.265 54.6374 121.064 54.8949 120.836 55.1182C120.143 55.8154 119.298 56.1641 118.3 56.1641C117.311 56.1641 116.473 55.8223 115.784 55.1387C115.101 54.4505 114.759 53.6393 114.759 52.7051C114.759 51.7617 115.101 50.9482 115.784 50.2646C116.473 49.5811 117.311 49.2393 118.3 49.2393C119.298 49.2393 120.143 49.5856 120.836 50.2783C121.433 50.8799 121.732 51.682 121.732 52.6846H116.024ZM130.89 56H129.653V54.9062C129.165 55.7448 128.423 56.1641 127.425 56.1641C126.436 56.1641 125.597 55.8223 124.909 55.1387C124.225 54.4505 123.884 53.6393 123.884 52.7051C123.884 51.7617 124.225 50.9482 124.909 50.2646C125.597 49.5811 126.436 49.2393 127.425 49.2393C128.423 49.2393 129.165 49.654 129.653 50.4834V49.752H130.89V56ZM129.653 53.1973V52.1992C129.567 51.748 129.359 51.3584 129.031 51.0303C128.571 50.5654 128.035 50.333 127.425 50.333C126.809 50.333 126.276 50.5609 125.825 51.0166C125.374 51.4723 125.148 52.0352 125.148 52.7051C125.148 53.3704 125.374 53.9287 125.825 54.3799C126.276 54.8311 126.809 55.0566 127.425 55.0566C128.035 55.0566 128.571 54.8265 129.031 54.3662C129.359 54.0381 129.567 53.6484 129.653 53.1973ZM134.28 49.752V47.3252H135.51V49.752H136.672V50.8184H135.51V56H134.28V50.8184H133.118V49.752H134.28ZM140.321 49.752V56H139.091V49.752H140.321ZM139.713 47.7285C139.964 47.7285 140.171 47.8105 140.335 47.9746C140.504 48.1341 140.588 48.3141 140.588 48.5146C140.588 48.7243 140.504 48.9111 140.335 49.0752C140.171 49.2347 139.964 49.3145 139.713 49.3145C139.453 49.3145 139.241 49.2347 139.077 49.0752C138.913 48.9111 138.831 48.7243 138.831 48.5146C138.831 48.3141 138.913 48.1341 139.077 47.9746C139.241 47.8105 139.453 47.7285 139.713 47.7285ZM148.865 49.752L146.076 56H145.296L142.535 49.752H143.895L145.686 53.915L147.504 49.752H148.865ZM152.104 51.6045H156.198C155.907 50.7568 155.228 50.333 154.161 50.333C153.09 50.333 152.404 50.7568 152.104 51.6045ZM151.885 52.6846V52.7051C151.885 53.3704 152.111 53.9287 152.562 54.3799C153.013 54.8311 153.546 55.0566 154.161 55.0566C154.772 55.0566 155.307 54.8265 155.768 54.3662C155.832 54.3024 155.955 54.1589 156.137 53.9355L157.299 54.3457C157.126 54.6374 156.925 54.8949 156.697 55.1182C156.005 55.8154 155.159 56.1641 154.161 56.1641C153.172 56.1641 152.334 55.8223 151.646 55.1387C150.962 54.4505 150.62 53.6393 150.62 52.7051C150.62 51.7617 150.962 50.9482 151.646 50.2646C152.334 49.5811 153.172 49.2393 154.161 49.2393C155.159 49.2393 156.005 49.5856 156.697 50.2783C157.294 50.8799 157.593 51.682 157.593 52.6846H151.885ZM172.52 53.833L173.381 54.5986C172.274 55.6058 171.055 56.1094 169.724 56.1094C168.293 56.1094 167.083 55.6172 166.094 54.6328C165.11 53.6439 164.618 52.459 164.618 51.0781C164.618 49.7109 165.11 48.5306 166.094 47.5371C167.083 46.5436 168.293 46.0469 169.724 46.0469C171.055 46.0469 172.274 46.5527 173.381 47.5645L172.52 48.3301C171.618 47.5326 170.686 47.1338 169.724 47.1338C168.676 47.1338 167.769 47.5166 167.003 48.2822C166.242 49.0433 165.862 49.9753 165.862 51.0781C165.862 52.1901 166.242 53.1266 167.003 53.8877C167.769 54.6488 168.676 55.0293 169.724 55.0293C170.686 55.0293 171.618 54.6305 172.52 53.833ZM179.252 49.2393C180.25 49.2393 181.089 49.5811 181.768 50.2646C182.447 50.9482 182.786 51.7617 182.786 52.7051C182.786 53.6393 182.447 54.4505 181.768 55.1387C181.089 55.8223 180.25 56.1641 179.252 56.1641C178.263 56.1641 177.424 55.8223 176.736 55.1387C176.053 54.4505 175.711 53.6393 175.711 52.7051C175.711 51.7617 176.053 50.9482 176.736 50.2646C177.424 49.5811 178.263 49.2393 179.252 49.2393ZM179.252 50.333C178.637 50.333 178.104 50.5609 177.652 51.0166C177.201 51.4723 176.976 52.0352 176.976 52.7051C176.976 53.3704 177.201 53.9287 177.652 54.3799C178.104 54.8311 178.637 55.0566 179.252 55.0566C179.863 55.0566 180.394 54.8311 180.845 54.3799C181.3 53.9287 181.528 53.3704 181.528 52.7051C181.528 52.0352 181.3 51.4723 180.845 51.0166C180.394 50.5609 179.863 50.333 179.252 50.333ZM186.599 50.8525V56H185.362V49.752H186.134C186.472 49.5286 186.891 49.417 187.392 49.417C187.976 49.417 188.456 49.5628 188.835 49.8545C189.204 49.5628 189.68 49.417 190.263 49.417C190.847 49.417 191.339 49.6175 191.74 50.0186C192.1 50.3877 192.289 50.8206 192.307 51.3174V56H191.07V51.0508C191.015 50.6725 190.746 50.4834 190.263 50.4834C189.862 50.4834 189.587 50.6611 189.436 51.0166V56H188.199V51.0508H188.192C188.142 50.6725 187.875 50.4834 187.392 50.4834C187.055 50.4834 186.791 50.6064 186.599 50.8525ZM196.298 50.8525V56H195.061V49.752H195.833C196.17 49.5286 196.59 49.417 197.091 49.417C197.674 49.417 198.155 49.5628 198.533 49.8545C198.903 49.5628 199.379 49.417 199.962 49.417C200.545 49.417 201.038 49.6175 201.439 50.0186C201.799 50.3877 201.988 50.8206 202.006 51.3174V56H200.769V51.0508C200.714 50.6725 200.445 50.4834 199.962 50.4834C199.561 50.4834 199.285 50.6611 199.135 51.0166V56H197.898V51.0508H197.891C197.841 50.6725 197.574 50.4834 197.091 50.4834C196.754 50.4834 196.489 50.6064 196.298 50.8525ZM207.385 56.082C206.555 56.082 205.899 55.8405 205.416 55.3574C204.937 54.8743 204.691 54.2819 204.678 53.5801V49.7451H205.915V53.5322C205.915 53.9515 206.063 54.307 206.359 54.5986C206.637 54.8766 206.977 55.0156 207.378 55.0156C207.742 55.0156 208.068 54.8743 208.355 54.5918C208.642 54.3047 208.786 53.9515 208.786 53.5322V49.7451H210.023V53.5801C210.01 54.2819 209.759 54.8789 209.271 55.3711C208.797 55.8451 208.168 56.082 207.385 56.082ZM213.932 51.3379V56H212.695V49.752H213.932C214.142 49.5241 214.575 49.4102 215.231 49.4102C216.019 49.4102 216.655 49.6517 217.138 50.1348C217.621 50.6178 217.867 51.208 217.876 51.9053V56H216.646V51.96C216.646 51.5361 216.502 51.1852 216.215 50.9072C215.928 50.6247 215.6 50.4834 215.231 50.4834C214.866 50.4834 214.545 50.6156 214.267 50.8799C214.107 51.0394 213.996 51.1921 213.932 51.3379ZM221.983 49.752V56H220.753V49.752H221.983ZM221.375 47.7285C221.626 47.7285 221.833 47.8105 221.997 47.9746C222.166 48.1341 222.25 48.3141 222.25 48.5146C222.25 48.7243 222.166 48.9111 221.997 49.0752C221.833 49.2347 221.626 49.3145 221.375 49.3145C221.115 49.3145 220.903 49.2347 220.739 49.0752C220.575 48.9111 220.493 48.7243 220.493 48.5146C220.493 48.3141 220.575 48.1341 220.739 47.9746C220.903 47.8105 221.115 47.7285 221.375 47.7285ZM225.578 49.752V47.3252H226.808V49.752H227.97V50.8184H226.808V56H225.578V50.8184H224.416V49.752H225.578ZM231.688 58.167H230.355L231.982 54.667L229.692 49.752H231.025L232.652 53.2041L234.279 49.752H235.612L231.688 58.167Z" fill="white"/>
<circle cx="30" cy="30" r="23" fill="#E2B33D"/>
<circle cx="30" cy="30" r="28.5" stroke="#E2B33D" stroke-width="3"/>
</svg>