<svg width="19" height="18" viewBox="0 0 19 18" fill="none" xmlns="http://www.w3.org/2000/svg">
<path d="M3.71191 1.03846L15.2881 1.03846C15.7012 1.03846 16.0657 1.21297 16.2884 1.51724C16.511 1.82151 16.5394 2.18413 16.3663 2.5121L10.5782 13.479C10.2828 14.0388 9.67824 14.0823 9.49999 14.0823C9.32175 14.0823 8.71723 14.0388 8.42179 13.479L2.6337 2.5121C2.4606 2.18413 2.489 1.82151 2.71163 1.51724C2.93425 1.21297 3.29884 1.03846 3.71191 1.03846Z" fill="#E2B33D"/>
<path d="M9.5 13.0438L9.5 13.0438L15.2881 2.07692C15.2881 2.07692 15.2881 2.07692 15.2881 2.07692L3.71191 2.07692C3.71191 2.07692 3.71191 2.07692 3.71191 2.07692C3.71191 2.07692 3.71191 2.07693 3.71191 2.07693L9.5 13.0438C9.5 13.0438 9.5 13.0438 9.5 13.0438ZM9.5 15.1208C8.63407 15.1208 7.76813 14.7186 7.3436 13.9142L1.55551 2.94728C0.82917 1.57106 1.97866 0 3.71191 0L15.2881 0C17.0214 0 18.1708 1.57107 17.4445 2.94728L11.6564 13.9142C11.2319 14.7186 10.3659 15.1208 9.5 15.1208Z" fill="#E2B33D"/>
</svg>
