<svg width="25" height="40" viewBox="0 0 25 40" fill="none" xmlns="http://www.w3.org/2000/svg">
<path d="M12.5 0C5.60763 0 0 5.60763 0 12.5C0 19.3924 5.60763 25 12.5 25C19.3924 25 25 19.3924 25 12.5C25 5.60763 19.3924 0 12.5 0ZM12.5 22.8261C6.80651 22.8261 2.17388 18.1935 2.17388 12.5C2.17388 6.80651 6.80651 2.17393 12.5 2.17393C18.1935 2.17393 22.8261 6.80651 22.8261 12.5C22.8261 18.1935 18.1935 22.8261 12.5 22.8261Z" fill="url(#paint0_linear)"/>
<path d="M17.6216 6.88905C17.4733 6.73973 17.2494 6.69677 17.0581 6.78067L9.89959 9.84872C9.77893 9.89987 9.68277 9.997 9.63062 10.1177L6.56267 17.2765C6.47984 17.4688 6.52279 17.6917 6.67105 17.84C6.76923 17.9361 6.90014 17.9883 7.03307 17.9883C7.10057 17.9883 7.16907 17.9739 7.23455 17.9474L14.3931 14.8793C14.5137 14.8272 14.6099 14.7311 14.6621 14.6103L17.73 7.45156C17.8118 7.25928 17.7689 7.03632 17.6216 6.88905ZM12.1463 13.3862C11.5828 13.3862 11.1237 12.927 11.1237 12.3635C11.1237 11.8 11.5829 11.3409 12.1463 11.3409C12.7098 11.3409 13.169 11.8001 13.169 12.3635C13.169 12.927 12.7098 13.3862 12.1463 13.3862Z" fill="url(#paint1_linear)"/>
<path d="M0 40C0 38.3431 1.34315 37 3 37H22C23.6569 37 25 38.3431 25 40H0Z" fill="#E2B33D"/>
<defs>
<linearGradient id="paint0_linear" x1="-1.13141e-07" y1="0.96831" x2="28.8859" y2="7.31569" gradientUnits="userSpaceOnUse">
<stop stop-color="#632FDE"/>
<stop offset="0.0465075" stop-color="#8451B4"/>
<stop offset="0.144441" stop-color="#A87687"/>
<stop offset="0.462233" stop-color="#E2B33D"/>
<stop offset="0.784198" stop-color="#DF9C3D"/>
<stop offset="0.870785" stop-color="#DB7E3D"/>
<stop offset="1" stop-color="#CF263C"/>
</linearGradient>
<linearGradient id="paint1_linear" x1="6.521" y1="7.17402" x2="19.5197" y2="10.0303" gradientUnits="userSpaceOnUse">
<stop stop-color="#632FDE"/>
<stop offset="0.0465075" stop-color="#8451B4"/>
<stop offset="0.144441" stop-color="#A87687"/>
<stop offset="0.462233" stop-color="#E2B33D"/>
<stop offset="0.784198" stop-color="#DF9C3D"/>
<stop offset="0.870785" stop-color="#DB7E3D"/>
<stop offset="1" stop-color="#CF263C"/>
</linearGradient>
</defs>
</svg>