<svg width="8" height="27" viewBox="0 0 8 27" fill="none" xmlns="http://www.w3.org/2000/svg">
        <path d="M4.29961 6.70083C5.89433 6.70083 7.18711 5.50969 7.18711 4.04036C7.18711 2.57102 5.89433 1.37988 4.29961 1.37988C2.70489 1.37988 1.41211 2.57102 1.41211 4.04036C1.41211 5.50969 2.70489 6.70083 4.29961 6.70083Z" stroke="white"/>
        <path d="M4.29961 16.1603C5.89433 16.1603 7.18711 14.9692 7.18711 13.4998C7.18711 12.0305 5.89433 10.8394 4.29961 10.8394C2.70489 10.8394 1.41211 12.0305 1.41211 13.4998C1.41211 14.9692 2.70489 16.1603 4.29961 16.1603Z" stroke="white"/>
        <path d="M4.29961 25.6203C5.89433 25.6203 7.18711 24.4291 7.18711 22.9598C7.18711 21.4905 5.89433 20.2993 4.29961 20.2993C2.70489 20.2993 1.41211 21.4905 1.41211 22.9598C1.41211 24.4291 2.70489 25.6203 4.29961 25.6203Z" stroke="white"/>
      </svg>