<svg width="41" height="40" viewBox="0 0 41 40" fill="none" xmlns="http://www.w3.org/2000/svg">
<circle cx="34.5" cy="33.5" r="6" stroke="white"/>
<rect x="34" y="29" width="1" height="9" rx="0.5" fill="white"/>
<rect x="29.9995" y="33.9951" width="1" height="9" rx="0.5" transform="rotate(-89.94 29.9995 33.9951)" fill="white"/>
<path fill-rule="evenodd" clip-rule="evenodd" d="M27.9975 37.2399C25.5667 38.3694 22.857 39 20 39C9.50659 39 1 30.4934 1 20C1 9.50659 9.50659 1 20 1C30.4934 1 39 9.50659 39 20C39 22.3762 38.5638 24.6504 37.7672 26.7471C38.0721 26.8949 38.3656 27.0628 38.6458 27.249C39.5202 25.0015 40 22.5568 40 20C40 8.9543 31.0457 0 20 0C8.9543 0 0 8.9543 0 20C0 31.0457 8.9543 40 20 40C23.0632 40 25.9656 39.3114 28.5607 38.0804C28.3549 37.8139 28.1666 37.5331 27.9975 37.2399Z" fill="white"/>
</svg>
