<svg width="16" height="16" viewBox="0 0 16 16" fill="none" xmlns="http://www.w3.org/2000/svg">
<g clip-path="url(#clip0)">
<path d="M7.99969 15.6184C3.79879 15.6184 0.381104 12.2006 0.381104 7.99953C0.381104 3.79846 3.79879 0.380608 7.99969 0.380608C12.201 0.380608 15.619 3.79846 15.619 7.99953C15.619 12.2006 12.201 15.6184 7.99969 15.6184ZM7.99969 1.14303C4.21881 1.14303 1.14287 4.21883 1.14287 7.99953C1.14287 11.7806 4.21881 14.8567 7.99969 14.8567C11.7809 14.8567 14.8572 11.7806 14.8572 7.99953C14.8572 4.21883 11.7809 1.14303 7.99969 1.14303Z" fill="white"/>
<path d="M1.5179 4.78069C2.70461 2.40064 5.16439 0.761999 7.99972 0.761999C10.8353 0.761999 13.2952 2.40055 14.4821 4.78055C13.2953 2.40036 10.8353 0.761441 7.99972 0.761441C5.16443 0.761441 2.70461 2.40045 1.5179 4.78069ZM7.99972 15.9993C3.58877 15.9993 0.000183105 12.4106 0.000183105 7.99942C0.000183105 3.58827 3.58877 -0.000427246 7.99972 -0.000427246C12.4111 -0.000427246 16 3.58827 16 7.99942C16 12.4106 12.4111 15.9993 7.99972 15.9993ZM7.99972 1.52387C4.42894 1.52387 1.52385 4.42882 1.52385 7.99942C1.52385 11.5704 4.42894 14.4757 7.99972 14.4757C11.5709 14.4757 14.4763 11.5704 14.4763 7.99942C14.4763 4.42882 11.5709 1.52387 7.99972 1.52387Z" fill="#E2B33D"/>
<path d="M7.99999 13.7136C11.1559 13.7136 13.7143 11.1554 13.7143 7.99962C13.7143 4.84386 11.1559 2.28561 7.99999 2.28561C4.84408 2.28561 2.28571 4.84386 2.28571 7.99962C2.28571 11.1554 4.84408 13.7136 7.99999 13.7136Z" fill="#E2B33D"/>
</g>
<defs>
<clipPath id="clip0">
<rect width="16" height="16" fill="white"/>
</clipPath>
</defs>
</svg>
