<svg width="16" height="16" viewBox="0 0 16 16" fill="none" xmlns="http://www.w3.org/2000/svg">
<path d="M7.99944 15.6187C3.79855 15.6187 0.380859 12.2008 0.380859 7.99978C0.380859 3.79871 3.79855 0.380859 7.99944 0.380859C12.2007 0.380859 15.6187 3.79871 15.6187 7.99978C15.6187 12.2008 12.2007 15.6187 7.99944 15.6187ZM7.99944 1.14329C4.21856 1.14329 1.14262 4.21908 1.14262 7.99978C1.14262 11.7809 4.21856 14.857 7.99944 14.857C11.7807 14.857 14.857 11.7809 14.857 7.99978C14.857 4.21908 11.7807 1.14329 7.99944 1.14329Z" fill="white"/>
<path d="M1.51772 4.78112C2.70443 2.40107 5.1642 0.762427 7.99954 0.762427C10.8351 0.762427 13.2951 2.40097 14.482 4.78098C13.2951 2.40079 10.8351 0.761869 7.99954 0.761869C5.16425 0.761869 2.70443 2.40088 1.51772 4.78112ZM7.99954 15.9997C3.58859 15.9997 0 12.411 0 7.99986C0 3.5887 3.58859 0 7.99954 0C12.4109 0 15.9998 3.5887 15.9998 7.99986C15.9998 12.411 12.4109 15.9997 7.99954 15.9997ZM7.99954 1.5243C4.42876 1.5243 1.52367 4.42925 1.52367 7.99986C1.52367 11.5709 4.42876 14.4761 7.99954 14.4761C11.5707 14.4761 14.4761 11.5709 14.4761 7.99986C14.4761 4.42925 11.5707 1.5243 7.99954 1.5243Z" fill="url(#paint0_linear)"/>
<path d="M7.99993 13.7141C11.1558 13.7141 13.7142 11.1559 13.7142 8.00014C13.7142 4.84438 11.1558 2.28613 7.99993 2.28613C4.84402 2.28613 2.28564 4.84438 2.28564 8.00014C2.28564 11.1559 4.84402 13.7141 7.99993 13.7141Z" fill="url(#paint1_linear)"/>
<defs>
<linearGradient id="paint0_linear" x1="0" y1="0" x2="18.681" y2="4.27038" gradientUnits="userSpaceOnUse">
<stop stop-color="#868BF7"/>
<stop offset="0.371692" stop-color="#E0B049"/>
<stop offset="0.560376" stop-color="#E2B33D"/>
<stop offset="1" stop-color="#F87E91"/>
</linearGradient>
<linearGradient id="paint1_linear" x1="2.28564" y1="2.28613" x2="15.6294" y2="5.33657" gradientUnits="userSpaceOnUse">
<stop stop-color="#868BF7"/>
<stop offset="0.371692" stop-color="#E0B049"/>
<stop offset="0.560376" stop-color="#E2B33D"/>
<stop offset="1" stop-color="#F87E91"/>
</linearGradient>
</defs>
</svg>
