<svg width="16" height="16" viewBox="0 0 16 16" fill="none" xmlns="http://www.w3.org/2000/svg">
<path d="M7.99949 15.6189C3.7986 15.6189 0.380909 12.201 0.380909 7.99995C0.380909 3.79889 3.7986 0.381035 7.99949 0.381035C12.2008 0.381035 15.6188 3.79889 15.6188 7.99995C15.6188 12.201 12.2008 15.6189 7.99949 15.6189ZM7.99949 1.14346C4.21861 1.14346 1.14267 4.21925 1.14267 7.99995C1.14267 11.781 4.21861 14.8571 7.99949 14.8571C11.7807 14.8571 14.857 11.781 14.857 7.99995C14.857 4.21925 11.7807 1.14346 7.99949 1.14346Z" fill="white"/>
<path d="M1.51772 4.78112C2.70443 2.40107 5.1642 0.762426 7.99954 0.762426C10.8351 0.762426 13.2951 2.40097 14.482 4.78098C13.2951 2.40079 10.8351 0.761868 7.99954 0.761868C5.16425 0.761868 2.70443 2.40088 1.51772 4.78112ZM7.99954 15.9997C3.58859 15.9997 0 12.411 0 7.99985C0 3.5887 3.58859 0 7.99954 0C12.4109 0 15.9998 3.5887 15.9998 7.99985C15.9998 12.411 12.4109 15.9997 7.99954 15.9997ZM7.99954 1.52429C4.42876 1.52429 1.52367 4.42924 1.52367 7.99985C1.52367 11.5709 4.42876 14.4761 7.99954 14.4761C11.5707 14.4761 14.4761 11.5709 14.4761 7.99985C14.4761 4.42924 11.5707 1.52429 7.99954 1.52429Z" fill="#E2B33D"/>
<path d="M7.99982 13.7141C11.1557 13.7141 13.7141 11.1558 13.7141 8.00005C13.7141 4.84428 11.1557 2.28603 7.99982 2.28603C4.8439 2.28603 2.28553 4.84428 2.28553 8.00005C2.28553 11.1558 4.8439 13.7141 7.99982 13.7141Z" fill="#E2B33D"/>
<path d="M7.99982 13.7141C11.1557 13.7141 13.7141 11.1558 13.7141 8.00005C13.7141 4.84428 11.1557 2.28603 7.99982 2.28603C4.8439 2.28603 2.28553 4.84428 2.28553 8.00005C2.28553 11.1558 4.8439 13.7141 7.99982 13.7141Z" fill="url(#paint0_linear)"/>
<defs>
<linearGradient id="paint0_linear" x1="7.99982" y1="2.28603" x2="7.99982" y2="13.7141" gradientUnits="userSpaceOnUse">
<stop stop-color="white"/>
<stop offset="1" stop-color="white" stop-opacity="0"/>
</linearGradient>
</defs>
</svg>
