<svg width="13" height="16" viewBox="0 0 13 16" fill="none" xmlns="http://www.w3.org/2000/svg">
<g clip-path="url(#clip0)">
<path d="M0.892799 12.8742V3.12582C0.892799 2.77797 1.04283 2.47096 1.30443 2.28348C1.56602 2.09601 1.87778 2.07209 2.15975 2.21786L11.5885 7.09204C12.0698 7.34083 12.1072 7.8499 12.1072 8C12.1072 8.1501 12.0698 8.65916 11.5885 8.90796L2.15975 13.7821C1.87778 13.9279 1.56602 13.904 1.30443 13.7165C1.04283 13.529 0.892799 13.222 0.892799 12.8742Z" fill="#E2B33D"/>
<path d="M11.2144 8L11.2144 8L1.78562 3.12581C1.78562 3.12581 1.78562 3.12582 1.78562 3.12582V12.8742C1.78562 12.8742 1.78562 12.8742 1.78562 12.8742C1.78563 12.8742 1.78563 12.8742 1.78563 12.8742L11.2144 8C11.2144 8 11.2144 8 11.2144 8ZM13 8C13 8.72921 12.6542 9.45842 11.9627 9.81592L2.53391 14.6901C1.35071 15.3018 -9.53674e-07 14.3338 -9.53674e-07 12.8742V3.12582C-9.53674e-07 1.66623 1.35072 0.698245 2.53391 1.3099L11.9627 6.18408C12.6542 6.54158 13 7.27079 13 8Z" fill="#E2B33D"/>
</g>
<defs>
<clipPath id="clip0">
<rect width="13" height="16" fill="white" transform="translate(13 16) rotate(180)"/>
</clipPath>
</defs>
</svg>
