<svg width="230" height="32" viewBox="0 0 230 32" fill="none" xmlns="http://www.w3.org/2000/svg">
<path d="M52.5918 6.32617H55.0664V20.2441C54.8568 21.7845 54.196 23.1107 53.084 24.2227C51.7988 25.5169 50.2083 26.1641 48.3125 26.1641C46.3984 26.1641 44.7897 25.5124 43.4863 24.209C42.1829 22.8965 41.5312 21.3424 41.5312 19.5469V6.32617H44.0059V19.5469C44.0059 20.8047 44.4342 21.8665 45.291 22.7324C46.1478 23.5892 47.1549 24.0176 48.3125 24.0176C49.4609 24.0176 50.459 23.5892 51.3066 22.7324C52.1634 21.8665 52.5918 20.8047 52.5918 19.5469V6.32617ZM63.9641 19.7656C63.0344 19.2552 62.3964 18.8268 62.05 18.4805C61.3755 17.806 61.0383 17.0312 61.0383 16.1562C61.0383 15.2904 61.3664 14.5247 62.0227 13.8594C62.6789 13.194 63.4992 12.8613 64.4836 12.8613C65.468 12.8613 66.2609 13.1667 66.8625 13.7773C67.4823 14.3971 67.7922 15.0762 67.7922 15.8145V16.1973L65.5773 17.0996C65.4406 16.0697 65.2811 15.4635 65.0988 15.2812C64.9257 15.099 64.7206 15.0078 64.4836 15.0078C64.2466 15.0078 64.0233 15.1126 63.8137 15.3223C63.604 15.5319 63.4992 15.8099 63.4992 16.1562C63.4992 16.5026 63.6177 16.7943 63.8547 17.0312C64.0096 17.1953 64.3697 17.4551 64.9348 17.8105C65.9647 18.3757 66.7167 18.8906 67.1906 19.3555C67.938 20.1211 68.3117 21.0234 68.3117 22.0625C68.3117 23.1289 67.9243 24.054 67.1496 24.8379C66.3749 25.6217 65.4042 26.0137 64.2375 26.0137C63.0708 26.0137 62.0956 25.6217 61.3117 24.8379C60.537 24.054 60.1496 23.0742 60.1496 21.8984L62.6105 21.2832C62.6105 22.3405 62.7792 23.0378 63.1164 23.375C63.4536 23.7122 63.8273 23.8809 64.2375 23.8809C64.6477 23.8809 65.0214 23.7122 65.3586 23.375C65.7049 23.0378 65.8781 22.6003 65.8781 22.0625C65.8781 21.543 65.6958 21.1055 65.3312 20.75C65.1125 20.5404 64.6568 20.2122 63.9641 19.7656ZM76.2113 13.5039V26H73.7504V13.5039H76.2113ZM74.9945 9.45703C75.4958 9.45703 75.9105 9.62109 76.2387 9.94922C76.5759 10.2682 76.7445 10.6283 76.7445 11.0293C76.7445 11.4486 76.5759 11.8223 76.2387 12.1504C75.9105 12.4694 75.4958 12.6289 74.9945 12.6289C74.475 12.6289 74.0512 12.4694 73.723 12.1504C73.3949 11.8223 73.2309 11.4486 73.2309 11.0293C73.2309 10.6283 73.3949 10.2682 73.723 9.94922C74.0512 9.62109 74.475 9.45703 74.9945 9.45703ZM84.4664 16.6758V26H81.9918V13.5039H84.4664C84.8857 13.0482 85.7516 12.8203 87.0641 12.8203C88.6409 12.8203 89.9124 13.3034 90.8785 14.2695C91.8447 15.2357 92.3369 16.416 92.3551 17.8105V26H89.8941V17.9199C89.8941 17.0723 89.607 16.3704 89.0328 15.8145C88.4586 15.2493 87.8023 14.9668 87.0641 14.9668C86.3349 14.9668 85.6923 15.2311 85.1363 15.7598C84.8173 16.0788 84.594 16.3841 84.4664 16.6758ZM108.745 18.3574C108.563 17.4733 108.134 16.6895 107.46 16.0059C106.576 15.1126 105.523 14.666 104.302 14.666C103.071 14.666 102.005 15.1217 101.102 16.0332C100.2 16.9447 99.7488 18.0703 99.7488 19.4102C99.7488 20.7409 100.2 21.862 101.102 22.7734C102.005 23.6758 103.071 24.127 104.302 24.127C105.523 24.127 106.594 23.6667 107.514 22.7461C108.152 22.1081 108.563 21.3516 108.745 20.4766V18.3574ZM108.581 23.8809C107.724 25.5124 106.298 26.3281 104.302 26.3281C102.324 26.3281 100.647 25.6445 99.2703 24.2773C97.9031 22.901 97.2195 21.2786 97.2195 19.4102C97.2195 17.5234 97.9031 15.901 99.2703 14.543C100.647 13.1758 102.324 12.4922 104.302 12.4922C106.289 12.4922 107.774 13.3171 108.759 14.9668V13.5039H111.233V22.9102C111.233 24.7422 110.572 26.3145 109.251 27.627C107.865 29.0215 106.179 29.7188 104.192 29.7188C102.205 29.7188 100.533 29.0397 99.1746 27.6816C98.8647 27.3626 98.4728 26.8887 97.9988 26.2598L100.364 25.3984C100.683 25.7995 100.906 26.0547 101.034 26.1641C101.918 27.0573 102.971 27.5039 104.192 27.5039C106.772 27.5039 108.235 26.2962 108.581 23.8809ZM131.763 15.6504C130.35 15.1855 129.215 14.5247 128.359 13.668C127.502 12.8112 127.073 11.7767 127.073 10.5645C127.073 9.37956 127.515 8.34049 128.4 7.44727C129.293 6.54492 130.4 6.09375 131.722 6.09375C133.025 6.09375 134.142 6.55404 135.071 7.47461C135.555 7.94857 135.933 8.61393 136.206 9.4707L133.991 10.332C133.718 9.59375 133.472 9.11523 133.253 8.89648C132.807 8.44076 132.296 8.21289 131.722 8.21289C131.157 8.21289 130.651 8.4362 130.204 8.88281C129.767 9.32031 129.548 9.88086 129.548 10.5645C129.548 11.2389 129.776 11.8132 130.232 12.2871C130.706 12.7428 131.353 13.1621 132.173 13.5449C133.741 14.0553 135.053 14.8392 136.111 15.8965C137.323 17.0996 137.929 18.5215 137.929 20.1621C137.929 21.8027 137.327 23.2246 136.124 24.4277C134.93 25.6217 133.463 26.2188 131.722 26.2188C129.972 26.2188 128.491 25.6035 127.279 24.373C126.331 23.4342 125.747 22.2174 125.529 20.7227L127.907 19.8613C128.053 21.2923 128.459 22.3359 129.124 22.9922C129.853 23.7214 130.719 24.0859 131.722 24.0859C132.734 24.0859 133.613 23.7122 134.361 22.9648C135.117 22.2083 135.495 21.2741 135.495 20.1621C135.495 19.0501 135.126 18.125 134.388 17.3867C133.64 16.6484 132.765 16.0697 131.763 15.6504ZM144.256 13.5039V8.65039H146.717V13.5039H149.041V15.6367H146.717V26H144.256V15.6367H141.932V13.5039H144.256ZM156.339 13.5039V26H153.879V13.5039H156.339ZM155.123 9.45703C155.624 9.45703 156.039 9.62109 156.367 9.94922C156.704 10.2682 156.873 10.6283 156.873 11.0293C156.873 11.4486 156.704 11.8223 156.367 12.1504C156.039 12.4694 155.624 12.6289 155.123 12.6289C154.603 12.6289 154.179 12.4694 153.851 12.1504C153.523 11.8223 153.359 11.4486 153.359 11.0293C153.359 10.6283 153.523 10.2682 153.851 9.94922C154.179 9.62109 154.603 9.45703 155.123 9.45703ZM172.387 22.0078L174.739 22.8691C174.274 23.498 173.905 23.9538 173.632 24.2363C172.246 25.6309 170.555 26.3281 168.559 26.3281C166.582 26.3281 164.904 25.6445 163.528 24.2773C162.161 22.901 161.477 21.2741 161.477 19.3965C161.477 17.5189 162.161 15.8965 163.528 14.5293C164.904 13.1621 166.582 12.4785 168.559 12.4785C170.555 12.4785 172.228 13.153 173.577 14.502C173.887 14.8118 174.274 15.2812 174.739 15.9102L172.387 16.7852C172.059 16.375 171.836 16.1061 171.718 15.9785C170.833 15.1035 169.781 14.666 168.559 14.666C167.338 14.666 166.276 15.1217 165.374 16.0332C164.471 16.9355 164.02 18.0566 164.02 19.3965C164.02 20.7272 164.471 21.8483 165.374 22.7598C166.276 23.6621 167.338 24.1133 168.559 24.1133C169.781 24.1133 170.852 23.653 171.772 22.7324C171.854 22.6504 172.059 22.4089 172.387 22.0078ZM187.137 13.5039L183.855 17.5781L188.613 26H185.783L182.256 19.5469L182.078 19.7793V26H179.604V8.65039H182.078V16.0469L184.143 13.5039H187.137ZM194.407 17.209H202.597C202.014 15.5137 200.655 14.666 198.523 14.666C196.381 14.666 195.009 15.5137 194.407 17.209ZM193.97 19.3691V19.4102C193.97 20.7409 194.421 21.8574 195.323 22.7598C196.226 23.6621 197.292 24.1133 198.523 24.1133C199.744 24.1133 200.815 23.653 201.736 22.7324C201.863 22.6048 202.109 22.3177 202.474 21.8711L204.798 22.6914C204.452 23.2747 204.051 23.7897 203.595 24.2363C202.21 25.6309 200.519 26.3281 198.523 26.3281C196.545 26.3281 194.868 25.6445 193.491 24.2773C192.124 22.901 191.441 21.2786 191.441 19.4102C191.441 17.5234 192.124 15.8965 193.491 14.5293C194.868 13.1621 196.545 12.4785 198.523 12.4785C200.519 12.4785 202.21 13.1712 203.595 14.5566C204.789 15.7598 205.386 17.3639 205.386 19.3691H193.97ZM215.76 15.3633C214.63 15.5365 213.755 15.9876 213.135 16.7168C212.515 17.4368 212.205 18.3438 212.205 19.4375V26H209.731V13.5039H212.205V15.2812C212.57 14.306 213.354 13.627 214.557 13.2441L215.76 15.3633ZM223.837 19.7656C222.908 19.2552 222.27 18.8268 221.923 18.4805C221.249 17.806 220.912 17.0312 220.912 16.1562C220.912 15.2904 221.24 14.5247 221.896 13.8594C222.552 13.194 223.373 12.8613 224.357 12.8613C225.341 12.8613 226.134 13.1667 226.736 13.7773C227.356 14.3971 227.666 15.0762 227.666 15.8145V16.1973L225.451 17.0996C225.314 16.0697 225.155 15.4635 224.972 15.2812C224.799 15.099 224.594 15.0078 224.357 15.0078C224.12 15.0078 223.897 15.1126 223.687 15.3223C223.477 15.5319 223.373 15.8099 223.373 16.1562C223.373 16.5026 223.491 16.7943 223.728 17.0312C223.883 17.1953 224.243 17.4551 224.808 17.8105C225.838 18.3757 226.59 18.8906 227.064 19.3555C227.811 20.1211 228.185 21.0234 228.185 22.0625C228.185 23.1289 227.798 24.054 227.023 24.8379C226.248 25.6217 225.278 26.0137 224.111 26.0137C222.944 26.0137 221.969 25.6217 221.185 24.8379C220.41 24.054 220.023 23.0742 220.023 21.8984L222.484 21.2832C222.484 22.3405 222.653 23.0378 222.99 23.375C223.327 23.7122 223.701 23.8809 224.111 23.8809C224.521 23.8809 224.895 23.7122 225.232 23.375C225.578 23.0378 225.752 22.6003 225.752 22.0625C225.752 21.543 225.569 21.1055 225.205 20.75C224.986 20.5404 224.53 20.2122 223.837 19.7656Z" fill="#E2B33D"/>
<g clip-path="url(#clip0)">
<path d="M14.9994 30.2846C7.12277 30.2846 0.7146 23.8761 0.7146 15.9991C0.7146 8.1221 7.12277 1.71362 14.9994 1.71362C22.8768 1.71362 29.2856 8.1221 29.2856 15.9991C29.2856 23.8761 22.8768 30.2846 14.9994 30.2846ZM14.9994 3.14317C7.9103 3.14317 2.14291 8.91029 2.14291 15.9991C2.14291 23.0886 7.9103 28.8563 14.9994 28.8563C22.0893 28.8563 27.8573 23.0886 27.8573 15.9991C27.8573 8.91029 22.0893 3.14317 14.9994 3.14317Z" fill="url(#paint0_linear)"/>
<path d="M2.84597 9.9641C5.07105 5.50151 9.68312 2.42906 14.9994 2.42906C20.3161 2.42906 24.9285 5.50134 27.1539 9.96384C24.9286 5.50099 20.3161 2.42802 14.9994 2.42802C9.68321 2.42802 5.07105 5.50116 2.84597 9.9641ZM14.9994 30.999C6.72885 30.999 0.000244141 24.2701 0.000244141 15.9992C0.000244141 7.72832 6.72885 0.999512 14.9994 0.999512C23.2707 0.999512 29.9998 7.72832 29.9998 15.9992C29.9998 24.2701 23.2707 30.999 14.9994 30.999ZM14.9994 3.85756C8.30417 3.85756 2.85713 9.30434 2.85713 15.9992C2.85713 22.6949 8.30417 28.1422 14.9994 28.1422C21.6954 28.1422 27.1429 22.6949 27.1429 15.9992C27.1429 9.30434 21.6954 3.85756 14.9994 3.85756Z" fill="url(#paint1_linear)"/>
<path d="M15.0001 26.713C20.9174 26.713 25.7143 21.9162 25.7143 15.9992C25.7143 10.0821 20.9174 5.2854 15.0001 5.2854C9.08272 5.2854 4.28577 10.0821 4.28577 15.9992C4.28577 21.9162 9.08272 26.713 15.0001 26.713Z" fill="url(#paint2_linear)"/>
</g>
<defs>
<linearGradient id="paint0_linear" x1="0.714599" y1="2.82024" x2="33.7266" y2="10.0743" gradientUnits="userSpaceOnUse">
<stop stop-color="#632FDE"/>
<stop offset="0.0465075" stop-color="#8451B4"/>
<stop offset="0.144441" stop-color="#A87687"/>
<stop offset="0.462233" stop-color="#E2B33D"/>
<stop offset="0.784198" stop-color="#DF9C3D"/>
<stop offset="0.870785" stop-color="#DB7E3D"/>
<stop offset="1" stop-color="#CF263C"/>
</linearGradient>
<linearGradient id="paint1_linear" x1="1.20002" y1="3.4001" x2="31.8918" y2="10.4104" gradientUnits="userSpaceOnUse">
<stop stop-color="#632FDE"/>
<stop offset="0.0465075" stop-color="#8451B4"/>
<stop offset="0.144441" stop-color="#A87687"/>
<stop offset="0.462233" stop-color="#E2B33D"/>
<stop offset="0.784198" stop-color="#DF9C3D"/>
<stop offset="0.870785" stop-color="#DB7E3D"/>
<stop offset="1" stop-color="#CF263C"/>
</linearGradient>
<linearGradient id="paint2_linear" x1="6.00007" y1="7.6" x2="26.4051" y2="12.5088" gradientUnits="userSpaceOnUse">
<stop stop-color="#632FDE"/>
<stop offset="0.0465075" stop-color="#8451B4"/>
<stop offset="0.144441" stop-color="#A87687"/>
<stop offset="0.462233" stop-color="#E2B33D"/>
<stop offset="0.784198" stop-color="#DF9C3D"/>
<stop offset="0.870785" stop-color="#DB7E3D"/>
<stop offset="1" stop-color="#CF263C"/>
</linearGradient>
<clipPath id="clip0">
<rect width="30" height="30" fill="white" transform="translate(0 1)"/>
</clipPath>
</defs>
</svg>
