<svg width="185" height="32" viewBox="0 0 185 32" fill="none" xmlns="http://www.w3.org/2000/svg">
<path d="M50.1582 15.6914L48.2715 10.4688L46.3711 15.6914H50.1582ZM49.3516 6.32617L56.4746 26H53.9043L50.9375 17.8242H45.5918L42.5703 26H39.9863L47.2051 6.32617H49.3516ZM63.882 19.7656C62.9523 19.2552 62.3143 18.8268 61.968 18.4805C61.2935 17.806 60.9562 17.0312 60.9562 16.1562C60.9562 15.2904 61.2844 14.5247 61.9406 13.8594C62.5969 13.194 63.4172 12.8613 64.4016 12.8613C65.3859 12.8613 66.1789 13.1667 66.7805 13.7773C67.4003 14.3971 67.7102 15.0762 67.7102 15.8145V16.1973L65.4953 17.0996C65.3586 16.0697 65.1991 15.4635 65.0168 15.2812C64.8436 15.099 64.6385 15.0078 64.4016 15.0078C64.1646 15.0078 63.9413 15.1126 63.7316 15.3223C63.522 15.5319 63.4172 15.8099 63.4172 16.1562C63.4172 16.5026 63.5357 16.7943 63.7727 17.0312C63.9276 17.1953 64.2876 17.4551 64.8527 17.8105C65.8827 18.3757 66.6346 18.8906 67.1086 19.3555C67.856 20.1211 68.2297 21.0234 68.2297 22.0625C68.2297 23.1289 67.8423 24.054 67.0676 24.8379C66.2928 25.6217 65.3221 26.0137 64.1555 26.0137C62.9888 26.0137 62.0135 25.6217 61.2297 24.8379C60.4549 24.054 60.0676 23.0742 60.0676 21.8984L62.5285 21.2832C62.5285 22.3405 62.6971 23.0378 63.0344 23.375C63.3716 23.7122 63.7453 23.8809 64.1555 23.8809C64.5656 23.8809 64.9393 23.7122 65.2766 23.375C65.6229 23.0378 65.7961 22.6003 65.7961 22.0625C65.7961 21.543 65.6138 21.1055 65.2492 20.75C65.0305 20.5404 64.5747 20.2122 63.882 19.7656ZM95.0758 6.32617H97.6598L90.5914 26H88.8688L81.8141 6.32617H84.3844L89.7438 21.4746L95.0758 6.32617ZM104.507 13.5039V26H102.046V13.5039H104.507ZM103.29 9.45703C103.791 9.45703 104.206 9.62109 104.534 9.94922C104.871 10.2682 105.04 10.6283 105.04 11.0293C105.04 11.4486 104.871 11.8223 104.534 12.1504C104.206 12.4694 103.791 12.6289 103.29 12.6289C102.77 12.6289 102.346 12.4694 102.018 12.1504C101.69 11.8223 101.526 11.4486 101.526 11.0293C101.526 10.6283 101.69 10.2682 102.018 9.94922C102.346 9.62109 102.77 9.45703 103.29 9.45703ZM112.611 17.209H120.801C120.217 15.5137 118.859 14.666 116.727 14.666C114.585 14.666 113.213 15.5137 112.611 17.209ZM112.174 19.3691V19.4102C112.174 20.7409 112.625 21.8574 113.527 22.7598C114.43 23.6621 115.496 24.1133 116.727 24.1133C117.948 24.1133 119.019 23.653 119.939 22.7324C120.067 22.6048 120.313 22.3177 120.678 21.8711L123.002 22.6914C122.656 23.2747 122.255 23.7897 121.799 24.2363C120.413 25.6309 118.723 26.3281 116.727 26.3281C114.749 26.3281 113.072 25.6445 111.695 24.2773C110.328 22.901 109.645 21.2786 109.645 19.4102C109.645 17.5234 110.328 15.8965 111.695 14.5293C113.072 13.1621 114.749 12.4785 116.727 12.4785C118.723 12.4785 120.413 13.1712 121.799 14.5566C122.993 15.7598 123.59 17.3639 123.59 19.3691H112.174ZM143.083 13.5039L138.831 26H137.095L134.976 20.0801L132.87 26H131.107L126.882 13.5039H129.548L132.05 21.2695L134.155 15.4453H135.823L137.915 21.2695L140.404 13.5039H143.083ZM149.547 17.209H157.737C157.153 15.5137 155.795 14.666 153.662 14.666C151.521 14.666 150.149 15.5137 149.547 17.209ZM149.11 19.3691V19.4102C149.11 20.7409 149.561 21.8574 150.463 22.7598C151.366 23.6621 152.432 24.1133 153.662 24.1133C154.884 24.1133 155.955 23.653 156.875 22.7324C157.003 22.6048 157.249 22.3177 157.614 21.8711L159.938 22.6914C159.592 23.2747 159.19 23.7897 158.735 24.2363C157.349 25.6309 155.659 26.3281 153.662 26.3281C151.685 26.3281 150.008 25.6445 148.631 24.2773C147.264 22.901 146.58 21.2786 146.58 19.4102C146.58 17.5234 147.264 15.8965 148.631 14.5293C150.008 13.1621 151.685 12.4785 153.662 12.4785C155.659 12.4785 157.349 13.1712 158.735 14.5566C159.929 15.7598 160.526 17.3639 160.526 19.3691H149.11ZM170.9 15.3633C169.77 15.5365 168.895 15.9876 168.275 16.7168C167.655 17.4368 167.345 18.3438 167.345 19.4375V26H164.871V13.5039H167.345V15.2812C167.71 14.306 168.494 13.627 169.697 13.2441L170.9 15.3633ZM178.977 19.7656C178.048 19.2552 177.41 18.8268 177.063 18.4805C176.389 17.806 176.052 17.0312 176.052 16.1562C176.052 15.2904 176.38 14.5247 177.036 13.8594C177.692 13.194 178.512 12.8613 179.497 12.8613C180.481 12.8613 181.274 13.1667 181.876 13.7773C182.496 14.3971 182.805 15.0762 182.805 15.8145V16.1973L180.591 17.0996C180.454 16.0697 180.294 15.4635 180.112 15.2812C179.939 15.099 179.734 15.0078 179.497 15.0078C179.26 15.0078 179.037 15.1126 178.827 15.3223C178.617 15.5319 178.512 15.8099 178.512 16.1562C178.512 16.5026 178.631 16.7943 178.868 17.0312C179.023 17.1953 179.383 17.4551 179.948 17.8105C180.978 18.3757 181.73 18.8906 182.204 19.3555C182.951 20.1211 183.325 21.0234 183.325 22.0625C183.325 23.1289 182.938 24.054 182.163 24.8379C181.388 25.6217 180.417 26.0137 179.251 26.0137C178.084 26.0137 177.109 25.6217 176.325 24.8379C175.55 24.054 175.163 23.0742 175.163 21.8984L177.624 21.2832C177.624 22.3405 177.792 23.0378 178.13 23.375C178.467 23.7122 178.841 23.8809 179.251 23.8809C179.661 23.8809 180.035 23.7122 180.372 23.375C180.718 23.0378 180.891 22.6003 180.891 22.0625C180.891 21.543 180.709 21.1055 180.345 20.75C180.126 20.5404 179.67 20.2122 178.977 19.7656Z" fill="#E2B33D"/>
<g clip-path="url(#clip0)">
<path d="M29.7755 16.4138C29.5077 16.1151 23.0668 9.08984 14.9995 9.08984C6.93223 9.08984 0.491377 16.1151 0.223545 16.4138C-0.075166 16.7476 -0.075166 17.2524 0.223545 17.5862C0.491377 17.8849 6.93235 24.9102 14.9995 24.9102C23.0667 24.9102 29.5077 17.8849 29.7755 17.5862C30.0742 17.2524 30.0742 16.7476 29.7755 16.4138ZM14.9995 23.1523C11.6075 23.1523 8.84719 20.3921 8.84719 17C8.84719 13.6079 11.6075 10.8477 14.9995 10.8477C18.3916 10.8477 21.1519 13.6079 21.1519 17C21.1519 20.3921 18.3916 23.1523 14.9995 23.1523Z" fill="url(#paint0_linear)"/>
<path d="M15.8789 15.2422C15.8789 14.358 16.3178 13.5802 16.9856 13.1018C16.3864 12.795 15.7181 12.6055 15 12.6055C12.577 12.6055 10.6055 14.577 10.6055 17C10.6055 19.423 12.577 21.3945 15 21.3945C17.1694 21.3945 18.9649 19.8105 19.3196 17.7407C17.5498 18.3106 15.8789 16.972 15.8789 15.2422Z" fill="url(#paint1_linear)"/>
</g>
<defs>
<linearGradient id="paint0_linear" x1="3" y1="11" x2="26.8361" y2="22.2244" gradientUnits="userSpaceOnUse">
<stop stop-color="#632FDE"/>
<stop offset="0.0465075" stop-color="#8451B4"/>
<stop offset="0.144441" stop-color="#A87687"/>
<stop offset="0.462233" stop-color="#E2B33D"/>
<stop offset="0.784198" stop-color="#DF9C3D"/>
<stop offset="0.870785" stop-color="#DB7E3D"/>
<stop offset="1" stop-color="#CF263C"/>
</linearGradient>
<linearGradient id="paint1_linear" x1="10.6055" y1="12.9459" x2="20.682" y2="15.1412" gradientUnits="userSpaceOnUse">
<stop stop-color="#632FDE"/>
<stop offset="0.0465075" stop-color="#8451B4"/>
<stop offset="0.144441" stop-color="#A87687"/>
<stop offset="0.462233" stop-color="#E2B33D"/>
<stop offset="0.784198" stop-color="#DF9C3D"/>
<stop offset="0.870785" stop-color="#DB7E3D"/>
<stop offset="1" stop-color="#CF263C"/>
</linearGradient>
<clipPath id="clip0">
<rect width="30" height="30" fill="white" transform="translate(0 2)"/>
</clipPath>
</defs>
</svg>
