<svg width="480" height="42" viewBox="0 0 480 42" fill="none" xmlns="http://www.w3.org/2000/svg">
<path d="M35.48 0.759999C36.0133 0.759999 36.4133 0.919999 36.68 1.24C36.9467 1.56 37.08 1.98667 37.08 2.52C37.08 2.92 37.0267 3.29333 36.92 3.64L28.88 30.32C28.6933 30.8267 28.4133 31.24 28.04 31.56C27.6933 31.8533 27.28 32 26.8 32C26.32 32 25.8933 31.8533 25.52 31.56C25.1467 31.24 24.88 30.84 24.72 30.36L18.76 7.32L12.72 30.32C12.5333 30.8267 12.2533 31.24 11.88 31.56C11.5333 31.8533 11.12 32 10.64 32C10.16 32 9.73333 31.8533 9.36 31.56C8.98667 31.2667 8.72 30.8667 8.56 30.36L0.52 3.64C0.413333 3.29333 0.36 2.93333 0.36 2.56C0.36 2 0.506667 1.56 0.8 1.24C1.12 0.919999 1.54667 0.759999 2.08 0.759999C2.56 0.759999 2.97333 0.893332 3.32 1.16C3.69333 1.42667 3.96 1.81333 4.12 2.32L10.68 25.12L16.72 2.56C16.8267 2.16 17.0667 1.82666 17.44 1.56C17.8133 1.29333 18.24 1.16 18.72 1.16C19.1733 1.16 19.5867 1.28 19.96 1.52C20.3333 1.76 20.5733 2.09333 20.68 2.52L26.8 25.28L33.44 2.12C33.5733 1.64 33.8 1.29333 34.12 1.08C34.4667 0.866665 34.92 0.759999 35.48 0.759999ZM60.365 20.72C60.365 21.2267 60.1917 21.6533 59.845 22C59.4983 22.32 59.0583 22.48 58.525 22.48H43.325C43.6183 24.3467 44.4583 25.8533 45.845 27C47.2583 28.1467 48.9783 28.72 51.005 28.72C51.805 28.72 52.6317 28.5733 53.485 28.28C54.365 27.9867 55.085 27.6267 55.645 27.2C56.0183 26.9067 56.4583 26.76 56.965 26.76C57.4717 26.76 57.8717 26.8933 58.165 27.16C58.645 27.56 58.885 28.0133 58.885 28.52C58.885 29 58.6717 29.4 58.245 29.72C57.3383 30.44 56.205 31.0267 54.845 31.48C53.5117 31.9333 52.2317 32.16 51.005 32.16C48.8183 32.16 46.8583 31.6933 45.125 30.76C43.3917 29.8 42.0317 28.48 41.045 26.8C40.085 25.12 39.605 23.2133 39.605 21.08C39.605 18.9467 40.0583 17.04 40.965 15.36C41.8983 13.6533 43.1783 12.3333 44.805 11.4C46.4583 10.44 48.325 9.96 50.405 9.96C52.4583 9.96 54.2317 10.4133 55.725 11.32C57.2183 12.2267 58.365 13.4933 59.165 15.12C59.965 16.7467 60.365 18.6133 60.365 20.72ZM50.405 13.4C48.4583 13.4 46.8717 13.9333 45.645 15C44.445 16.0667 43.685 17.4933 43.365 19.28H56.685C56.445 17.4933 55.7783 16.0667 54.685 15C53.5917 13.9333 52.165 13.4 50.405 13.4ZM74.7688 32C73.6221 32 72.5821 31.6933 71.6488 31.08C70.7421 30.44 70.0354 29.56 69.5288 28.44C69.0221 27.2933 68.7688 26.0133 68.7688 24.6V2.76C68.7688 2.17333 68.9554 1.69333 69.3288 1.32C69.7021 0.946666 70.1821 0.759999 70.7688 0.759999C71.3554 0.759999 71.8354 0.946666 72.2088 1.32C72.5821 1.69333 72.7688 2.17333 72.7688 2.76V24.6C72.7688 25.5867 72.9554 26.4 73.3288 27.04C73.7021 27.68 74.1821 28 74.7688 28H75.7688C76.3021 28 76.7288 28.1867 77.0488 28.56C77.3954 28.9333 77.5688 29.4133 77.5688 30C77.5688 30.5867 77.3154 31.0667 76.8088 31.44C76.3021 31.8133 75.6488 32 74.8488 32H74.7688ZM94.27 32.16C92.1633 32.16 90.27 31.68 88.59 30.72C86.91 29.76 85.59 28.44 84.63 26.76C83.6967 25.0533 83.23 23.16 83.23 21.08C83.23 18.9467 83.6833 17.04 84.59 15.36C85.5233 13.6533 86.8167 12.3333 88.47 11.4C90.1233 10.44 91.99 9.96 94.07 9.96C97.2167 9.96 99.83 11.16 101.91 13.56C102.177 13.8533 102.31 14.2 102.31 14.6C102.31 15.1867 102.017 15.68 101.43 16.08C101.163 16.2667 100.857 16.36 100.51 16.36C99.8967 16.36 99.3767 16.12 98.95 15.64C98.2833 14.92 97.55 14.4 96.75 14.08C95.9767 13.7333 95.0833 13.56 94.07 13.56C92.0167 13.56 90.35 14.2533 89.07 15.64C87.79 17 87.15 18.8133 87.15 21.08C87.15 22.52 87.4433 23.8133 88.03 24.96C88.6433 26.08 89.4833 26.96 90.55 27.6C91.6433 28.24 92.8833 28.56 94.27 28.56C96.0833 28.56 97.55 28.0933 98.67 27.16C99.1767 26.7867 99.67 26.6 100.15 26.6C100.523 26.6 100.87 26.72 101.19 26.96C101.697 27.3867 101.95 27.8667 101.95 28.4C101.95 28.8 101.79 29.16 101.47 29.48C99.55 31.2667 97.15 32.16 94.27 32.16ZM122.293 32.16C120.16 32.16 118.253 31.6933 116.573 30.76C114.893 29.8 113.587 28.48 112.653 26.8C111.72 25.12 111.253 23.2133 111.253 21.08C111.253 18.92 111.72 17 112.653 15.32C113.587 13.64 114.893 12.3333 116.573 11.4C118.253 10.44 120.16 9.96 122.293 9.96C124.4 9.96 126.28 10.44 127.933 11.4C129.613 12.3333 130.92 13.64 131.853 15.32C132.813 17 133.293 18.92 133.293 21.08C133.293 23.2133 132.827 25.12 131.893 26.8C130.96 28.48 129.653 29.8 127.973 30.76C126.32 31.6933 124.427 32.16 122.293 32.16ZM122.293 28.56C123.653 28.56 124.867 28.24 125.933 27.6C127.027 26.96 127.867 26.08 128.453 24.96C129.067 23.8133 129.373 22.52 129.373 21.08C129.373 19.64 129.067 18.3467 128.453 17.2C127.867 16.0533 127.027 15.16 125.933 14.52C124.867 13.88 123.653 13.56 122.293 13.56C120.933 13.56 119.707 13.88 118.613 14.52C117.547 15.16 116.707 16.0533 116.093 17.2C115.48 18.3467 115.173 19.64 115.173 21.08C115.173 22.52 115.48 23.8133 116.093 24.96C116.707 26.08 117.547 26.96 118.613 27.6C119.707 28.24 120.933 28.56 122.293 28.56ZM166.366 9.92C168.686 9.92 170.552 10.68 171.966 12.2C173.406 13.72 174.126 15.84 174.126 18.56V30C174.126 30.5867 173.939 31.08 173.566 31.48C173.192 31.8533 172.699 32.04 172.086 32.04C171.499 32.04 171.006 31.8533 170.606 31.48C170.232 31.08 170.046 30.5867 170.046 30V18.56C170.046 16.9333 169.632 15.7067 168.806 14.88C168.006 14.0267 166.926 13.6 165.566 13.6C164.179 13.6 163.032 14.08 162.126 15.04C161.246 16 160.806 17.2267 160.806 18.72V30C160.806 30.5867 160.619 31.08 160.246 31.48C159.872 31.8533 159.379 32.04 158.766 32.04C158.179 32.04 157.686 31.8533 157.286 31.48C156.912 31.08 156.726 30.5867 156.726 30V18.56C156.726 16.9333 156.312 15.7067 155.486 14.88C154.686 14.0267 153.606 13.6 152.246 13.6C150.832 13.6 149.672 14.08 148.766 15.04C147.886 16 147.446 17.2267 147.446 18.72V30C147.446 30.5867 147.259 31.08 146.886 31.48C146.512 31.8533 146.019 32.04 145.406 32.04C144.819 32.04 144.326 31.8533 143.926 31.48C143.552 31.08 143.366 30.5867 143.366 30V12.2C143.366 11.5867 143.552 11.0933 143.926 10.72C144.326 10.3467 144.819 10.16 145.406 10.16C145.992 10.16 146.472 10.3467 146.846 10.72C147.219 11.0667 147.419 11.5333 147.446 12.12C148.139 11.4267 148.966 10.8933 149.926 10.52C150.886 10.12 151.926 9.92 153.046 9.92C154.406 9.92 155.619 10.2 156.686 10.76C157.779 11.2933 158.672 12.0667 159.366 13.08C160.166 12.0933 161.166 11.32 162.366 10.76C163.566 10.2 164.899 9.92 166.366 9.92ZM204.545 20.72C204.545 21.2267 204.371 21.6533 204.025 22C203.678 22.32 203.238 22.48 202.705 22.48H187.505C187.798 24.3467 188.638 25.8533 190.025 27C191.438 28.1467 193.158 28.72 195.185 28.72C195.985 28.72 196.811 28.5733 197.665 28.28C198.545 27.9867 199.265 27.6267 199.825 27.2C200.198 26.9067 200.638 26.76 201.145 26.76C201.651 26.76 202.051 26.8933 202.345 27.16C202.825 27.56 203.065 28.0133 203.065 28.52C203.065 29 202.851 29.4 202.425 29.72C201.518 30.44 200.385 31.0267 199.025 31.48C197.691 31.9333 196.411 32.16 195.185 32.16C192.998 32.16 191.038 31.6933 189.305 30.76C187.571 29.8 186.211 28.48 185.225 26.8C184.265 25.12 183.785 23.2133 183.785 21.08C183.785 18.9467 184.238 17.04 185.145 15.36C186.078 13.6533 187.358 12.3333 188.985 11.4C190.638 10.44 192.505 9.96 194.585 9.96C196.638 9.96 198.411 10.4133 199.905 11.32C201.398 12.2267 202.545 13.4933 203.345 15.12C204.145 16.7467 204.545 18.6133 204.545 20.72ZM194.585 13.4C192.638 13.4 191.051 13.9333 189.825 15C188.625 16.0667 187.865 17.4933 187.545 19.28H200.865C200.625 17.4933 199.958 16.0667 198.865 15C197.771 13.9333 196.345 13.4 194.585 13.4ZM238.787 28C239.267 28 239.667 28.1867 239.987 28.56C240.334 28.9333 240.507 29.4133 240.507 30C240.507 30.5867 240.281 31.0667 239.827 31.44C239.401 31.8133 238.841 32 238.147 32H237.427C236.121 32 234.921 31.6667 233.827 31C232.761 30.3067 231.921 29.3733 231.307 28.2C230.694 27.0267 230.387 25.7067 230.387 24.24V14.36H228.547C227.987 14.36 227.534 14.2 227.187 13.88C226.841 13.56 226.667 13.16 226.667 12.68C226.667 12.1467 226.841 11.72 227.187 11.4C227.534 11.08 227.987 10.92 228.547 10.92H230.387V5.16C230.387 4.57333 230.574 4.09333 230.947 3.72C231.321 3.34667 231.801 3.16 232.387 3.16C232.974 3.16 233.454 3.34667 233.827 3.72C234.201 4.09333 234.387 4.57333 234.387 5.16V10.92H237.787C238.347 10.92 238.801 11.08 239.147 11.4C239.494 11.72 239.667 12.1467 239.667 12.68C239.667 13.16 239.494 13.56 239.147 13.88C238.801 14.2 238.347 14.36 237.787 14.36H234.387V24.24C234.387 25.3067 234.681 26.2 235.267 26.92C235.854 27.64 236.574 28 237.427 28H238.787ZM259.442 32.16C257.309 32.16 255.402 31.6933 253.722 30.76C252.042 29.8 250.735 28.48 249.802 26.8C248.869 25.12 248.402 23.2133 248.402 21.08C248.402 18.92 248.869 17 249.802 15.32C250.735 13.64 252.042 12.3333 253.722 11.4C255.402 10.44 257.309 9.96 259.442 9.96C261.549 9.96 263.429 10.44 265.082 11.4C266.762 12.3333 268.069 13.64 269.002 15.32C269.962 17 270.442 18.92 270.442 21.08C270.442 23.2133 269.975 25.12 269.042 26.8C268.109 28.48 266.802 29.8 265.122 30.76C263.469 31.6933 261.575 32.16 259.442 32.16ZM259.442 28.56C260.802 28.56 262.015 28.24 263.082 27.6C264.175 26.96 265.015 26.08 265.602 24.96C266.215 23.8133 266.522 22.52 266.522 21.08C266.522 19.64 266.215 18.3467 265.602 17.2C265.015 16.0533 264.175 15.16 263.082 14.52C262.015 13.88 260.802 13.56 259.442 13.56C258.082 13.56 256.855 13.88 255.762 14.52C254.695 15.16 253.855 16.0533 253.242 17.2C252.629 18.3467 252.322 19.64 252.322 21.08C252.322 22.52 252.629 23.8133 253.242 24.96C253.855 26.08 254.695 26.96 255.762 27.6C256.855 28.24 258.082 28.56 259.442 28.56ZM306.553 32.4C303.966 32.4 301.606 31.8133 299.473 30.64C297.366 29.4667 295.913 27.9333 295.113 26.04C294.979 25.72 294.913 25.4533 294.913 25.24C294.913 24.84 295.059 24.4933 295.353 24.2C295.646 23.88 296.046 23.6667 296.553 23.56C296.633 23.5333 296.766 23.52 296.953 23.52C297.379 23.52 297.779 23.6533 298.153 23.92C298.553 24.16 298.846 24.4933 299.033 24.92C299.513 25.96 300.459 26.84 301.873 27.56C303.286 28.28 304.846 28.64 306.553 28.64C308.553 28.64 310.246 28.1867 311.633 27.28C313.019 26.3467 313.713 25.08 313.713 23.48C313.713 21.96 313.126 20.6667 311.953 19.6C310.779 18.5067 308.993 17.84 306.593 17.6C303.286 17.28 300.686 16.32 298.793 14.72C296.899 13.0933 295.953 11.0667 295.953 8.64C295.953 6.93333 296.433 5.46667 297.393 4.24C298.379 2.98667 299.713 2.04 301.393 1.4C303.099 0.733332 305.006 0.399999 307.113 0.399999C309.406 0.399999 311.339 0.866665 312.913 1.8C314.486 2.73333 315.819 4.06667 316.913 5.8C317.233 6.30667 317.393 6.78667 317.393 7.24C317.393 7.82667 317.126 8.30667 316.593 8.68C316.299 8.86667 315.953 8.96 315.553 8.96C315.153 8.96 314.779 8.86667 314.433 8.68C314.086 8.46667 313.819 8.18667 313.633 7.84C312.913 6.64 312.006 5.73333 310.913 5.12C309.846 4.48 308.486 4.16 306.833 4.16C304.806 4.16 303.166 4.56 301.913 5.36C300.659 6.13333 300.033 7.26667 300.033 8.76C300.033 10.1467 300.593 11.3067 301.713 12.24C302.833 13.1733 304.833 13.7867 307.713 14.08C310.913 14.4 313.393 15.3733 315.153 17C316.913 18.6 317.793 20.72 317.793 23.36C317.793 25.28 317.273 26.9333 316.233 28.32C315.193 29.68 313.806 30.7067 312.073 31.4C310.366 32.0667 308.526 32.4 306.553 32.4ZM338.652 9.92C340.492 9.92 342.145 10.32 343.612 11.12C345.079 11.92 346.225 13.0933 347.052 14.64C347.879 16.16 348.292 18 348.292 20.16V30C348.292 30.5867 348.092 31.08 347.692 31.48C347.319 31.8533 346.839 32.04 346.252 32.04C345.665 32.04 345.172 31.8533 344.772 31.48C344.399 31.08 344.212 30.5867 344.212 30V20.16C344.212 18 343.625 16.3733 342.452 15.28C341.305 14.16 339.772 13.6 337.852 13.6C336.732 13.6 335.705 13.8267 334.772 14.28C333.865 14.7333 333.145 15.3467 332.612 16.12C332.105 16.8933 331.852 17.76 331.852 18.72V30C331.852 30.5867 331.665 31.08 331.292 31.48C330.919 31.8533 330.425 32.04 329.812 32.04C329.225 32.04 328.732 31.8533 328.332 31.48C327.959 31.08 327.772 30.5867 327.772 30V12.16C327.772 11.5467 327.959 11.0533 328.332 10.68C328.732 10.3067 329.225 10.12 329.812 10.12C330.425 10.12 330.919 10.3067 331.292 10.68C331.665 11.0533 331.852 11.5467 331.852 12.16V12.6C332.705 11.7467 333.719 11.0933 334.892 10.64C336.065 10.16 337.319 9.92 338.652 9.92ZM361.478 32C360.891 32 360.398 31.8133 359.998 31.44C359.624 31.04 359.438 30.5467 359.438 29.96V12.16C359.438 11.5467 359.624 11.0533 359.998 10.68C360.398 10.3067 360.891 10.12 361.478 10.12C362.091 10.12 362.584 10.3067 362.958 10.68C363.331 11.0533 363.518 11.5467 363.518 12.16V29.96C363.518 30.5467 363.331 31.04 362.958 31.44C362.584 31.8133 362.091 32 361.478 32ZM361.478 6.56C360.758 6.56 360.131 6.30667 359.598 5.8C359.091 5.26667 358.838 4.64 358.838 3.92C358.838 3.2 359.091 2.58667 359.598 2.08C360.131 1.54667 360.758 1.28 361.478 1.28C362.198 1.28 362.811 1.54667 363.318 2.08C363.851 2.58667 364.118 3.2 364.118 3.92C364.118 4.64 363.851 5.26667 363.318 5.8C362.811 6.30667 362.198 6.56 361.478 6.56ZM386.108 9.96C388.161 9.96 390.028 10.4533 391.708 11.44C393.414 12.4 394.748 13.7333 395.708 15.44C396.668 17.12 397.148 19 397.148 21.08C397.148 23.16 396.694 25.0533 395.788 26.76C394.908 28.44 393.681 29.76 392.108 30.72C390.561 31.68 388.828 32.16 386.908 32.16C385.361 32.16 383.921 31.84 382.588 31.2C381.254 30.56 380.121 29.6667 379.188 28.52V39.32C379.188 39.9333 379.001 40.4267 378.628 40.8C378.254 41.1733 377.761 41.36 377.148 41.36C376.561 41.36 376.068 41.1733 375.668 40.8C375.294 40.4267 375.108 39.9333 375.108 39.32V21.08C375.108 19 375.588 17.12 376.548 15.44C377.534 13.7333 378.854 12.4 380.508 11.44C382.188 10.4533 384.054 9.96 386.108 9.96ZM386.108 28.56C387.441 28.56 388.641 28.24 389.708 27.6C390.801 26.9333 391.654 26.04 392.268 24.92C392.908 23.7733 393.228 22.4933 393.228 21.08C393.228 19.6667 392.908 18.3867 392.268 17.24C391.654 16.0933 390.801 15.2 389.708 14.56C388.641 13.8933 387.441 13.56 386.108 13.56C384.774 13.56 383.561 13.8933 382.468 14.56C381.401 15.2 380.561 16.0933 379.948 17.24C379.334 18.3867 379.028 19.6667 379.028 21.08C379.028 22.4933 379.334 23.7733 379.948 24.92C380.561 26.04 381.401 26.9333 382.468 27.6C383.561 28.24 384.774 28.56 386.108 28.56ZM418.233 9.96C420.286 9.96 422.153 10.4533 423.833 11.44C425.539 12.4 426.873 13.7333 427.833 15.44C428.793 17.12 429.273 19 429.273 21.08C429.273 23.16 428.819 25.0533 427.913 26.76C427.033 28.44 425.806 29.76 424.233 30.72C422.686 31.68 420.953 32.16 419.033 32.16C417.486 32.16 416.046 31.84 414.713 31.2C413.379 30.56 412.246 29.6667 411.313 28.52V39.32C411.313 39.9333 411.126 40.4267 410.753 40.8C410.379 41.1733 409.886 41.36 409.273 41.36C408.686 41.36 408.193 41.1733 407.793 40.8C407.419 40.4267 407.233 39.9333 407.233 39.32V21.08C407.233 19 407.713 17.12 408.673 15.44C409.659 13.7333 410.979 12.4 412.633 11.44C414.313 10.4533 416.179 9.96 418.233 9.96ZM418.233 28.56C419.566 28.56 420.766 28.24 421.833 27.6C422.926 26.9333 423.779 26.04 424.393 24.92C425.033 23.7733 425.353 22.4933 425.353 21.08C425.353 19.6667 425.033 18.3867 424.393 17.24C423.779 16.0933 422.926 15.2 421.833 14.56C420.766 13.8933 419.566 13.56 418.233 13.56C416.899 13.56 415.686 13.8933 414.593 14.56C413.526 15.2 412.686 16.0933 412.073 17.24C411.459 18.3867 411.153 19.6667 411.153 21.08C411.153 22.4933 411.459 23.7733 412.073 24.92C412.686 26.04 413.526 26.9333 414.593 27.6C415.686 28.24 416.899 28.56 418.233 28.56ZM458.998 20.72C458.998 21.2267 458.824 21.6533 458.478 22C458.131 22.32 457.691 22.48 457.158 22.48H441.958C442.251 24.3467 443.091 25.8533 444.478 27C445.891 28.1467 447.611 28.72 449.638 28.72C450.438 28.72 451.264 28.5733 452.118 28.28C452.998 27.9867 453.718 27.6267 454.278 27.2C454.651 26.9067 455.091 26.76 455.598 26.76C456.104 26.76 456.504 26.8933 456.798 27.16C457.278 27.56 457.518 28.0133 457.518 28.52C457.518 29 457.304 29.4 456.878 29.72C455.971 30.44 454.838 31.0267 453.478 31.48C452.144 31.9333 450.864 32.16 449.638 32.16C447.451 32.16 445.491 31.6933 443.758 30.76C442.024 29.8 440.664 28.48 439.678 26.8C438.718 25.12 438.238 23.2133 438.238 21.08C438.238 18.9467 438.691 17.04 439.598 15.36C440.531 13.6533 441.811 12.3333 443.438 11.4C445.091 10.44 446.958 9.96 449.038 9.96C451.091 9.96 452.864 10.4133 454.358 11.32C455.851 12.2267 456.998 13.4933 457.798 15.12C458.598 16.7467 458.998 18.6133 458.998 20.72ZM449.038 13.4C447.091 13.4 445.504 13.9333 444.278 15C443.078 16.0667 442.318 17.4933 441.998 19.28H455.318C455.078 17.4933 454.411 16.0667 453.318 15C452.224 13.9333 450.798 13.4 449.038 13.4ZM477.522 28C478.002 28 478.402 28.1867 478.722 28.56C479.068 28.9333 479.242 29.4133 479.242 30C479.242 30.5867 479.015 31.0667 478.562 31.44C478.135 31.8133 477.575 32 476.882 32H476.162C474.855 32 473.655 31.6667 472.562 31C471.495 30.3067 470.655 29.3733 470.042 28.2C469.428 27.0267 469.122 25.7067 469.122 24.24V14.36H467.282C466.722 14.36 466.268 14.2 465.922 13.88C465.575 13.56 465.402 13.16 465.402 12.68C465.402 12.1467 465.575 11.72 465.922 11.4C466.268 11.08 466.722 10.92 467.282 10.92H469.122V5.16C469.122 4.57333 469.308 4.09333 469.682 3.72C470.055 3.34667 470.535 3.16 471.122 3.16C471.708 3.16 472.188 3.34667 472.562 3.72C472.935 4.09333 473.122 4.57333 473.122 5.16V10.92H476.522C477.082 10.92 477.535 11.08 477.882 11.4C478.228 11.72 478.402 12.1467 478.402 12.68C478.402 13.16 478.228 13.56 477.882 13.88C477.535 14.2 477.082 14.36 476.522 14.36H473.122V24.24C473.122 25.3067 473.415 26.2 474.002 26.92C474.588 27.64 475.308 28 476.162 28H477.522Z" fill="url(#paint0_linear)"/>
<defs>
<linearGradient id="paint0_linear" x1="-2.17683e-06" y1="-1.25704" x2="89.4009" y2="208.725" gradientUnits="userSpaceOnUse">
<stop stop-color="#632FDE"/>
<stop offset="0.0465075" stop-color="#8451B4"/>
<stop offset="0.144441" stop-color="#A87687"/>
<stop offset="0.462233" stop-color="#E2B33D"/>
<stop offset="0.784198" stop-color="#DF9C3D"/>
<stop offset="0.870785" stop-color="#DB7E3D"/>
<stop offset="1" stop-color="#CF263C"/>
</linearGradient>
</defs>
</svg>
