<svg width="160" height="37" viewBox="0 0 160 37" fill="none" xmlns="http://www.w3.org/2000/svg">
<path d="M15 4C6.72916 4 0 10.7292 0 19C0 27.2708 6.72916 34 15 34C23.2708 34 30 27.2708 30 19C30 10.7292 23.2709 4 15 4ZM15 31.3913C8.16782 31.3913 2.60866 25.8322 2.60866 19C2.60866 12.1678 8.16782 6.60872 15 6.60872C21.8322 6.60872 27.3913 12.1678 27.3913 19C27.3913 25.8322 21.8322 31.3913 15 31.3913Z" fill="url(#paint0_linear)"/>
<path d="M21.1459 12.2669C20.968 12.0877 20.6993 12.0361 20.4697 12.1368L11.8795 15.8185C11.7347 15.8798 11.6193 15.9964 11.5567 16.1412L7.8752 24.7318C7.7758 24.9625 7.82734 25.23 8.00527 25.408C8.12308 25.5233 8.28017 25.5859 8.43969 25.5859C8.52068 25.5859 8.60288 25.5687 8.68146 25.5369L17.2717 21.8552C17.4165 21.7926 17.5319 21.6773 17.5945 21.5324L21.276 12.9419C21.3742 12.7111 21.3227 12.4436 21.1459 12.2669ZM14.5756 20.0634C13.8994 20.0634 13.3484 19.5124 13.3484 18.8362C13.3484 18.16 13.8995 17.609 14.5756 17.609C15.2518 17.609 15.8028 18.1601 15.8028 18.8362C15.8028 19.5124 15.2518 20.0634 14.5756 20.0634Z" fill="url(#paint1_linear)"/>
<path d="M47.9844 18.1719C46.3698 17.6406 45.0729 16.8854 44.0938 15.9062C43.1146 14.9271 42.625 13.7448 42.625 12.3594C42.625 11.0052 43.1302 9.81771 44.1406 8.79688C45.1615 7.76562 46.4271 7.25 47.9375 7.25C49.4271 7.25 50.7031 7.77604 51.7656 8.82812C52.3177 9.36979 52.75 10.1302 53.0625 11.1094L50.5312 12.0938C50.2188 11.25 49.9375 10.7031 49.6875 10.4531C49.1771 9.93229 48.5938 9.67188 47.9375 9.67188C47.2917 9.67188 46.7135 9.92708 46.2031 10.4375C45.7031 10.9375 45.4531 11.5781 45.4531 12.3594C45.4531 13.1302 45.7135 13.7865 46.2344 14.3281C46.776 14.849 47.5156 15.3281 48.4531 15.7656C50.2448 16.349 51.7448 17.2448 52.9531 18.4531C54.3385 19.8281 55.0312 21.4531 55.0312 23.3281C55.0312 25.2031 54.3438 26.8281 52.9688 28.2031C51.6042 29.5677 49.9271 30.25 47.9375 30.25C45.9375 30.25 44.2448 29.5469 42.8594 28.1406C41.776 27.0677 41.1094 25.6771 40.8594 23.9688L43.5781 22.9844C43.7448 24.6198 44.2083 25.8125 44.9688 26.5625C45.8021 27.3958 46.7917 27.8125 47.9375 27.8125C49.0938 27.8125 50.099 27.3854 50.9531 26.5312C51.8177 25.6667 52.25 24.599 52.25 23.3281C52.25 22.0573 51.8281 21 50.9844 20.1562C50.1302 19.3125 49.1302 18.651 47.9844 18.1719ZM62.2625 15.7188V10.1719H65.075V15.7188H67.7313V18.1562H65.075V30H62.2625V18.1562H59.6063V15.7188H62.2625ZM76.0719 15.7188V30H73.2594V15.7188H76.0719ZM74.6812 11.0938C75.2542 11.0938 75.7281 11.2812 76.1031 11.6562C76.4885 12.0208 76.6812 12.4323 76.6812 12.8906C76.6812 13.3698 76.4885 13.7969 76.1031 14.1719C75.7281 14.5365 75.2542 14.7188 74.6812 14.7188C74.0875 14.7188 73.6031 14.5365 73.2281 14.1719C72.8531 13.7969 72.6656 13.3698 72.6656 12.8906C72.6656 12.4323 72.8531 12.0208 73.2281 11.6562C73.6031 11.2812 74.0875 11.0938 74.6812 11.0938ZM94.4125 25.4375L97.1 26.4219C96.5687 27.1406 96.1469 27.6615 95.8344 27.9844C94.251 29.5781 92.3187 30.375 90.0375 30.375C87.7771 30.375 85.8604 29.5938 84.2875 28.0312C82.725 26.4583 81.9437 24.599 81.9437 22.4531C81.9437 20.3073 82.725 18.4531 84.2875 16.8906C85.8604 15.3281 87.7771 14.5469 90.0375 14.5469C92.3187 14.5469 94.2302 15.3177 95.7719 16.8594C96.126 17.2135 96.5687 17.75 97.1 18.4688L94.4125 19.4688C94.0375 19 93.7823 18.6927 93.6469 18.5469C92.6365 17.5469 91.4333 17.0469 90.0375 17.0469C88.6417 17.0469 87.4281 17.5677 86.3969 18.6094C85.3656 19.6406 84.85 20.9219 84.85 22.4531C84.85 23.974 85.3656 25.2552 86.3969 26.2969C87.4281 27.3281 88.6417 27.8438 90.0375 27.8438C91.4333 27.8438 92.6573 27.3177 93.7094 26.2656C93.8031 26.1719 94.0375 25.8958 94.4125 25.4375ZM111.269 15.7188L107.519 20.375L112.956 30H109.722L105.691 22.625L105.487 22.8906V30H102.659V10.1719H105.487V18.625L107.847 15.7188H111.269ZM119.578 19.9531H128.938C128.271 18.0156 126.719 17.0469 124.281 17.0469C121.833 17.0469 120.266 18.0156 119.578 19.9531ZM119.078 22.4219V22.4688C119.078 23.9896 119.594 25.2656 120.625 26.2969C121.656 27.3281 122.875 27.8438 124.281 27.8438C125.677 27.8438 126.901 27.3177 127.953 26.2656C128.099 26.1198 128.38 25.7917 128.797 25.2812L131.453 26.2188C131.057 26.8854 130.599 27.474 130.078 27.9844C128.495 29.5781 126.562 30.375 124.281 30.375C122.021 30.375 120.104 29.5938 118.531 28.0312C116.969 26.4583 116.188 24.6042 116.188 22.4688C116.188 20.3125 116.969 18.4531 118.531 16.8906C120.104 15.3281 122.021 14.5469 124.281 14.5469C126.562 14.5469 128.495 15.3385 130.078 16.9219C131.443 18.2969 132.125 20.1302 132.125 22.4219H119.078ZM143.981 17.8438C142.69 18.0417 141.69 18.5573 140.981 19.3906C140.273 20.2135 139.919 21.25 139.919 22.5V30H137.091V15.7188H139.919V17.75C140.335 16.6354 141.231 15.8594 142.606 15.4219L143.981 17.8438ZM153.213 22.875C152.15 22.2917 151.421 21.8021 151.025 21.4062C150.254 20.6354 149.869 19.75 149.869 18.75C149.869 17.7604 150.244 16.8854 150.994 16.125C151.744 15.3646 152.681 14.9844 153.806 14.9844C154.931 14.9844 155.838 15.3333 156.525 16.0312C157.233 16.7396 157.588 17.5156 157.588 18.3594V18.7969L155.056 19.8281C154.9 18.651 154.718 17.9583 154.509 17.75C154.311 17.5417 154.077 17.4375 153.806 17.4375C153.535 17.4375 153.28 17.5573 153.041 17.7969C152.801 18.0365 152.681 18.3542 152.681 18.75C152.681 19.1458 152.817 19.4792 153.088 19.75C153.265 19.9375 153.676 20.2344 154.322 20.6406C155.499 21.2865 156.358 21.875 156.9 22.4062C157.754 23.2812 158.181 24.3125 158.181 25.5C158.181 26.7188 157.739 27.776 156.853 28.6719C155.968 29.5677 154.858 30.0156 153.525 30.0156C152.192 30.0156 151.077 29.5677 150.181 28.6719C149.296 27.776 148.853 26.6562 148.853 25.3125L151.666 24.6094C151.666 25.8177 151.858 26.6146 152.244 27C152.629 27.3854 153.056 27.5781 153.525 27.5781C153.994 27.5781 154.421 27.3854 154.806 27C155.202 26.6146 155.4 26.1146 155.4 25.5C155.4 24.9062 155.192 24.4062 154.775 24C154.525 23.7604 154.004 23.3854 153.213 22.875Z" fill="#E2B33D"/>
<defs>
<linearGradient id="paint0_linear" x1="-1.35769e-07" y1="5.16197" x2="34.6631" y2="12.7788" gradientUnits="userSpaceOnUse">
<stop stop-color="#632FDE"/>
<stop offset="0.0465075" stop-color="#8451B4"/>
<stop offset="0.144441" stop-color="#A87687"/>
<stop offset="0.462233" stop-color="#E2B33D"/>
<stop offset="0.784198" stop-color="#DF9C3D"/>
<stop offset="0.870785" stop-color="#DB7E3D"/>
<stop offset="1" stop-color="#CF263C"/>
</linearGradient>
<linearGradient id="paint1_linear" x1="7.8252" y1="12.6088" x2="23.4236" y2="16.0364" gradientUnits="userSpaceOnUse">
<stop stop-color="#632FDE"/>
<stop offset="0.0465075" stop-color="#8451B4"/>
<stop offset="0.144441" stop-color="#A87687"/>
<stop offset="0.462233" stop-color="#E2B33D"/>
<stop offset="0.784198" stop-color="#DF9C3D"/>
<stop offset="0.870785" stop-color="#DB7E3D"/>
<stop offset="1" stop-color="#CF263C"/>
</linearGradient>
</defs>
</svg>
