<svg width="444" height="42" viewBox="0 0 444 42" fill="none" xmlns="http://www.w3.org/2000/svg">
<path d="M35.48 0.759999C36.0133 0.759999 36.4133 0.919999 36.68 1.24C36.9467 1.56 37.08 1.98667 37.08 2.52C37.08 2.92 37.0267 3.29333 36.92 3.64L28.88 30.32C28.6933 30.8267 28.4133 31.24 28.04 31.56C27.6933 31.8533 27.28 32 26.8 32C26.32 32 25.8933 31.8533 25.52 31.56C25.1467 31.24 24.88 30.84 24.72 30.36L18.76 7.32L12.72 30.32C12.5333 30.8267 12.2533 31.24 11.88 31.56C11.5333 31.8533 11.12 32 10.64 32C10.16 32 9.73333 31.8533 9.36 31.56C8.98667 31.2667 8.72 30.8667 8.56 30.36L0.52 3.64C0.413333 3.29333 0.36 2.93333 0.36 2.56C0.36 2 0.506667 1.56 0.8 1.24C1.12 0.919999 1.54667 0.759999 2.08 0.759999C2.56 0.759999 2.97333 0.893332 3.32 1.16C3.69333 1.42667 3.96 1.81333 4.12 2.32L10.68 25.12L16.72 2.56C16.8267 2.16 17.0667 1.82666 17.44 1.56C17.8133 1.29333 18.24 1.16 18.72 1.16C19.1733 1.16 19.5867 1.28 19.96 1.52C20.3333 1.76 20.5733 2.09333 20.68 2.52L26.8 25.28L33.44 2.12C33.5733 1.64 33.8 1.29333 34.12 1.08C34.4667 0.866665 34.92 0.759999 35.48 0.759999ZM56.0191 9.92C57.8591 9.92 59.5124 10.32 60.9791 11.12C62.4457 11.92 63.5924 13.0933 64.4191 14.64C65.2457 16.16 65.6591 18 65.6591 20.16V30C65.6591 30.5867 65.4591 31.08 65.0591 31.48C64.6857 31.8533 64.2057 32.04 63.6191 32.04C63.0324 32.04 62.5391 31.8533 62.1391 31.48C61.7657 31.08 61.5791 30.5867 61.5791 30V20.16C61.5791 18 60.9924 16.3733 59.8191 15.28C58.6724 14.16 57.1391 13.6 55.2191 13.6C54.0991 13.6 53.0724 13.8267 52.1391 14.28C51.2324 14.7333 50.5124 15.3467 49.9791 16.12C49.4724 16.8933 49.2191 17.76 49.2191 18.72V30C49.2191 30.5867 49.0324 31.08 48.6591 31.48C48.2857 31.8533 47.7924 32.04 47.1791 32.04C46.5924 32.04 46.0991 31.8533 45.6991 31.48C45.3257 31.08 45.1391 30.5867 45.1391 30V2.8C45.1391 2.18667 45.3257 1.69333 45.6991 1.32C46.0991 0.946666 46.5924 0.759999 47.1791 0.759999C47.7924 0.759999 48.2857 0.946666 48.6591 1.32C49.0324 1.69333 49.2191 2.18667 49.2191 2.8V12.6C50.0724 11.7467 51.0857 11.0933 52.2591 10.64C53.4324 10.16 54.6857 9.92 56.0191 9.92ZM93.1638 10.32C93.9904 10.64 94.4038 11.16 94.4038 11.88C94.4038 12.1467 94.3238 12.4667 94.1638 12.84L81.9238 40.36C81.6038 41.1867 81.0838 41.6 80.3638 41.6C80.0971 41.6 79.7771 41.52 79.4038 41.36C78.6038 41.0133 78.2038 40.4933 78.2038 39.8C78.2038 39.48 78.2838 39.16 78.4438 38.84L82.4438 29.84L73.4438 12.76C73.3104 12.52 73.2438 12.24 73.2438 11.92C73.2438 11.5733 73.3504 11.2533 73.5638 10.96C73.7771 10.6667 74.0571 10.44 74.4038 10.28C74.6438 10.1733 74.9104 10.12 75.2038 10.12C75.9504 10.12 76.5104 10.4933 76.8838 11.24L84.2038 25.8L90.6438 11.28C90.9904 10.5067 91.5104 10.12 92.2038 10.12C92.5504 10.12 92.8704 10.1867 93.1638 10.32ZM135.765 10.08C136.378 10.08 136.872 10.2667 137.245 10.64C137.618 11.0133 137.805 11.5067 137.805 12.12V29.96C137.805 30.5467 137.618 31.04 137.245 31.44C136.872 31.8133 136.378 32 135.765 32C135.178 32 134.685 31.8133 134.285 31.44C133.912 31.04 133.725 30.5467 133.725 29.96V29.52C132.872 30.3733 131.858 31.04 130.685 31.52C129.512 31.9733 128.258 32.2 126.925 32.2C125.085 32.2 123.432 31.8 121.965 31C120.498 30.2 119.352 29.04 118.525 27.52C117.698 25.9733 117.285 24.12 117.285 21.96V12.12C117.285 11.5333 117.472 11.0533 117.845 10.68C118.245 10.28 118.738 10.08 119.325 10.08C119.912 10.08 120.392 10.28 120.765 10.68C121.165 11.0533 121.365 11.5333 121.365 12.12V21.96C121.365 24.12 121.938 25.76 123.085 26.88C124.258 27.9733 125.805 28.52 127.725 28.52C128.845 28.52 129.858 28.2933 130.765 27.84C131.698 27.3867 132.418 26.7733 132.925 26C133.458 25.2267 133.725 24.36 133.725 23.4V12.12C133.725 11.5067 133.912 11.0133 134.285 10.64C134.685 10.2667 135.178 10.08 135.765 10.08ZM156.951 32.16C155.137 32.16 153.431 31.88 151.831 31.32C150.231 30.76 148.977 30.0267 148.071 29.12C147.724 28.7733 147.551 28.36 147.551 27.88C147.551 27.24 147.817 26.72 148.351 26.32C148.857 25.9467 149.324 25.76 149.751 25.76C150.284 25.76 150.791 26 151.271 26.48C151.777 27.04 152.537 27.5333 153.551 27.96C154.564 28.36 155.644 28.56 156.791 28.56C158.311 28.56 159.484 28.3067 160.311 27.8C161.164 27.2933 161.591 26.6133 161.591 25.76C161.591 24.9333 161.177 24.2533 160.351 23.72C159.524 23.16 158.124 22.6933 156.151 22.32C151.031 21.3333 148.471 19.2267 148.471 16C148.471 14.6933 148.857 13.5867 149.631 12.68C150.404 11.7733 151.417 11.0933 152.671 10.64C153.924 10.1867 155.257 9.96 156.671 9.96C158.404 9.96 159.951 10.24 161.311 10.8C162.697 11.36 163.791 12.1333 164.591 13.12C164.937 13.5467 165.111 13.9733 165.111 14.4C165.111 14.8533 164.884 15.2667 164.431 15.64C164.137 15.8533 163.764 15.96 163.311 15.96C162.617 15.96 161.991 15.7067 161.431 15.2C160.764 14.5867 160.057 14.16 159.311 13.92C158.564 13.6533 157.657 13.52 156.591 13.52C155.364 13.52 154.351 13.7333 153.551 14.16C152.777 14.56 152.391 15.1333 152.391 15.88C152.391 16.4133 152.524 16.8667 152.791 17.24C153.057 17.5867 153.564 17.92 154.311 18.24C155.057 18.5333 156.137 18.8267 157.551 19.12C160.457 19.7067 162.511 20.52 163.711 21.56C164.937 22.6 165.551 23.9467 165.551 25.6C165.551 26.8267 165.217 27.9467 164.551 28.96C163.884 29.9467 162.897 30.7333 161.591 31.32C160.311 31.88 158.764 32.16 156.951 32.16ZM194.349 20.72C194.349 21.2267 194.176 21.6533 193.829 22C193.483 22.32 193.043 22.48 192.509 22.48H177.309C177.603 24.3467 178.443 25.8533 179.829 27C181.243 28.1467 182.963 28.72 184.989 28.72C185.789 28.72 186.616 28.5733 187.469 28.28C188.349 27.9867 189.069 27.6267 189.629 27.2C190.003 26.9067 190.443 26.76 190.949 26.76C191.456 26.76 191.856 26.8933 192.149 27.16C192.629 27.56 192.869 28.0133 192.869 28.52C192.869 29 192.656 29.4 192.229 29.72C191.323 30.44 190.189 31.0267 188.829 31.48C187.496 31.9333 186.216 32.16 184.989 32.16C182.803 32.16 180.843 31.6933 179.109 30.76C177.376 29.8 176.016 28.48 175.029 26.8C174.069 25.12 173.589 23.2133 173.589 21.08C173.589 18.9467 174.043 17.04 174.949 15.36C175.883 13.6533 177.163 12.3333 178.789 11.4C180.443 10.44 182.309 9.96 184.389 9.96C186.443 9.96 188.216 10.4133 189.709 11.32C191.203 12.2267 192.349 13.4933 193.149 15.12C193.949 16.7467 194.349 18.6133 194.349 20.72ZM184.389 13.4C182.443 13.4 180.856 13.9333 179.629 15C178.429 16.0667 177.669 17.4933 177.349 19.28H190.669C190.429 17.4933 189.763 16.0667 188.669 15C187.576 13.9333 186.149 13.4 184.389 13.4ZM229.592 32.4C227.005 32.4 224.645 31.8133 222.512 30.64C220.405 29.4667 218.952 27.9333 218.152 26.04C218.019 25.72 217.952 25.4533 217.952 25.24C217.952 24.84 218.099 24.4933 218.392 24.2C218.685 23.88 219.085 23.6667 219.592 23.56C219.672 23.5333 219.805 23.52 219.992 23.52C220.419 23.52 220.819 23.6533 221.192 23.92C221.592 24.16 221.885 24.4933 222.072 24.92C222.552 25.96 223.499 26.84 224.912 27.56C226.325 28.28 227.885 28.64 229.592 28.64C231.592 28.64 233.285 28.1867 234.672 27.28C236.059 26.3467 236.752 25.08 236.752 23.48C236.752 21.96 236.165 20.6667 234.992 19.6C233.819 18.5067 232.032 17.84 229.632 17.6C226.325 17.28 223.725 16.32 221.832 14.72C219.939 13.0933 218.992 11.0667 218.992 8.64C218.992 6.93333 219.472 5.46667 220.432 4.24C221.419 2.98667 222.752 2.04 224.432 1.4C226.139 0.733332 228.045 0.399999 230.152 0.399999C232.445 0.399999 234.379 0.866665 235.952 1.8C237.525 2.73333 238.859 4.06667 239.952 5.8C240.272 6.30667 240.432 6.78667 240.432 7.24C240.432 7.82667 240.165 8.30667 239.632 8.68C239.339 8.86667 238.992 8.96 238.592 8.96C238.192 8.96 237.819 8.86667 237.472 8.68C237.125 8.46667 236.859 8.18667 236.672 7.84C235.952 6.64 235.045 5.73333 233.952 5.12C232.885 4.48 231.525 4.16 229.872 4.16C227.845 4.16 226.205 4.56 224.952 5.36C223.699 6.13333 223.072 7.26667 223.072 8.76C223.072 10.1467 223.632 11.3067 224.752 12.24C225.872 13.1733 227.872 13.7867 230.752 14.08C233.952 14.4 236.432 15.3733 238.192 17C239.952 18.6 240.832 20.72 240.832 23.36C240.832 25.28 240.312 26.9333 239.272 28.32C238.232 29.68 236.845 30.7067 235.112 31.4C233.405 32.0667 231.565 32.4 229.592 32.4ZM261.691 9.92C263.531 9.92 265.184 10.32 266.651 11.12C268.118 11.92 269.264 13.0933 270.091 14.64C270.918 16.16 271.331 18 271.331 20.16V30C271.331 30.5867 271.131 31.08 270.731 31.48C270.358 31.8533 269.878 32.04 269.291 32.04C268.704 32.04 268.211 31.8533 267.811 31.48C267.438 31.08 267.251 30.5867 267.251 30V20.16C267.251 18 266.664 16.3733 265.491 15.28C264.344 14.16 262.811 13.6 260.891 13.6C259.771 13.6 258.744 13.8267 257.811 14.28C256.904 14.7333 256.184 15.3467 255.651 16.12C255.144 16.8933 254.891 17.76 254.891 18.72V30C254.891 30.5867 254.704 31.08 254.331 31.48C253.958 31.8533 253.464 32.04 252.851 32.04C252.264 32.04 251.771 31.8533 251.371 31.48C250.998 31.08 250.811 30.5867 250.811 30V12.16C250.811 11.5467 250.998 11.0533 251.371 10.68C251.771 10.3067 252.264 10.12 252.851 10.12C253.464 10.12 253.958 10.3067 254.331 10.68C254.704 11.0533 254.891 11.5467 254.891 12.16V12.6C255.744 11.7467 256.758 11.0933 257.931 10.64C259.104 10.16 260.358 9.92 261.691 9.92ZM284.517 32C283.93 32 283.437 31.8133 283.037 31.44C282.663 31.04 282.477 30.5467 282.477 29.96V12.16C282.477 11.5467 282.663 11.0533 283.037 10.68C283.437 10.3067 283.93 10.12 284.517 10.12C285.13 10.12 285.623 10.3067 285.997 10.68C286.37 11.0533 286.557 11.5467 286.557 12.16V29.96C286.557 30.5467 286.37 31.04 285.997 31.44C285.623 31.8133 285.13 32 284.517 32ZM284.517 6.56C283.797 6.56 283.17 6.30667 282.637 5.8C282.13 5.26667 281.877 4.64 281.877 3.92C281.877 3.2 282.13 2.58667 282.637 2.08C283.17 1.54667 283.797 1.28 284.517 1.28C285.237 1.28 285.85 1.54667 286.357 2.08C286.89 2.58667 287.157 3.2 287.157 3.92C287.157 4.64 286.89 5.26667 286.357 5.8C285.85 6.30667 285.237 6.56 284.517 6.56ZM309.147 9.96C311.2 9.96 313.067 10.4533 314.747 11.44C316.454 12.4 317.787 13.7333 318.747 15.44C319.707 17.12 320.187 19 320.187 21.08C320.187 23.16 319.734 25.0533 318.827 26.76C317.947 28.44 316.72 29.76 315.147 30.72C313.6 31.68 311.867 32.16 309.947 32.16C308.4 32.16 306.96 31.84 305.627 31.2C304.294 30.56 303.16 29.6667 302.227 28.52V39.32C302.227 39.9333 302.04 40.4267 301.667 40.8C301.294 41.1733 300.8 41.36 300.187 41.36C299.6 41.36 299.107 41.1733 298.707 40.8C298.334 40.4267 298.147 39.9333 298.147 39.32V21.08C298.147 19 298.627 17.12 299.587 15.44C300.574 13.7333 301.894 12.4 303.547 11.44C305.227 10.4533 307.094 9.96 309.147 9.96ZM309.147 28.56C310.48 28.56 311.68 28.24 312.747 27.6C313.84 26.9333 314.694 26.04 315.307 24.92C315.947 23.7733 316.267 22.4933 316.267 21.08C316.267 19.6667 315.947 18.3867 315.307 17.24C314.694 16.0933 313.84 15.2 312.747 14.56C311.68 13.8933 310.48 13.56 309.147 13.56C307.814 13.56 306.6 13.8933 305.507 14.56C304.44 15.2 303.6 16.0933 302.987 17.24C302.374 18.3867 302.067 19.6667 302.067 21.08C302.067 22.4933 302.374 23.7733 302.987 24.92C303.6 26.04 304.44 26.9333 305.507 27.6C306.6 28.24 307.814 28.56 309.147 28.56ZM341.272 9.96C343.325 9.96 345.192 10.4533 346.872 11.44C348.579 12.4 349.912 13.7333 350.872 15.44C351.832 17.12 352.312 19 352.312 21.08C352.312 23.16 351.859 25.0533 350.952 26.76C350.072 28.44 348.845 29.76 347.272 30.72C345.725 31.68 343.992 32.16 342.072 32.16C340.525 32.16 339.085 31.84 337.752 31.2C336.419 30.56 335.285 29.6667 334.352 28.52V39.32C334.352 39.9333 334.165 40.4267 333.792 40.8C333.419 41.1733 332.925 41.36 332.312 41.36C331.725 41.36 331.232 41.1733 330.832 40.8C330.459 40.4267 330.272 39.9333 330.272 39.32V21.08C330.272 19 330.752 17.12 331.712 15.44C332.699 13.7333 334.019 12.4 335.672 11.44C337.352 10.4533 339.219 9.96 341.272 9.96ZM341.272 28.56C342.605 28.56 343.805 28.24 344.872 27.6C345.965 26.9333 346.819 26.04 347.432 24.92C348.072 23.7733 348.392 22.4933 348.392 21.08C348.392 19.6667 348.072 18.3867 347.432 17.24C346.819 16.0933 345.965 15.2 344.872 14.56C343.805 13.8933 342.605 13.56 341.272 13.56C339.939 13.56 338.725 13.8933 337.632 14.56C336.565 15.2 335.725 16.0933 335.112 17.24C334.499 18.3867 334.192 19.6667 334.192 21.08C334.192 22.4933 334.499 23.7733 335.112 24.92C335.725 26.04 336.565 26.9333 337.632 27.6C338.725 28.24 339.939 28.56 341.272 28.56ZM382.037 20.72C382.037 21.2267 381.864 21.6533 381.517 22C381.17 22.32 380.73 22.48 380.197 22.48H364.997C365.29 24.3467 366.13 25.8533 367.517 27C368.93 28.1467 370.65 28.72 372.677 28.72C373.477 28.72 374.304 28.5733 375.157 28.28C376.037 27.9867 376.757 27.6267 377.317 27.2C377.69 26.9067 378.13 26.76 378.637 26.76C379.144 26.76 379.544 26.8933 379.837 27.16C380.317 27.56 380.557 28.0133 380.557 28.52C380.557 29 380.344 29.4 379.917 29.72C379.01 30.44 377.877 31.0267 376.517 31.48C375.184 31.9333 373.904 32.16 372.677 32.16C370.49 32.16 368.53 31.6933 366.797 30.76C365.064 29.8 363.704 28.48 362.717 26.8C361.757 25.12 361.277 23.2133 361.277 21.08C361.277 18.9467 361.73 17.04 362.637 15.36C363.57 13.6533 364.85 12.3333 366.477 11.4C368.13 10.44 369.997 9.96 372.077 9.96C374.13 9.96 375.904 10.4133 377.397 11.32C378.89 12.2267 380.037 13.4933 380.837 15.12C381.637 16.7467 382.037 18.6133 382.037 20.72ZM372.077 13.4C370.13 13.4 368.544 13.9333 367.317 15C366.117 16.0667 365.357 17.4933 365.037 19.28H378.357C378.117 17.4933 377.45 16.0667 376.357 15C375.264 13.9333 373.837 13.4 372.077 13.4ZM400.561 28C401.041 28 401.441 28.1867 401.761 28.56C402.107 28.9333 402.281 29.4133 402.281 30C402.281 30.5867 402.054 31.0667 401.601 31.44C401.174 31.8133 400.614 32 399.921 32H399.201C397.894 32 396.694 31.6667 395.601 31C394.534 30.3067 393.694 29.3733 393.081 28.2C392.467 27.0267 392.161 25.7067 392.161 24.24V14.36H390.321C389.761 14.36 389.307 14.2 388.961 13.88C388.614 13.56 388.441 13.16 388.441 12.68C388.441 12.1467 388.614 11.72 388.961 11.4C389.307 11.08 389.761 10.92 390.321 10.92H392.161V5.16C392.161 4.57333 392.347 4.09333 392.721 3.72C393.094 3.34667 393.574 3.16 394.161 3.16C394.747 3.16 395.227 3.34667 395.601 3.72C395.974 4.09333 396.161 4.57333 396.161 5.16V10.92H399.561C400.121 10.92 400.574 11.08 400.921 11.4C401.267 11.72 401.441 12.1467 401.441 12.68C401.441 13.16 401.267 13.56 400.921 13.88C400.574 14.2 400.121 14.36 399.561 14.36H396.161V24.24C396.161 25.3067 396.454 26.2 397.041 26.92C397.627 27.64 398.347 28 399.201 28H400.561ZM439.774 8.8C439.774 7.44 439.321 6.28 438.414 5.32C437.507 4.36 436.294 3.88 434.774 3.88C432.881 3.88 431.441 4.4 430.454 5.44C429.494 6.45333 429.014 7.84 429.014 9.6C429.014 10.1867 428.827 10.68 428.454 11.08C428.081 11.4533 427.587 11.64 426.974 11.64C426.387 11.64 425.894 11.4533 425.494 11.08C425.121 10.68 424.934 10.1867 424.934 9.6C424.934 7.76 425.334 6.12 426.134 4.68C426.961 3.24 428.121 2.12 429.614 1.32C431.107 0.519998 432.827 0.119998 434.774 0.119998C436.481 0.119998 438.014 0.493331 439.374 1.24C440.761 1.96 441.841 2.98667 442.614 4.32C443.387 5.62667 443.774 7.12 443.774 8.8C443.774 10.24 443.547 11.5067 443.094 12.6C442.641 13.6667 442.027 14.6267 441.254 15.48C440.481 16.3067 439.481 17.2133 438.254 18.2C437.614 18.7067 437.147 19.3867 436.854 20.24C436.561 21.0933 436.414 21.8667 436.414 22.56C436.414 23.1467 436.227 23.64 435.854 24.04C435.481 24.4133 434.987 24.6 434.374 24.6C433.787 24.6 433.294 24.4133 432.894 24.04C432.521 23.64 432.334 23.1467 432.334 22.56C432.334 21.44 432.614 20.2667 433.174 19.04C433.734 17.8133 434.547 16.7467 435.614 15.84C436.627 14.9867 437.387 14.28 437.894 13.72C438.427 13.16 438.867 12.48 439.214 11.68C439.587 10.88 439.774 9.92 439.774 8.8ZM434.374 26.44C435.147 26.44 435.801 26.72 436.334 27.28C436.894 27.8133 437.174 28.4667 437.174 29.24C437.174 29.9867 436.894 30.64 436.334 31.2C435.801 31.7333 435.147 32 434.374 32C433.627 32 432.974 31.7333 432.414 31.2C431.881 30.64 431.614 29.9867 431.614 29.24C431.614 28.4667 431.881 27.8133 432.414 27.28C432.974 26.72 433.627 26.44 434.374 26.44Z" fill="url(#paint0_linear)"/>
<defs>
<linearGradient id="paint0_linear" x1="-2.01843e-06" y1="-1.25704" x2="94.0623" y2="203.598" gradientUnits="userSpaceOnUse">
<stop stop-color="#632FDE"/>
<stop offset="0.0465075" stop-color="#8451B4"/>
<stop offset="0.144441" stop-color="#A87687"/>
<stop offset="0.462233" stop-color="#E2B33D"/>
<stop offset="0.784198" stop-color="#DF9C3D"/>
<stop offset="0.870785" stop-color="#DB7E3D"/>
<stop offset="1" stop-color="#CF263C"/>
</linearGradient>
</defs>
</svg>
