<svg width="299" height="33" viewBox="0 0 299 33" fill="none" xmlns="http://www.w3.org/2000/svg">
<path d="M2.08 32C1.49333 32 1 31.8 0.6 31.4C0.2 31 5.96046e-08 30.5067 5.96046e-08 29.92V2.84C5.96046e-08 2.22667 0.2 1.73333 0.6 1.36C1 0.959999 1.49333 0.759999 2.08 0.759999C2.69333 0.759999 3.18667 0.959999 3.56 1.36C3.96 1.73333 4.16 2.22667 4.16 2.84V14.32H22.72V2.84C22.72 2.22667 22.92 1.73333 23.32 1.36C23.72 0.959999 24.2133 0.759999 24.8 0.759999C25.3867 0.759999 25.8667 0.959999 26.24 1.36C26.64 1.73333 26.84 2.22667 26.84 2.84V29.92C26.84 30.5333 26.64 31.04 26.24 31.44C25.8667 31.8133 25.3867 32 24.8 32C24.2133 32 23.72 31.8 23.32 31.4C22.92 31 22.72 30.5067 22.72 29.92V18H4.16V29.92C4.16 30.5067 3.96 31 3.56 31.4C3.18667 31.8 2.69333 32 2.08 32ZM48.3638 32.16C46.2304 32.16 44.3238 31.6933 42.6438 30.76C40.9638 29.8 39.6571 28.48 38.7238 26.8C37.7904 25.12 37.3238 23.2133 37.3238 21.08C37.3238 18.92 37.7904 17 38.7238 15.32C39.6571 13.64 40.9638 12.3333 42.6438 11.4C44.3238 10.44 46.2304 9.96 48.3638 9.96C50.4704 9.96 52.3504 10.44 54.0038 11.4C55.6838 12.3333 56.9904 13.64 57.9238 15.32C58.8838 17 59.3638 18.92 59.3638 21.08C59.3638 23.2133 58.8971 25.12 57.9638 26.8C57.0304 28.48 55.7238 29.8 54.0438 30.76C52.3904 31.6933 50.4971 32.16 48.3638 32.16ZM48.3638 28.56C49.7238 28.56 50.9371 28.24 52.0038 27.6C53.0971 26.96 53.9371 26.08 54.5238 24.96C55.1371 23.8133 55.4438 22.52 55.4438 21.08C55.4438 19.64 55.1371 18.3467 54.5238 17.2C53.9371 16.0533 53.0971 15.16 52.0038 14.52C50.9371 13.88 49.7238 13.56 48.3638 13.56C47.0038 13.56 45.7771 13.88 44.6838 14.52C43.6171 15.16 42.7771 16.0533 42.1638 17.2C41.5504 18.3467 41.2438 19.64 41.2438 21.08C41.2438 22.52 41.5504 23.8133 42.1638 24.96C42.7771 26.08 43.6171 26.96 44.6838 27.6C45.7771 28.24 47.0038 28.56 48.3638 28.56ZM91.465 10.12C92.025 10.12 92.4383 10.2667 92.705 10.56C92.9983 10.8533 93.145 11.2533 93.145 11.76C93.145 12.1867 93.0783 12.5733 92.945 12.92L87.025 30.68C86.8917 31.0533 86.6517 31.3733 86.305 31.64C85.9583 31.88 85.5717 32 85.145 32C84.6917 32 84.2783 31.88 83.905 31.64C83.5583 31.3733 83.3317 31.0533 83.225 30.68L79.305 16.16L75.185 30.68C75.0517 31.0533 74.7983 31.3733 74.425 31.64C74.0783 31.88 73.6917 32 73.265 32C72.8383 32 72.4383 31.88 72.065 31.64C71.7183 31.3733 71.4783 31.0533 71.345 30.68L65.425 12.92C65.3183 12.5733 65.265 12.2 65.265 11.8C65.265 10.68 65.825 10.12 66.945 10.12C67.4517 10.12 67.865 10.2667 68.185 10.56C68.5317 10.8533 68.8117 11.32 69.025 11.96L73.345 25.44L77.425 11.64C77.5583 11.1867 77.785 10.8267 78.105 10.56C78.4517 10.2667 78.8917 10.12 79.425 10.12C79.9317 10.12 80.345 10.2667 80.665 10.56C81.0117 10.8267 81.2517 11.1867 81.385 11.64L84.985 25.72L89.385 11.96C89.7583 10.7333 90.4517 10.12 91.465 10.12ZM119.485 32C118.899 32 118.405 31.8133 118.005 31.44C117.632 31.04 117.445 30.5467 117.445 29.96V12.16C117.445 11.5467 117.632 11.0533 118.005 10.68C118.405 10.3067 118.899 10.12 119.485 10.12C120.099 10.12 120.592 10.3067 120.965 10.68C121.339 11.0533 121.525 11.5467 121.525 12.16V29.96C121.525 30.5467 121.339 31.04 120.965 31.44C120.592 31.8133 120.099 32 119.485 32ZM119.485 6.56C118.765 6.56 118.139 6.30667 117.605 5.8C117.099 5.26667 116.845 4.64 116.845 3.92C116.845 3.2 117.099 2.58667 117.605 2.08C118.139 1.54667 118.765 1.28 119.485 1.28C120.205 1.28 120.819 1.54667 121.325 2.08C121.859 2.58667 122.125 3.2 122.125 3.92C122.125 4.64 121.859 5.26667 121.325 5.8C120.819 6.30667 120.205 6.56 119.485 6.56ZM142.436 28C142.916 28 143.316 28.1867 143.636 28.56C143.982 28.9333 144.156 29.4133 144.156 30C144.156 30.5867 143.929 31.0667 143.476 31.44C143.049 31.8133 142.489 32 141.796 32H141.076C139.769 32 138.569 31.6667 137.476 31C136.409 30.3067 135.569 29.3733 134.956 28.2C134.342 27.0267 134.036 25.7067 134.036 24.24V14.36H132.196C131.636 14.36 131.182 14.2 130.836 13.88C130.489 13.56 130.316 13.16 130.316 12.68C130.316 12.1467 130.489 11.72 130.836 11.4C131.182 11.08 131.636 10.92 132.196 10.92H134.036V5.16C134.036 4.57333 134.222 4.09333 134.596 3.72C134.969 3.34667 135.449 3.16 136.036 3.16C136.622 3.16 137.102 3.34667 137.476 3.72C137.849 4.09333 138.036 4.57333 138.036 5.16V10.92H141.436C141.996 10.92 142.449 11.08 142.796 11.4C143.142 11.72 143.316 12.1467 143.316 12.68C143.316 13.16 143.142 13.56 142.796 13.88C142.449 14.2 141.996 14.36 141.436 14.36H138.036V24.24C138.036 25.3067 138.329 26.2 138.916 26.92C139.502 27.64 140.222 28 141.076 28H142.436ZM192.129 10.12C192.689 10.12 193.102 10.2667 193.369 10.56C193.662 10.8533 193.809 11.2533 193.809 11.76C193.809 12.1867 193.742 12.5733 193.609 12.92L187.689 30.68C187.556 31.0533 187.316 31.3733 186.969 31.64C186.622 31.88 186.236 32 185.809 32C185.356 32 184.942 31.88 184.569 31.64C184.222 31.3733 183.996 31.0533 183.889 30.68L179.969 16.16L175.849 30.68C175.716 31.0533 175.462 31.3733 175.089 31.64C174.742 31.88 174.356 32 173.929 32C173.502 32 173.102 31.88 172.729 31.64C172.382 31.3733 172.142 31.0533 172.009 30.68L166.089 12.92C165.982 12.5733 165.929 12.2 165.929 11.8C165.929 10.68 166.489 10.12 167.609 10.12C168.116 10.12 168.529 10.2667 168.849 10.56C169.196 10.8533 169.476 11.32 169.689 11.96L174.009 25.44L178.089 11.64C178.222 11.1867 178.449 10.8267 178.769 10.56C179.116 10.2667 179.556 10.12 180.089 10.12C180.596 10.12 181.009 10.2667 181.329 10.56C181.676 10.8267 181.916 11.1867 182.049 11.64L185.649 25.72L190.049 11.96C190.422 10.7333 191.116 10.12 192.129 10.12ZM211.129 32.16C208.996 32.16 207.089 31.6933 205.409 30.76C203.729 29.8 202.423 28.48 201.489 26.8C200.556 25.12 200.089 23.2133 200.089 21.08C200.089 18.92 200.556 17 201.489 15.32C202.423 13.64 203.729 12.3333 205.409 11.4C207.089 10.44 208.996 9.96 211.129 9.96C213.236 9.96 215.116 10.44 216.769 11.4C218.449 12.3333 219.756 13.64 220.689 15.32C221.649 17 222.129 18.92 222.129 21.08C222.129 23.2133 221.663 25.12 220.729 26.8C219.796 28.48 218.489 29.8 216.809 30.76C215.156 31.6933 213.263 32.16 211.129 32.16ZM211.129 28.56C212.489 28.56 213.703 28.24 214.769 27.6C215.863 26.96 216.703 26.08 217.289 24.96C217.903 23.8133 218.209 22.52 218.209 21.08C218.209 19.64 217.903 18.3467 217.289 17.2C216.703 16.0533 215.863 15.16 214.769 14.52C213.703 13.88 212.489 13.56 211.129 13.56C209.769 13.56 208.543 13.88 207.449 14.52C206.383 15.16 205.543 16.0533 204.929 17.2C204.316 18.3467 204.009 19.64 204.009 21.08C204.009 22.52 204.316 23.8133 204.929 24.96C205.543 26.08 206.383 26.96 207.449 27.6C208.543 28.24 209.769 28.56 211.129 28.56ZM242.922 9.88C244.335 9.88 245.442 10.0933 246.242 10.52C247.042 10.9467 247.442 11.48 247.442 12.12C247.442 12.3067 247.428 12.44 247.402 12.52C247.162 13.3733 246.628 13.8 245.802 13.8C245.668 13.8 245.468 13.7733 245.202 13.72C244.135 13.5333 243.268 13.44 242.602 13.44C240.682 13.44 239.135 13.88 237.962 14.76C236.788 15.64 236.202 16.8267 236.202 18.32V30C236.202 30.64 236.028 31.1333 235.682 31.48C235.362 31.8267 234.868 32 234.202 32C233.562 32 233.068 31.84 232.722 31.52C232.375 31.1733 232.202 30.6667 232.202 30V12.12C232.202 11.48 232.375 10.9867 232.722 10.64C233.068 10.2933 233.562 10.12 234.202 10.12C235.535 10.12 236.202 10.7867 236.202 12.12V12.88C237.002 11.9467 237.988 11.2133 239.162 10.68C240.335 10.1467 241.588 9.88 242.922 9.88ZM272.175 29.12C272.468 29.44 272.615 29.84 272.615 30.32C272.615 30.9067 272.375 31.4 271.895 31.8C271.495 32.12 271.068 32.28 270.615 32.28C270.028 32.28 269.548 32.04 269.175 31.56L261.575 22.16L259.575 23.92V30.04C259.575 30.6267 259.388 31.1067 259.015 31.48C258.668 31.8267 258.201 32 257.615 32C257.028 32 256.548 31.8267 256.175 31.48C255.828 31.1067 255.655 30.6267 255.655 30.04V2.72C255.655 2.13333 255.828 1.66667 256.175 1.32C256.548 0.946666 257.028 0.759999 257.615 0.759999C258.201 0.759999 258.668 0.946666 259.015 1.32C259.388 1.66667 259.575 2.13333 259.575 2.72V19L269.295 10.32C269.641 9.97333 270.055 9.8 270.535 9.8C271.095 9.8 271.548 10.0133 271.895 10.44C272.241 10.7867 272.415 11.2 272.415 11.68C272.415 12.24 272.201 12.6933 271.775 13.04L264.415 19.6L272.175 29.12ZM290.388 32.16C288.575 32.16 286.868 31.88 285.268 31.32C283.668 30.76 282.415 30.0267 281.508 29.12C281.161 28.7733 280.988 28.36 280.988 27.88C280.988 27.24 281.255 26.72 281.788 26.32C282.295 25.9467 282.761 25.76 283.188 25.76C283.721 25.76 284.228 26 284.708 26.48C285.215 27.04 285.975 27.5333 286.988 27.96C288.001 28.36 289.081 28.56 290.228 28.56C291.748 28.56 292.921 28.3067 293.748 27.8C294.601 27.2933 295.028 26.6133 295.028 25.76C295.028 24.9333 294.615 24.2533 293.788 23.72C292.961 23.16 291.561 22.6933 289.588 22.32C284.468 21.3333 281.908 19.2267 281.908 16C281.908 14.6933 282.295 13.5867 283.068 12.68C283.841 11.7733 284.855 11.0933 286.108 10.64C287.361 10.1867 288.695 9.96 290.108 9.96C291.841 9.96 293.388 10.24 294.748 10.8C296.135 11.36 297.228 12.1333 298.028 13.12C298.375 13.5467 298.548 13.9733 298.548 14.4C298.548 14.8533 298.321 15.2667 297.868 15.64C297.575 15.8533 297.201 15.96 296.748 15.96C296.055 15.96 295.428 15.7067 294.868 15.2C294.201 14.5867 293.495 14.16 292.748 13.92C292.001 13.6533 291.095 13.52 290.028 13.52C288.801 13.52 287.788 13.7333 286.988 14.16C286.215 14.56 285.828 15.1333 285.828 15.88C285.828 16.4133 285.961 16.8667 286.228 17.24C286.495 17.5867 287.001 17.92 287.748 18.24C288.495 18.5333 289.575 18.8267 290.988 19.12C293.895 19.7067 295.948 20.52 297.148 21.56C298.375 22.6 298.988 23.9467 298.988 25.6C298.988 26.8267 298.655 27.9467 297.988 28.96C297.321 29.9467 296.335 30.7333 295.028 31.32C293.748 31.88 292.201 32.16 290.388 32.16Z" fill="url(#paint0_linear)"/>
<defs>
<linearGradient id="paint0_linear" x1="-4" y1="-1.25704" x2="110.794" y2="169.711" gradientUnits="userSpaceOnUse">
<stop stop-color="#632FDE"/>
<stop offset="0.0465075" stop-color="#8451B4"/>
<stop offset="0.144441" stop-color="#A87687"/>
<stop offset="0.462233" stop-color="#E2B33D"/>
<stop offset="0.784198" stop-color="#DF9C3D"/>
<stop offset="0.870785" stop-color="#DB7E3D"/>
<stop offset="1" stop-color="#CF263C"/>
</linearGradient>
</defs>
</svg>
