<svg width="202" height="32" viewBox="0 0 202 32" fill="none" xmlns="http://www.w3.org/2000/svg">
<path d="M50.1582 15.6914L48.2715 10.4688L46.3711 15.6914H50.1582ZM49.3516 6.32617L56.4746 26H53.9043L50.9375 17.8242H45.5918L42.5703 26H39.9863L47.2051 6.32617H49.3516ZM63.882 19.7656C62.9523 19.2552 62.3143 18.8268 61.968 18.4805C61.2935 17.806 60.9562 17.0312 60.9562 16.1562C60.9562 15.2904 61.2844 14.5247 61.9406 13.8594C62.5969 13.194 63.4172 12.8613 64.4016 12.8613C65.3859 12.8613 66.1789 13.1667 66.7805 13.7773C67.4003 14.3971 67.7102 15.0762 67.7102 15.8145V16.1973L65.4953 17.0996C65.3586 16.0697 65.1991 15.4635 65.0168 15.2812C64.8436 15.099 64.6385 15.0078 64.4016 15.0078C64.1646 15.0078 63.9413 15.1126 63.7316 15.3223C63.522 15.5319 63.4172 15.8099 63.4172 16.1562C63.4172 16.5026 63.5357 16.7943 63.7727 17.0312C63.9276 17.1953 64.2876 17.4551 64.8527 17.8105C65.8827 18.3757 66.6346 18.8906 67.1086 19.3555C67.856 20.1211 68.2297 21.0234 68.2297 22.0625C68.2297 23.1289 67.8423 24.054 67.0676 24.8379C66.2928 25.6217 65.3221 26.0137 64.1555 26.0137C62.9888 26.0137 62.0135 25.6217 61.2297 24.8379C60.4549 24.054 60.0676 23.0742 60.0676 21.8984L62.5285 21.2832C62.5285 22.3405 62.6971 23.0378 63.0344 23.375C63.3716 23.7122 63.7453 23.8809 64.1555 23.8809C64.5656 23.8809 64.9393 23.7122 65.2766 23.375C65.6229 23.0378 65.7961 22.6003 65.7961 22.0625C65.7961 21.543 65.6138 21.1055 65.2492 20.75C65.0305 20.5404 64.5747 20.2122 63.882 19.7656ZM98.6305 21.666L100.353 23.1973C98.1383 25.2116 95.7001 26.2188 93.0387 26.2188C90.1767 26.2188 87.7568 25.2344 85.7789 23.2656C83.8102 21.2878 82.8258 18.918 82.8258 16.1562C82.8258 13.4219 83.8102 11.0612 85.7789 9.07422C87.7568 7.08724 90.1767 6.09375 93.0387 6.09375C95.7001 6.09375 98.1383 7.10547 100.353 9.12891L98.6305 10.6602C96.8258 9.0651 94.9619 8.26758 93.0387 8.26758C90.9423 8.26758 89.1285 9.0332 87.5973 10.5645C86.0751 12.0866 85.3141 13.9505 85.3141 16.1562C85.3141 18.3802 86.0751 20.2533 87.5973 21.7754C89.1285 23.2975 90.9423 24.0586 93.0387 24.0586C94.9619 24.0586 96.8258 23.2611 98.6305 21.666ZM111.11 15.3633C109.98 15.5365 109.105 15.9876 108.485 16.7168C107.865 17.4368 107.555 18.3438 107.555 19.4375V26H105.081V13.5039H107.555V15.2812C107.92 14.306 108.704 13.627 109.907 13.2441L111.11 15.3633ZM118.299 17.209H126.488C125.905 15.5137 124.547 14.666 122.414 14.666C120.272 14.666 118.9 15.5137 118.299 17.209ZM117.861 19.3691V19.4102C117.861 20.7409 118.312 21.8574 119.215 22.7598C120.117 23.6621 121.184 24.1133 122.414 24.1133C123.635 24.1133 124.706 23.653 125.627 22.7324C125.755 22.6048 126.001 22.3177 126.365 21.8711L128.689 22.6914C128.343 23.2747 127.942 23.7897 127.486 24.2363C126.101 25.6309 124.41 26.3281 122.414 26.3281C120.436 26.3281 118.759 25.6445 117.383 24.2773C116.016 22.901 115.332 21.2786 115.332 19.4102C115.332 17.5234 116.016 15.8965 117.383 14.5293C118.759 13.1621 120.436 12.4785 122.414 12.4785C124.41 12.4785 126.101 13.1712 127.486 14.5566C128.68 15.7598 129.277 17.3639 129.277 19.3691H117.861ZM147.595 26H145.12V23.8125C144.145 25.4896 142.659 26.3281 140.663 26.3281C138.685 26.3281 137.008 25.6445 135.632 24.2773C134.265 22.901 133.581 21.2786 133.581 19.4102C133.581 17.5234 134.265 15.8965 135.632 14.5293C137.008 13.1621 138.685 12.4785 140.663 12.4785C142.659 12.4785 144.145 13.3079 145.12 14.9668V13.5039H147.595V26ZM145.12 20.3945V18.3984C144.947 17.4961 144.532 16.7168 143.876 16.0605C142.956 15.1309 141.885 14.666 140.663 14.666C139.433 14.666 138.366 15.1217 137.464 16.0332C136.562 16.9447 136.111 18.0703 136.111 19.4102C136.111 20.7409 136.562 21.8574 137.464 22.7598C138.366 23.6621 139.433 24.1133 140.663 24.1133C141.885 24.1133 142.956 23.653 143.876 22.7324C144.532 22.0762 144.947 21.2969 145.12 20.3945ZM154.373 13.5039V8.65039H156.834V13.5039H159.159V15.6367H156.834V26H154.373V15.6367H152.049V13.5039H154.373ZM170.463 12.4785C172.459 12.4785 174.136 13.1621 175.494 14.5293C176.852 15.8965 177.531 17.5234 177.531 19.4102C177.531 21.2786 176.852 22.901 175.494 24.2773C174.136 25.6445 172.459 26.3281 170.463 26.3281C168.485 26.3281 166.808 25.6445 165.431 24.2773C164.064 22.901 163.38 21.2786 163.38 19.4102C163.38 17.5234 164.064 15.8965 165.431 14.5293C166.808 13.1621 168.485 12.4785 170.463 12.4785ZM170.463 14.666C169.232 14.666 168.166 15.1217 167.263 16.0332C166.361 16.9447 165.91 18.0703 165.91 19.4102C165.91 20.7409 166.361 21.8574 167.263 22.7598C168.166 23.6621 169.232 24.1133 170.463 24.1133C171.684 24.1133 172.746 23.6621 173.648 22.7598C174.56 21.8574 175.015 20.7409 175.015 19.4102C175.015 18.0703 174.56 16.9447 173.648 16.0332C172.746 15.1217 171.684 14.666 170.463 14.666ZM188.411 15.3633C187.281 15.5365 186.406 15.9876 185.786 16.7168C185.166 17.4368 184.856 18.3438 184.856 19.4375V26H182.382V13.5039H184.856V15.2812C185.221 14.306 186.005 13.627 187.208 13.2441L188.411 15.3633ZM196.488 19.7656C195.559 19.2552 194.921 18.8268 194.574 18.4805C193.9 17.806 193.562 17.0312 193.562 16.1562C193.562 15.2904 193.891 14.5247 194.547 13.8594C195.203 13.194 196.023 12.8613 197.008 12.8613C197.992 12.8613 198.785 13.1667 199.387 13.7773C200.007 14.3971 200.316 15.0762 200.316 15.8145V16.1973L198.102 17.0996C197.965 16.0697 197.805 15.4635 197.623 15.2812C197.45 15.099 197.245 15.0078 197.008 15.0078C196.771 15.0078 196.548 15.1126 196.338 15.3223C196.128 15.5319 196.023 15.8099 196.023 16.1562C196.023 16.5026 196.142 16.7943 196.379 17.0312C196.534 17.1953 196.894 17.4551 197.459 17.8105C198.489 18.3757 199.241 18.8906 199.715 19.3555C200.462 20.1211 200.836 21.0234 200.836 22.0625C200.836 23.1289 200.449 24.054 199.674 24.8379C198.899 25.6217 197.928 26.0137 196.762 26.0137C195.595 26.0137 194.62 25.6217 193.836 24.8379C193.061 24.054 192.674 23.0742 192.674 21.8984L195.135 21.2832C195.135 22.3405 195.303 23.0378 195.641 23.375C195.978 23.7122 196.352 23.8809 196.762 23.8809C197.172 23.8809 197.546 23.7122 197.883 23.375C198.229 23.0378 198.402 22.6003 198.402 22.0625C198.402 21.543 198.22 21.1055 197.855 20.75C197.637 20.5404 197.181 20.2122 196.488 19.7656Z" fill="#E2B33D"/>
<g clip-path="url(#clip0)">
<path d="M12.1207 24.0016C12.758 23.7538 13.476 23.3673 14.2782 22.8246C14.0206 21.9419 13.5449 21.11 12.8501 20.4153C11.9464 19.5115 10.7906 18.9525 9.54165 18.8003C9.00716 19.8026 8.68518 20.6634 8.54584 21.3909C10.07 21.7228 11.3593 22.6906 12.1207 24.0016Z" fill="url(#paint0_linear)"/>
<path d="M7.40816 30.9995C9.74467 30.9837 11.634 29.0853 11.634 26.7451C11.634 24.3951 9.72894 22.49 7.3789 22.49C5.03933 22.49 3.13984 24.3885 3.12294 26.7241C3.12294 26.7229 3.12294 26.7218 3.12294 26.7218C3.12294 26.7218 3.12294 26.7226 3.12294 26.7247C3.12294 27.6941 1.84286 31.0002 0 31.0002H7.40816V30.9995Z" fill="url(#paint1_linear)"/>
<path d="M29.8674 1.1078L29.8554 1.09703C28.9108 0.234986 20.8654 5.19197 14.7478 11.863C12.6988 14.1187 11.2127 16.0449 10.2013 17.6639C11.5243 17.9266 12.7406 18.5734 13.7159 19.5487C14.4522 20.285 14.9861 21.148 15.3187 22.0679C16.8037 20.9196 18.5341 19.3016 20.5224 17.1335C26.6084 10.4336 30.8119 1.9699 29.8674 1.1078Z" fill="url(#paint2_linear)"/>
</g>
<defs>
<linearGradient id="paint0_linear" x1="8.54584" y1="19.0018" x2="15.1043" y2="20.5901" gradientUnits="userSpaceOnUse">
<stop stop-color="#632FDE"/>
<stop offset="0.0465075" stop-color="#8451B4"/>
<stop offset="0.144441" stop-color="#A87687"/>
<stop offset="0.462233" stop-color="#E2B33D"/>
<stop offset="0.784198" stop-color="#DF9C3D"/>
<stop offset="0.870785" stop-color="#DB7E3D"/>
<stop offset="1" stop-color="#CF263C"/>
</linearGradient>
<linearGradient id="paint1_linear" x1="3" y1="24.5" x2="11.5498" y2="27.657" gradientUnits="userSpaceOnUse">
<stop stop-color="#632FDE"/>
<stop offset="0.0465075" stop-color="#8451B4"/>
<stop offset="0.144441" stop-color="#A87687"/>
<stop offset="0.462233" stop-color="#E2B33D"/>
<stop offset="0.784198" stop-color="#DF9C3D"/>
<stop offset="0.870785" stop-color="#DB7E3D"/>
<stop offset="1" stop-color="#CF263C"/>
</linearGradient>
<linearGradient id="paint2_linear" x1="14.5" y1="6" x2="27.2815" y2="9.38475" gradientUnits="userSpaceOnUse">
<stop stop-color="#632FDE"/>
<stop offset="0.0465075" stop-color="#8451B4"/>
<stop offset="0.144441" stop-color="#A87687"/>
<stop offset="0.462233" stop-color="#E2B33D"/>
<stop offset="0.784198" stop-color="#DF9C3D"/>
<stop offset="0.870785" stop-color="#DB7E3D"/>
<stop offset="1" stop-color="#CF263C"/>
</linearGradient>
<clipPath id="clip0">
<rect width="30" height="30" fill="white" transform="translate(0 1)"/>
</clipPath>
</defs>
</svg>
