<svg width="20" height="20" viewBox="0 0 20 20" fill="none" xmlns="http://www.w3.org/2000/svg">
<g clip-path="url(#clip0)">
<path d="M9.99959 19.5231C4.74848 19.5231 0.476364 15.2507 0.476364 9.99942C0.476364 4.74809 4.74848 0.475769 9.99959 0.475769C15.2512 0.475769 19.5237 4.74809 19.5237 9.99942C19.5237 15.2507 15.2512 19.5231 9.99959 19.5231ZM9.99959 1.4288C5.27349 1.4288 1.42857 5.27354 1.42857 9.99942C1.42857 14.7258 5.27349 18.5709 9.99959 18.5709C14.7262 18.5709 18.5715 14.7258 18.5715 9.99942C18.5715 5.27354 14.7262 1.4288 9.99959 1.4288Z" fill="#E2B33D"/>
<path d="M1.89733 5.97597C3.38072 3.00091 6.45544 0.952606 9.9996 0.952606C13.5441 0.952606 16.619 3.00079 18.1026 5.97579C16.6191 3.00056 13.5441 0.951908 9.9996 0.951908C6.45549 0.951908 3.38072 3.00067 1.89733 5.97597ZM9.9996 19.9992C4.48592 19.9992 0.000183105 15.5133 0.000183105 9.99939C0.000183105 4.48544 4.48592 -0.000427246 9.9996 -0.000427246C15.5138 -0.000427246 19.9999 4.48544 19.9999 9.99939C19.9999 15.5133 15.5138 19.9992 9.9996 19.9992ZM9.9996 1.90494C5.53613 1.90494 1.90477 5.53613 1.90477 9.99939C1.90477 14.4632 5.53613 18.0947 9.9996 18.0947C14.4636 18.0947 18.0953 14.4632 18.0953 9.99939C18.0953 5.53613 14.4636 1.90494 9.9996 1.90494Z" fill="#E2B33D"/>
<path d="M10 17.142C13.9449 17.142 17.1429 13.9442 17.1429 9.99951C17.1429 6.05481 13.9449 2.85699 10 2.85699C6.05511 2.85699 2.85714 6.05481 2.85714 9.99951C2.85714 13.9442 6.05511 17.142 10 17.142Z" fill="#E2B33D"/>
</g>
<defs>
<clipPath id="clip0">
<rect width="20" height="20" fill="white"/>
</clipPath>
</defs>
</svg>
