<svg width="20" height="20" viewBox="0 0 20 20" fill="none" xmlns="http://www.w3.org/2000/svg">
<path d="M10 0C4.48611 0 0 4.48611 0 10C0 15.5139 4.48611 20 10 20C15.5139 20 20 15.5139 20 10C20 4.48611 15.5139 0 10 0ZM10 18.2609C5.44521 18.2609 1.73911 14.5548 1.73911 10C1.73911 5.44521 5.44521 1.73915 10 1.73915C14.5548 1.73915 18.2609 5.44521 18.2609 10C18.2609 14.5548 14.5548 18.2609 10 18.2609Z" fill="url(#paint0_linear)"/>
<path d="M14.0972 5.51137C13.9786 5.3919 13.7994 5.35754 13.6464 5.42465L7.91961 7.8791C7.82308 7.92002 7.74615 7.99772 7.70443 8.09429L5.25007 13.8213C5.1838 13.9751 5.21816 14.1535 5.33678 14.2721C5.41532 14.349 5.52005 14.3907 5.62639 14.3907C5.68039 14.3907 5.73519 14.3793 5.78758 14.358L11.5144 11.9036C11.6109 11.8619 11.6879 11.785 11.7296 11.6884L14.1839 5.96137C14.2494 5.80755 14.215 5.62918 14.0972 5.51137ZM9.717 10.7091C9.26621 10.7091 8.8989 10.3417 8.8989 9.89094C8.8989 9.44013 9.26624 9.07281 9.717 9.07281C10.1678 9.07281 10.5351 9.44017 10.5351 9.89094C10.5351 10.3417 10.1678 10.7091 9.717 10.7091Z" fill="#E2B33D"/>
<defs>
<linearGradient id="paint0_linear" x1="10" y1="0" x2="10" y2="20" gradientUnits="userSpaceOnUse">
<stop offset="1" stop-color="#E2B33D"/>
</linearGradient>
</defs>
</svg>
