<svg width="7" height="22" viewBox="0 0 7 22" fill="none" xmlns="http://www.w3.org/2000/svg">
<path d="M3.5 5.6875C4.70812 5.6875 5.6875 4.70812 5.6875 3.5C5.6875 2.29188 4.70812 1.3125 3.5 1.3125C2.29188 1.3125 1.3125 2.29188 1.3125 3.5C1.3125 4.70812 2.29188 5.6875 3.5 5.6875Z" stroke="#E2B33D"/>
<path d="M3.5 13.4653C4.70812 13.4653 5.6875 12.4859 5.6875 11.2778C5.6875 10.0696 4.70812 9.09027 3.5 9.09027C2.29188 9.09027 1.3125 10.0696 1.3125 11.2778C1.3125 12.4859 2.29188 13.4653 3.5 13.4653Z" stroke="#E2B33D"/>
<path d="M3.5 21.243C4.70812 21.243 5.6875 20.2637 5.6875 19.0555C5.6875 17.8474 4.70812 16.868 3.5 16.868C2.29188 16.868 1.3125 17.8474 1.3125 19.0555C1.3125 20.2637 2.29188 21.243 3.5 21.243Z" stroke="#E2B33D"/>
</svg>
