<svg width="50" height="50" viewBox="0 0 50 50" fill="none" xmlns="http://www.w3.org/2000/svg">
<g clip-path="url(#clip0)">
<path d="M24.999 48.8076C11.8712 48.8076 1.19092 38.1269 1.19092 24.9985C1.19092 11.8702 11.8712 1.18941 24.999 1.18941C38.1279 1.18941 48.8092 11.8702 48.8092 24.9985C48.8092 38.1269 38.1279 48.8076 24.999 48.8076ZM24.999 3.57199C13.1837 3.57199 3.57143 13.1838 3.57143 24.9985C3.57143 36.8144 13.1837 46.4272 24.999 46.4272C36.8154 46.4272 46.4287 36.8144 46.4287 24.9985C46.4287 13.1838 36.8154 3.57199 24.999 3.57199Z" fill="#E2B33D"/>
<path d="M4.74311 14.9406C8.45158 7.50291 16.1384 2.38216 24.9988 2.38216C33.8601 2.38216 41.5473 7.50262 45.2564 14.9401C41.5475 7.50204 33.8599 2.38041 24.9988 2.38041C16.1385 2.38041 8.45158 7.50233 4.74311 14.9406ZM24.9988 49.9986C11.2146 49.9986 0.000244141 38.784 0.000244141 24.9991C0.000244141 11.2142 11.2146 -0.000427246 24.9988 -0.000427246C38.7843 -0.000427246 49.9995 11.2142 49.9995 24.9991C49.9995 38.784 38.7843 49.9986 24.9988 49.9986ZM24.9988 4.76299C13.8401 4.76299 4.76171 13.841 4.76171 24.9991C4.76171 36.1586 13.8401 45.2374 24.9988 45.2374C36.1588 45.2374 45.238 36.1586 45.238 24.9991C45.238 13.841 36.1588 4.76299 24.9988 4.76299Z" fill="#E2B33D"/>
<path d="M25.0002 42.8551C34.8624 42.8551 42.8574 34.8606 42.8574 24.9988C42.8574 15.1371 34.8624 7.14252 25.0002 7.14252C15.138 7.14252 7.14307 15.1371 7.14307 24.9988C7.14307 34.8606 15.138 42.8551 25.0002 42.8551Z" fill="#E2B33D"/>
</g>
<defs>
<clipPath id="clip0">
<rect width="50" height="50" fill="white"/>
</clipPath>
</defs>
</svg>
