<svg width="50" height="50" viewBox="0 0 50 50" fill="none" xmlns="http://www.w3.org/2000/svg">
<path d="M25 0C11.2153 0 0 11.2153 0 25C0 38.7847 11.2153 50 25 50C38.7847 50 50 38.7847 50 25C50 11.2153 38.7848 0 25 0ZM25 45.6522C13.613 45.6522 4.34776 36.387 4.34776 25C4.34776 13.613 13.613 4.34787 25 4.34787C36.387 4.34787 45.6522 13.613 45.6522 25C45.6522 36.387 36.387 45.6522 25 45.6522Z" fill="url(#paint0_linear)"/>
<path d="M35.2432 13.7784C34.9467 13.4798 34.4988 13.3939 34.1162 13.5616L19.7992 19.6978C19.5579 19.8001 19.3655 19.9943 19.2612 20.2357L13.1253 34.5533C12.9597 34.9379 13.0456 35.3837 13.3421 35.6803C13.5385 35.8726 13.8003 35.9769 14.0661 35.9769C14.2011 35.9769 14.3381 35.9482 14.4691 35.8951L28.7862 29.759C29.0275 29.6547 29.2198 29.4624 29.3241 29.221L35.46 14.9034C35.6237 14.5189 35.5378 14.0729 35.2432 13.7784ZM24.2927 26.7727C23.1657 26.7727 22.2474 25.8543 22.2474 24.7274C22.2474 23.6003 23.1658 22.682 24.2927 22.682C25.4197 22.682 26.3379 23.6004 26.3379 24.7274C26.338 25.8543 25.4197 26.7727 24.2927 26.7727Z" fill="#E2B33D"/>
<defs>
<linearGradient id="paint0_linear" x1="25" y1="0" x2="25" y2="50" gradientUnits="userSpaceOnUse">
<stop offset="1" stop-color="#E2B33D"/>
</linearGradient>
</defs>
</svg>
