<svg width="13" height="50" viewBox="0 0 13 50" fill="none" xmlns="http://www.w3.org/2000/svg">
<path d="M6.25 11.402C9.27031 11.402 11.7188 9.01974 11.7188 6.08106C11.7188 3.14238 9.27031 0.760117 6.25 0.760117C3.22969 0.760117 0.78125 3.14238 0.78125 6.08106C0.78125 9.01974 3.22969 11.402 6.25 11.402Z" stroke="#E2B33D"/>
<path d="M6.25 30.3209C9.27031 30.3209 11.7188 27.9387 11.7188 25C11.7188 22.0613 9.27031 19.679 6.25 19.679C3.22969 19.679 0.78125 22.0613 0.78125 25C0.78125 27.9387 3.22969 30.3209 6.25 30.3209Z" stroke="#E2B33D"/>
<path d="M6.25 49.2399C9.27031 49.2399 11.7188 46.8576 11.7188 43.9189C11.7188 40.9802 9.27031 38.598 6.25 38.598C3.22969 38.598 0.78125 40.9802 0.78125 43.9189C0.78125 46.8576 3.22969 49.2399 6.25 49.2399Z" stroke="#E2B33D"/>
</svg>
