<svg width="251" height="31" viewBox="0 0 251 31" fill="none" xmlns="http://www.w3.org/2000/svg">
                <g>
                <rect x="1" y="1" width="238" height="20" rx="1.5" stroke="url(#paint0_linear)"/>
                </g>
                <path d="M51.3535 10.582L50.5449 8.34375L49.7305 10.582H51.3535ZM51.0078 6.56836L54.0605 15H52.959L51.6875 11.4961H49.3965L48.1016 15H46.9941L50.0879 6.56836H51.0078ZM61.7176 15H60.657V14.0625C60.2391 14.7812 59.6023 15.1406 58.7469 15.1406C57.8992 15.1406 57.1805 14.8477 56.5906 14.2617C56.0047 13.6719 55.7117 12.9766 55.7117 12.1758C55.7117 11.3672 56.0047 10.6699 56.5906 10.084C57.1805 9.49805 57.8992 9.20508 58.7469 9.20508C59.6023 9.20508 60.2391 9.56055 60.657 10.2715V6.56836H61.7176V15ZM60.657 12.5977V11.7422C60.5828 11.3555 60.4051 11.0215 60.1238 10.7402C59.7293 10.3418 59.2703 10.1426 58.7469 10.1426C58.2195 10.1426 57.7625 10.3379 57.3758 10.7285C56.9891 11.1191 56.7957 11.6016 56.7957 12.1758C56.7957 12.7461 56.9891 13.2246 57.3758 13.6113C57.7625 13.998 58.2195 14.1914 58.7469 14.1914C59.2703 14.1914 59.7293 13.9941 60.1238 13.5996C60.4051 13.3184 60.5828 12.9844 60.657 12.5977ZM69.8785 15H68.818V14.0625C68.4 14.7812 67.7633 15.1406 66.9078 15.1406C66.0602 15.1406 65.3414 14.8477 64.7516 14.2617C64.1656 13.6719 63.8727 12.9766 63.8727 12.1758C63.8727 11.3672 64.1656 10.6699 64.7516 10.084C65.3414 9.49805 66.0602 9.20508 66.9078 9.20508C67.7633 9.20508 68.4 9.56055 68.818 10.2715V6.56836H69.8785V15ZM68.818 12.5977V11.7422C68.7437 11.3555 68.566 11.0215 68.2848 10.7402C67.8902 10.3418 67.4312 10.1426 66.9078 10.1426C66.3805 10.1426 65.9234 10.3379 65.5367 10.7285C65.15 11.1191 64.9566 11.6016 64.9566 12.1758C64.9566 12.7461 65.15 13.2246 65.5367 13.6113C65.9234 13.998 66.3805 14.1914 66.9078 14.1914C67.4312 14.1914 67.8902 13.9941 68.2848 13.5996C68.566 13.3184 68.7437 12.9844 68.818 12.5977ZM75.1098 6.56836H76.2641L72.4438 15H71.2953L75.1098 6.56836ZM84.3664 13.1426L85.1047 13.7988C84.1555 14.6621 83.1105 15.0938 81.9699 15.0938C80.7434 15.0938 79.7062 14.6719 78.8586 13.8281C78.0148 12.9805 77.593 11.9648 77.593 10.7812C77.593 9.60938 78.0148 8.59766 78.8586 7.74609C79.7062 6.89453 80.7434 6.46875 81.9699 6.46875C83.1105 6.46875 84.1555 6.90234 85.1047 7.76953L84.3664 8.42578C83.593 7.74219 82.7941 7.40039 81.9699 7.40039C81.0715 7.40039 80.2941 7.72852 79.6379 8.38477C78.9855 9.03711 78.6594 9.83594 78.6594 10.7812C78.6594 11.7344 78.9855 12.5371 79.6379 13.1895C80.2941 13.8418 81.0715 14.168 81.9699 14.168C82.7941 14.168 83.593 13.8262 84.3664 13.1426ZM87.2305 6.56836H88.291V9.64453C88.4707 9.44922 88.8418 9.35156 89.4043 9.35156C90.0801 9.35156 90.625 9.55859 91.0391 9.97266C91.4531 10.3867 91.6641 10.8926 91.6719 11.4902V15H90.6172V11.5371C90.6172 11.1738 90.4941 10.873 90.248 10.6348C90.002 10.3926 89.7207 10.2715 89.4043 10.2715C89.0918 10.2715 88.8164 10.3848 88.5781 10.6113C88.4414 10.748 88.3457 10.8789 88.291 11.0039V15H87.2305V6.56836ZM99.8035 15H98.743V14.0625C98.325 14.7812 97.6883 15.1406 96.8328 15.1406C95.9852 15.1406 95.2664 14.8477 94.6766 14.2617C94.0906 13.6719 93.7977 12.9766 93.7977 12.1758C93.7977 11.3672 94.0906 10.6699 94.6766 10.084C95.2664 9.49805 95.9852 9.20508 96.8328 9.20508C97.6883 9.20508 98.325 9.56055 98.743 10.2715V9.64453H99.8035V15ZM98.743 12.5977V11.7422C98.6688 11.3555 98.491 11.0215 98.2098 10.7402C97.8152 10.3418 97.3563 10.1426 96.8328 10.1426C96.3055 10.1426 95.8484 10.3379 95.4617 10.7285C95.075 11.1191 94.8816 11.6016 94.8816 12.1758C94.8816 12.7461 95.075 13.2246 95.4617 13.6113C95.8484 13.998 96.3055 14.1914 96.8328 14.1914C97.3563 14.1914 97.8152 13.9941 98.2098 13.5996C98.491 13.3184 98.6688 12.9844 98.743 12.5977ZM103.166 11.0039V15H102.105V9.64453H103.166C103.345 9.44922 103.716 9.35156 104.279 9.35156C104.955 9.35156 105.5 9.55859 105.914 9.97266C106.328 10.3867 106.539 10.8926 106.546 11.4902V15H105.492V11.5371C105.492 11.1738 105.369 10.873 105.123 10.6348C104.877 10.3926 104.595 10.2715 104.279 10.2715C103.966 10.2715 103.691 10.3848 103.453 10.6113C103.316 10.748 103.22 10.8789 103.166 11.0039ZM113.571 11.7246C113.493 11.3457 113.309 11.0098 113.02 10.7168C112.641 10.334 112.19 10.1426 111.666 10.1426C111.139 10.1426 110.682 10.3379 110.295 10.7285C109.909 11.1191 109.715 11.6016 109.715 12.1758C109.715 12.7461 109.909 13.2266 110.295 13.6172C110.682 14.0039 111.139 14.1973 111.666 14.1973C112.19 14.1973 112.649 14 113.043 13.6055C113.317 13.332 113.493 13.0078 113.571 12.6328V11.7246ZM113.5 14.0918C113.133 14.791 112.522 15.1406 111.666 15.1406C110.819 15.1406 110.1 14.8477 109.51 14.2617C108.924 13.6719 108.631 12.9766 108.631 12.1758C108.631 11.3672 108.924 10.6719 109.51 10.0898C110.1 9.50391 110.819 9.21094 111.666 9.21094C112.518 9.21094 113.155 9.56445 113.577 10.2715V9.64453H114.637V13.6758C114.637 14.4609 114.354 15.1348 113.787 15.6973C113.194 16.2949 112.471 16.5938 111.62 16.5938C110.768 16.5938 110.051 16.3027 109.469 15.7207C109.336 15.584 109.168 15.3809 108.965 15.1113L109.979 14.7422C110.116 14.9141 110.211 15.0234 110.266 15.0703C110.645 15.4531 111.096 15.6445 111.62 15.6445C112.725 15.6445 113.352 15.127 113.5 14.0918ZM117.841 11.2324H121.351C121.101 10.5059 120.519 10.1426 119.605 10.1426C118.687 10.1426 118.099 10.5059 117.841 11.2324ZM117.654 12.1582V12.1758C117.654 12.7461 117.847 13.2246 118.234 13.6113C118.62 13.998 119.077 14.1914 119.605 14.1914C120.128 14.1914 120.587 13.9941 120.982 13.5996C121.036 13.5449 121.142 13.4219 121.298 13.2305L122.294 13.582C122.146 13.832 121.974 14.0527 121.779 14.2441C121.185 14.8418 120.46 15.1406 119.605 15.1406C118.757 15.1406 118.038 14.8477 117.448 14.2617C116.863 13.6719 116.57 12.9766 116.57 12.1758C116.57 11.3672 116.863 10.6699 117.448 10.084C118.038 9.49805 118.757 9.20508 119.605 9.20508C120.46 9.20508 121.185 9.50195 121.779 10.0957C122.29 10.6113 122.546 11.2988 122.546 12.1582H117.654ZM129.839 6.56836V15H128.778V6.56836H129.839ZM133.429 9.64453V15H132.375V9.64453H133.429ZM132.908 7.91016C133.123 7.91016 133.3 7.98047 133.441 8.12109C133.586 8.25781 133.658 8.41211 133.658 8.58398C133.658 8.76367 133.586 8.92383 133.441 9.06445C133.3 9.20117 133.123 9.26953 132.908 9.26953C132.685 9.26953 132.504 9.20117 132.363 9.06445C132.222 8.92383 132.152 8.76367 132.152 8.58398C132.152 8.41211 132.222 8.25781 132.363 8.12109C132.504 7.98047 132.685 7.91016 132.908 7.91016ZM136.967 11.0039V15H135.907V9.64453H136.967C137.147 9.44922 137.518 9.35156 138.08 9.35156C138.756 9.35156 139.301 9.55859 139.715 9.97266C140.129 10.3867 140.34 10.8926 140.348 11.4902V15H139.293V11.5371C139.293 11.1738 139.17 10.873 138.924 10.6348C138.678 10.3926 138.397 10.2715 138.08 10.2715C137.768 10.2715 137.493 10.3848 137.254 10.6113C137.118 10.748 137.022 10.8789 136.967 11.0039ZM145.937 9.64453L144.53 11.3906L146.57 15H145.357L143.845 12.2344L143.769 12.334V15H142.708V7.56445H143.769V10.7344L144.654 9.64453H145.937Z" fill="#E2B33D"/>
                <defs>
                <filter id="filter0_d" x="0" y="0" width="251" height="31" filterUnits="userSpaceOnUse" color-interpolation-filters="sRGB">
                <feFlood flood-opacity="0" result="BackgroundImageFix"/>
                <feColorMatrix in="SourceAlpha" type="matrix" values="0 0 0 0 0 0 0 0 0 0 0 0 0 0 0 0 0 0 127 0"/>
                <feOffset dx="1" dy="3"/>
                <feGaussianBlur stdDeviation="3"/>
                <feColorMatrix type="matrix" values="0 0 0 0 0 0 0 0 0 0 0 0 0 0 0 0 0 0 0.45 0"/>
                <feBlend mode="normal" in2="BackgroundImageFix" result="effect1_dropShadow"/>
                <feBlend mode="normal" in="SourceGraphic" in2="effect1_dropShadow" result="shape"/>
                </filter>
                <linearGradient id="paint0_linear" x1="5" y1="3.73592" x2="38.5043" y2="96.3448" gradientUnits="userSpaceOnUse">
                <stop stop-color="#632FDE"/>
                <stop offset="0.0465075" stop-color="#8451B4"/>
                <stop offset="0.144441" stop-color="#A87687"/>
                <stop offset="0.462233" stop-color="#E2B33D"/>
                <stop offset="0.784198" stop-color="#DF9C3D"/>
                <stop offset="0.870785" stop-color="#DB7E3D"/>
                <stop offset="1" stop-color="#CF263C"/>
                </linearGradient>
                </defs>
                </svg>