 <svg 
                
                  width="253.33" height="90.17" viewBox="0 0 253.33 90.17" fill="none" xmlns="http://www.w3.org/2000/svg">
                <g>
                <rect x="1" y="1" width="238" height="88" rx="5.5" stroke="url(#paint0_linear)"/>
                </g>
                <path d="M56.6094 41.5234L57.5938 42.3984C56.3281 43.5495 54.9349 44.125 53.4141 44.125C51.7786 44.125 50.3958 43.5625 49.2656 42.4375C48.1406 41.3073 47.5781 39.9531 47.5781 38.375C47.5781 36.8125 48.1406 35.4635 49.2656 34.3281C50.3958 33.1927 51.7786 32.625 53.4141 32.625C54.9349 32.625 56.3281 33.2031 57.5938 34.3594L56.6094 35.2344C55.5781 34.3229 54.513 33.8672 53.4141 33.8672C52.2161 33.8672 51.1797 34.3047 50.3047 35.1797C49.4349 36.0495 49 37.1146 49 38.375C49 39.6458 49.4349 40.7161 50.3047 41.5859C51.1797 42.4557 52.2161 42.8906 53.4141 42.8906C54.513 42.8906 55.5781 42.4349 56.6094 41.5234ZM60.4281 32.7578H61.8422V36.8594C62.0818 36.599 62.5766 36.4688 63.3266 36.4688C64.2276 36.4688 64.9542 36.7448 65.5063 37.2969C66.0583 37.849 66.3396 38.5234 66.35 39.3203V44H64.9438V39.3828C64.9438 38.8984 64.7797 38.4974 64.4516 38.1797C64.1234 37.8568 63.7484 37.6953 63.3266 37.6953C62.9099 37.6953 62.5427 37.8464 62.225 38.1484C62.0427 38.3307 61.9151 38.5052 61.8422 38.6719V44H60.4281V32.7578ZM77.1922 44H75.7781V42.75C75.2208 43.7083 74.3719 44.1875 73.2313 44.1875C72.101 44.1875 71.1427 43.7969 70.3563 43.0156C69.575 42.2292 69.1844 41.3021 69.1844 40.2344C69.1844 39.1562 69.575 38.2266 70.3563 37.4453C71.1427 36.6641 72.101 36.2734 73.2313 36.2734C74.3719 36.2734 75.2208 36.7474 75.7781 37.6953V36.8594H77.1922V44ZM75.7781 40.7969V39.6562C75.6792 39.1406 75.4422 38.6953 75.0672 38.3203C74.5411 37.7891 73.9292 37.5234 73.2313 37.5234C72.5281 37.5234 71.9188 37.7839 71.4031 38.3047C70.8875 38.8255 70.6297 39.4688 70.6297 40.2344C70.6297 40.9948 70.8875 41.6328 71.4031 42.1484C71.9188 42.6641 72.5281 42.9219 73.2313 42.9219C73.9292 42.9219 74.5411 42.6589 75.0672 42.1328C75.4422 41.7578 75.6792 41.3125 75.7781 40.7969ZM81.675 38.6719V44H80.2609V36.8594H81.675C81.9146 36.599 82.4094 36.4688 83.1594 36.4688C84.0604 36.4688 84.787 36.7448 85.3391 37.2969C85.8911 37.849 86.1724 38.5234 86.1828 39.3203V44H84.7766V39.3828C84.7766 38.8984 84.6125 38.4974 84.2844 38.1797C83.9562 37.8568 83.5812 37.6953 83.1594 37.6953C82.7427 37.6953 82.3755 37.8464 82.0578 38.1484C81.8755 38.3307 81.7479 38.5052 81.675 38.6719ZM95.5484 39.6328C95.4443 39.1276 95.1995 38.6797 94.8141 38.2891C94.3089 37.7786 93.7073 37.5234 93.0094 37.5234C92.3063 37.5234 91.6969 37.7839 91.1813 38.3047C90.6656 38.8255 90.4078 39.4688 90.4078 40.2344C90.4078 40.9948 90.6656 41.6354 91.1813 42.1562C91.6969 42.6719 92.3063 42.9297 93.0094 42.9297C93.7073 42.9297 94.3193 42.6667 94.8453 42.1406C95.2099 41.776 95.4443 41.3438 95.5484 40.8438V39.6328ZM95.4547 42.7891C94.9651 43.7214 94.15 44.1875 93.0094 44.1875C91.8792 44.1875 90.9208 43.7969 90.1344 43.0156C89.3531 42.2292 88.9625 41.3021 88.9625 40.2344C88.9625 39.1562 89.3531 38.2292 90.1344 37.4531C90.9208 36.6719 91.8792 36.2812 93.0094 36.2812C94.1448 36.2812 94.9938 36.7526 95.5563 37.6953V36.8594H96.9703V42.2344C96.9703 43.2812 96.5927 44.1797 95.8375 44.9297C95.0458 45.7266 94.0823 46.125 92.9469 46.125C91.8115 46.125 90.8557 45.737 90.0797 44.9609C89.9026 44.7786 89.6786 44.5078 89.4078 44.1484L90.7594 43.6562C90.9417 43.8854 91.0693 44.0312 91.1422 44.0938C91.6474 44.6042 92.249 44.8594 92.9469 44.8594C94.4208 44.8594 95.2568 44.1693 95.4547 42.7891ZM101.242 38.9766H105.922C105.589 38.0078 104.812 37.5234 103.594 37.5234C102.37 37.5234 101.586 38.0078 101.242 38.9766ZM100.992 40.2109V40.2344C100.992 40.9948 101.25 41.6328 101.766 42.1484C102.281 42.6641 102.891 42.9219 103.594 42.9219C104.292 42.9219 104.904 42.6589 105.43 42.1328C105.503 42.0599 105.643 41.8958 105.852 41.6406L107.18 42.1094C106.982 42.4427 106.753 42.737 106.492 42.9922C105.701 43.7891 104.734 44.1875 103.594 44.1875C102.464 44.1875 101.505 43.7969 100.719 43.0156C99.9375 42.2292 99.5469 41.3021 99.5469 40.2344C99.5469 39.1562 99.9375 38.2266 100.719 37.4453C101.505 36.6641 102.464 36.2734 103.594 36.2734C104.734 36.2734 105.701 36.6693 106.492 37.4609C107.174 38.1484 107.516 39.0651 107.516 40.2109H100.992ZM117.255 40.3203V44H115.841V32.7578H119.059C119.997 32.8828 120.781 33.263 121.411 33.8984C122.145 34.6328 122.512 35.5104 122.512 36.5312C122.512 37.5573 122.14 38.4453 121.395 39.1953C120.651 39.9453 119.734 40.3203 118.645 40.3203H117.255ZM117.255 33.9922V39.0859H118.645C119.302 39.0859 119.874 38.8438 120.364 38.3594C120.854 37.8698 121.098 37.2604 121.098 36.5312C121.098 35.8073 120.854 35.2031 120.364 34.7188C119.874 34.2344 119.302 33.9922 118.645 33.9922H117.255ZM128.394 37.9219C127.748 38.0208 127.248 38.2786 126.894 38.6953C126.54 39.1068 126.363 39.625 126.363 40.25V44H124.948V36.8594H126.363V37.875C126.571 37.3177 127.019 36.9297 127.706 36.7109L128.394 37.9219ZM135.009 36.2734C136.15 36.2734 137.108 36.6641 137.884 37.4453C138.66 38.2266 139.048 39.1562 139.048 40.2344C139.048 41.3021 138.66 42.2292 137.884 43.0156C137.108 43.7969 136.15 44.1875 135.009 44.1875C133.879 44.1875 132.921 43.7969 132.134 43.0156C131.353 42.2292 130.963 41.3021 130.963 40.2344C130.963 39.1562 131.353 38.2266 132.134 37.4453C132.921 36.6641 133.879 36.2734 135.009 36.2734ZM135.009 37.5234C134.306 37.5234 133.697 37.7839 133.181 38.3047C132.666 38.8255 132.408 39.4688 132.408 40.2344C132.408 40.9948 132.666 41.6328 133.181 42.1484C133.697 42.6641 134.306 42.9219 135.009 42.9219C135.707 42.9219 136.314 42.6641 136.83 42.1484C137.351 41.6328 137.611 40.9948 137.611 40.2344C137.611 39.4688 137.351 38.8255 136.83 38.3047C136.314 37.7839 135.707 37.5234 135.009 37.5234ZM143.461 38.0781V44H142.047V38.0781H141.391V36.8594H142.047V35.3984C142.083 34.8411 142.302 34.3568 142.703 33.9453C143.156 33.5286 143.68 33.3203 144.273 33.3203C144.732 33.3203 145.154 33.4141 145.539 33.6016L145.125 34.7734C144.807 34.5911 144.542 34.5 144.328 34.5C144.141 34.5 143.951 34.5859 143.758 34.7578C143.576 34.9453 143.477 35.1771 143.461 35.4531V36.8594H144.789V38.0781H143.461ZM148.889 36.8594V44H147.483V36.8594H148.889ZM148.194 34.5469C148.48 34.5469 148.717 34.6406 148.905 34.8281C149.097 35.0104 149.194 35.2161 149.194 35.4453C149.194 35.6849 149.097 35.8984 148.905 36.0859C148.717 36.2682 148.48 36.3594 148.194 36.3594C147.897 36.3594 147.655 36.2682 147.467 36.0859C147.28 35.8984 147.186 35.6849 147.186 35.4453C147.186 35.2161 147.28 35.0104 147.467 34.8281C147.655 34.6406 147.897 34.5469 148.194 34.5469ZM153.692 32.7578V44H152.278V32.7578H153.692ZM158.261 38.9766H162.941C162.607 38.0078 161.831 37.5234 160.613 37.5234C159.389 37.5234 158.605 38.0078 158.261 38.9766ZM158.011 40.2109V40.2344C158.011 40.9948 158.269 41.6328 158.784 42.1484C159.3 42.6641 159.909 42.9219 160.613 42.9219C161.31 42.9219 161.922 42.6589 162.448 42.1328C162.521 42.0599 162.662 41.8958 162.87 41.6406L164.198 42.1094C164.001 42.4427 163.771 42.737 163.511 42.9922C162.719 43.7891 161.753 44.1875 160.613 44.1875C159.482 44.1875 158.524 43.7969 157.738 43.0156C156.956 42.2292 156.566 41.3021 156.566 40.2344C156.566 39.1562 156.956 38.2266 157.738 37.4453C158.524 36.6641 159.482 36.2734 160.613 36.2734C161.753 36.2734 162.719 36.6693 163.511 37.4609C164.193 38.1484 164.534 39.0651 164.534 40.2109H158.011ZM51.3359 60.7734C51.987 60.7734 52.5547 60.5312 53.0391 60.0469C53.5286 59.5573 53.7734 58.9505 53.7734 58.2266C53.7734 57.5026 53.5286 56.8958 53.0391 56.4062C52.5547 55.9167 51.987 55.6719 51.3359 55.6719H49.2891V60.7734H51.3359ZM49.2891 51.9766V54.4453H51.5547C51.862 54.4141 52.099 54.3125 52.2656 54.1406C52.4948 53.9167 52.6094 53.6172 52.6094 53.2422C52.6094 52.8776 52.4896 52.5755 52.25 52.3359C52.0104 52.0964 51.7396 51.9766 51.4375 51.9766H49.2891ZM53.3047 54.9688C53.4766 55.0104 53.7448 55.2161 54.1094 55.5859C54.8385 56.3151 55.2031 57.1953 55.2031 58.2266C55.2031 59.2474 54.8255 60.1354 54.0703 60.8906C53.4609 61.5052 52.6901 61.875 51.7578 62H47.875V50.7578H51.4453C52.1797 50.7578 52.7943 51.0052 53.2891 51.5C53.7839 51.9948 54.0312 52.5755 54.0312 53.2422C54.0312 53.9141 53.7891 54.4896 53.3047 54.9688ZM59.5297 54.8594V62H58.1234V54.8594H59.5297ZM58.8344 52.5469C59.1208 52.5469 59.3578 52.6406 59.5453 52.8281C59.738 53.0104 59.8344 53.2161 59.8344 53.4453C59.8344 53.6849 59.738 53.8984 59.5453 54.0859C59.3578 54.2682 59.1208 54.3594 58.8344 54.3594C58.5375 54.3594 58.2953 54.2682 58.1078 54.0859C57.9203 53.8984 57.8266 53.6849 57.8266 53.4453C57.8266 53.2161 57.9203 53.0104 58.1078 52.8281C58.2953 52.6406 58.5375 52.5469 58.8344 52.5469ZM66.6687 54.2734C67.8094 54.2734 68.7677 54.6641 69.5437 55.4453C70.3198 56.2266 70.7078 57.1562 70.7078 58.2344C70.7078 59.3021 70.3198 60.2292 69.5437 61.0156C68.7677 61.7969 67.8094 62.1875 66.6687 62.1875C65.5385 62.1875 64.5802 61.7969 63.7937 61.0156C63.0125 60.2292 62.6219 59.3021 62.6219 58.2344C62.6219 57.1562 63.0125 56.2266 63.7937 55.4453C64.5802 54.6641 65.5385 54.2734 66.6687 54.2734ZM66.6687 55.5234C65.9656 55.5234 65.3562 55.7839 64.8406 56.3047C64.325 56.8255 64.0672 57.4688 64.0672 58.2344C64.0672 58.9948 64.325 59.6328 64.8406 60.1484C65.3562 60.6641 65.9656 60.9219 66.6687 60.9219C67.3667 60.9219 67.9734 60.6641 68.4891 60.1484C69.0099 59.6328 69.2703 58.9948 69.2703 58.2344C69.2703 57.4688 69.0099 56.8255 68.4891 56.3047C67.9734 55.7839 67.3667 55.5234 66.6687 55.5234Z" fill="#E2B33D"/>
                <defs>
                <filter id="filter0_d" x="0" y="0" width="251" height="101" filterUnits="userSpaceOnUse" color-interpolation-filters="sRGB">
                <feFlood flood-opacity="0" result="BackgroundImageFix"/>
                <feColorMatrix in="SourceAlpha" type="matrix" values="0 0 0 0 0 0 0 0 0 0 0 0 0 0 0 0 0 0 127 0"/>
                <feOffset dx="1" dy="3"/>
                <feGaussianBlur stdDeviation="3"/>
                <feColorMatrix type="matrix" values="0 0 0 0 0 0 0 0 0 0 0 0 0 0 0 0 0 0 0.45 0"/>
                <feBlend mode="normal" in2="BackgroundImageFix" result="effect1_dropShadow"/>
                <feBlend mode="normal" in="SourceGraphic" in2="effect1_dropShadow" result="shape"/>
                </filter>
                <linearGradient id="paint0_linear" x1="5" y1="6.44718" x2="219.718" y2="133.15" gradientUnits="userSpaceOnUse">
                <stop stop-color="#632FDE"/>
                <stop offset="0.0465075" stop-color="#8451B4"/>
                <stop offset="0.144441" stop-color="#A87687"/>
                <stop offset="0.462233" stop-color="#E2B33D"/>
                <stop offset="0.784198" stop-color="#DF9C3D"/>
                <stop offset="0.870785" stop-color="#DB7E3D"/>
                <stop offset="1" stop-color="#CF263C"/>
                </linearGradient>
                </defs>
              </svg>