<svg width="96" height="31" viewBox="0 0 96 31" fill="none" xmlns="http://www.w3.org/2000/svg">
                  <g>
                  <rect x="1" y="2" width="83" height="18" rx="1.5" stroke="url(#paint0_linear)"/>
                  </g>
                  <path d="M29.176 15.12C28.4 15.12 27.692 14.944 27.052 14.592C26.42 14.24 25.984 13.78 25.744 13.212C25.704 13.116 25.684 13.036 25.684 12.972C25.684 12.852 25.728 12.748 25.816 12.66C25.904 12.564 26.024 12.5 26.176 12.468C26.2 12.46 26.24 12.456 26.296 12.456C26.424 12.456 26.544 12.496 26.656 12.576C26.776 12.648 26.864 12.748 26.92 12.876C27.064 13.188 27.348 13.452 27.772 13.668C28.196 13.884 28.664 13.992 29.176 13.992C29.776 13.992 30.284 13.856 30.7 13.584C31.116 13.304 31.324 12.924 31.324 12.444C31.324 11.988 31.148 11.6 30.796 11.28C30.444 10.952 29.908 10.752 29.188 10.68C28.196 10.584 27.416 10.296 26.848 9.816C26.28 9.328 25.996 8.72 25.996 7.992C25.996 7.48 26.14 7.04 26.428 6.672C26.724 6.296 27.124 6.012 27.628 5.82C28.14 5.62 28.712 5.52 29.344 5.52C30.032 5.52 30.612 5.66 31.084 5.94C31.556 6.22 31.956 6.62 32.284 7.14C32.38 7.292 32.428 7.436 32.428 7.572C32.428 7.748 32.348 7.892 32.188 8.004C32.1 8.06 31.996 8.088 31.876 8.088C31.756 8.088 31.644 8.06 31.54 8.004C31.436 7.94 31.356 7.856 31.3 7.752C31.084 7.392 30.812 7.12 30.484 6.936C30.164 6.744 29.756 6.648 29.26 6.648C28.652 6.648 28.16 6.768 27.784 7.008C27.408 7.24 27.22 7.58 27.22 8.028C27.22 8.444 27.388 8.792 27.724 9.072C28.06 9.352 28.66 9.536 29.524 9.624C30.484 9.72 31.228 10.012 31.756 10.5C32.284 10.98 32.548 11.616 32.548 12.408C32.548 12.984 32.392 13.48 32.08 13.896C31.768 14.304 31.352 14.612 30.832 14.82C30.32 15.02 29.768 15.12 29.176 15.12ZM38.5177 8.388C39.1337 8.388 39.6897 8.536 40.1857 8.832C40.6897 9.12 41.0857 9.52 41.3737 10.032C41.6697 10.536 41.8177 11.1 41.8177 11.724V14.4C41.8177 14.576 41.7577 14.724 41.6377 14.844C41.5257 14.956 41.3817 15.012 41.2057 15.012C41.0297 15.012 40.8817 14.956 40.7617 14.844C40.6497 14.724 40.5937 14.576 40.5937 14.4V13.956C40.3137 14.3 39.9737 14.568 39.5737 14.76C39.1737 14.952 38.7417 15.048 38.2777 15.048C37.7017 15.048 37.1777 14.904 36.7057 14.616C36.2417 14.328 35.8737 13.932 35.6017 13.428C35.3377 12.916 35.2057 12.348 35.2057 11.724C35.2057 11.1 35.3497 10.536 35.6377 10.032C35.9257 9.52 36.3217 9.12 36.8257 8.832C37.3377 8.536 37.9017 8.388 38.5177 8.388ZM38.5177 13.968C38.9177 13.968 39.2777 13.872 39.5977 13.68C39.9257 13.48 40.1817 13.212 40.3657 12.876C40.5497 12.532 40.6417 12.148 40.6417 11.724C40.6417 11.3 40.5497 10.916 40.3657 10.572C40.1817 10.228 39.9257 9.96 39.5977 9.768C39.2777 9.568 38.9177 9.468 38.5177 9.468C38.1177 9.468 37.7537 9.568 37.4257 9.768C37.1057 9.96 36.8497 10.228 36.6577 10.572C36.4737 10.916 36.3817 11.3 36.3817 11.724C36.3817 12.148 36.4737 12.532 36.6577 12.876C36.8497 13.212 37.1057 13.48 37.4257 13.68C37.7537 13.872 38.1177 13.968 38.5177 13.968ZM49.5281 8.52C49.6321 8.568 49.7121 8.636 49.7681 8.724C49.8241 8.804 49.8521 8.896 49.8521 9C49.8521 9.072 49.8321 9.148 49.7921 9.228L47.2481 14.592C47.1281 14.856 46.9441 14.988 46.6961 14.988C46.5601 14.988 46.4481 14.96 46.3601 14.904C46.2721 14.84 46.1921 14.736 46.1201 14.592L43.5761 9.228C43.5441 9.164 43.5281 9.092 43.5281 9.012C43.5281 8.796 43.6401 8.632 43.8641 8.52C43.9361 8.48 44.0201 8.46 44.1161 8.46C44.2121 8.46 44.3041 8.488 44.3921 8.544C44.4801 8.592 44.5481 8.664 44.5961 8.76L46.6841 13.26L48.7481 8.76C48.7961 8.664 48.8641 8.592 48.9521 8.544C49.0481 8.488 49.1481 8.46 49.2521 8.46C49.3561 8.46 49.4481 8.48 49.5281 8.52ZM57.9079 11.616C57.9079 11.768 57.8559 11.896 57.7519 12C57.6479 12.096 57.5159 12.144 57.3559 12.144H52.7959C52.8839 12.704 53.1359 13.156 53.5519 13.5C53.9759 13.844 54.4919 14.016 55.0999 14.016C55.3399 14.016 55.5879 13.972 55.8439 13.884C56.1079 13.796 56.3239 13.688 56.4919 13.56C56.6039 13.472 56.7359 13.428 56.8879 13.428C57.0399 13.428 57.1599 13.468 57.2479 13.548C57.3919 13.668 57.4639 13.804 57.4639 13.956C57.4639 14.1 57.3999 14.22 57.2719 14.316C56.9999 14.532 56.6599 14.708 56.2519 14.844C55.8519 14.98 55.4679 15.048 55.0999 15.048C54.4439 15.048 53.8559 14.908 53.3359 14.628C52.8159 14.34 52.4079 13.944 52.1119 13.44C51.8239 12.936 51.6799 12.364 51.6799 11.724C51.6799 11.084 51.8159 10.512 52.0879 10.008C52.3679 9.496 52.7519 9.1 53.2399 8.82C53.7359 8.532 54.2959 8.388 54.9199 8.388C55.5359 8.388 56.0679 8.524 56.5159 8.796C56.9639 9.068 57.3079 9.448 57.5479 9.936C57.7879 10.424 57.9079 10.984 57.9079 11.616ZM54.9199 9.42C54.3359 9.42 53.8599 9.58 53.4919 9.9C53.1319 10.22 52.9039 10.648 52.8079 11.184H56.8039C56.7319 10.648 56.5319 10.22 56.2039 9.9C55.8759 9.58 55.4479 9.42 54.9199 9.42Z" fill="#E2B33D"/>
                  <defs>
                  <filter id="filter0_d" x="0" y="0" width="96" height="31" filterUnits="userSpaceOnUse" color-interpolation-filters="sRGB">
                  <feFlood flood-opacity="0" result="BackgroundImageFix"/>
                  <feColorMatrix in="SourceAlpha" type="matrix" values="0 0 0 0 0 0 0 0 0 0 0 0 0 0 0 0 0 0 127 0"/>
                  <feOffset dx="1" dy="3"/>
                  <feGaussianBlur stdDeviation="3"/>
                  <feColorMatrix type="matrix" values="0 0 0 0 0 0 0 0 0 0 0 0 0 0 0 0 0 0 0.45 0"/>
                  <feBlend mode="normal" in2="BackgroundImageFix" result="effect1_dropShadow"/>
                  <feBlend mode="normal" in="SourceGraphic" in2="effect1_dropShadow" result="shape"/>
                  </filter>
                  <linearGradient id="paint0_linear" x1="5" y1="3.73592" x2="57.3431" y2="54.5862" gradientUnits="userSpaceOnUse">
                  <stop stop-color="#632FDE"/>
                  <stop offset="0.0465075" stop-color="#8451B4"/>
                  <stop offset="0.144441" stop-color="#A87687"/>
                  <stop offset="0.462233" stop-color="#E2B33D"/>
                  <stop offset="0.784198" stop-color="#DF9C3D"/>
                  <stop offset="0.870785" stop-color="#DB7E3D"/>
                  <stop offset="1" stop-color="#CF263C"/>
                  </linearGradient>
                  </defs>
                </svg>